<svg width="118" height="68" viewBox="0 0 118 68" fill="none" xmlns="http://www.w3.org/2000/svg">
<path d="M12.0234 12.4521C12.0234 14.5732 11.4463 16.1963 10.292 17.3213C9.14355 18.4404 7.48828 19 5.32617 19H1.7666V6.15039H5.7041C7.70215 6.15039 9.25488 6.7041 10.3623 7.81152C11.4697 8.91895 12.0234 10.4658 12.0234 12.4521ZM10.4414 12.5049C10.4414 10.8291 10.0195 9.56641 9.17578 8.7168C8.33789 7.86719 7.08984 7.44238 5.43164 7.44238H3.26074V17.708H5.08008C6.86133 17.708 8.2002 17.2715 9.09668 16.3984C9.99316 15.5195 10.4414 14.2217 10.4414 12.5049Z" fill="#A02B2B"/>
<path d="M16.0019 19H14.7373V11.6035H16.0019V19ZM14.6347 9.6416C14.6347 9.43652 14.6962 9.26335 14.8193 9.12207C14.9469 8.98079 15.1337 8.91016 15.3798 8.91016C15.6259 8.91016 15.8128 8.98079 15.9404 9.12207C16.068 9.26335 16.1318 9.43652 16.1318 9.6416C16.1318 9.84668 16.068 10.0176 15.9404 10.1543C15.8128 10.291 15.6259 10.3594 15.3798 10.3594C15.1337 10.3594 14.9469 10.291 14.8193 10.1543C14.6962 10.0176 14.6347 9.84668 14.6347 9.6416ZM23.0186 19C22.9457 18.8542 22.8864 18.5944 22.8409 18.2207C22.253 18.8314 21.5511 19.1367 20.7354 19.1367C20.0062 19.1367 19.4069 18.9316 18.9375 18.5215C18.4727 18.1068 18.2403 17.5827 18.2403 16.9492C18.2403 16.179 18.5319 15.582 19.1153 15.1582C19.7032 14.7298 20.528 14.5156 21.5899 14.5156H22.8204V13.9346C22.8204 13.4925 22.6882 13.1416 22.4239 12.8818C22.1595 12.6175 21.7699 12.4854 21.2549 12.4854C20.8037 12.4854 20.4255 12.5993 20.1202 12.8271C19.8148 13.055 19.6621 13.3307 19.6621 13.6543H18.3907C18.3907 13.2852 18.5205 12.9297 18.7803 12.5879C19.0446 12.2415 19.4001 11.9681 19.8467 11.7676C20.2979 11.5671 20.7924 11.4668 21.3301 11.4668C22.1823 11.4668 22.85 11.681 23.333 12.1094C23.8161 12.5332 24.0668 13.1188 24.085 13.8662V17.2705C24.085 17.9495 24.1716 18.4896 24.3448 18.8906V19H23.0186ZM20.92 18.0361C21.3164 18.0361 21.6924 17.9336 22.0479 17.7285C22.4034 17.5234 22.6608 17.2568 22.8204 16.9287V15.4111H21.8291C20.2797 15.4111 19.5049 15.8646 19.5049 16.7715C19.5049 17.168 19.6371 17.4779 19.9014 17.7012C20.1657 17.9245 20.5052 18.0361 20.92 18.0361ZM27.8614 19H26.5968V8.5H27.8614V19ZM33.3811 19.1367C32.3784 19.1367 31.5627 18.8086 30.9338 18.1523C30.3049 17.4915 29.9904 16.6097 29.9904 15.5068V15.2744C29.9904 14.5407 30.1294 13.8867 30.4074 13.3125C30.69 12.7337 31.0819 12.2826 31.5832 11.959C32.0891 11.6309 32.6359 11.4668 33.2238 11.4668C34.1854 11.4668 34.9328 11.7835 35.466 12.417C35.9992 13.0505 36.2658 13.9574 36.2658 15.1377V15.6641H31.2551C31.2733 16.3932 31.4852 16.9834 31.8908 17.4346C32.301 17.8812 32.8205 18.1045 33.4494 18.1045C33.896 18.1045 34.2743 18.0133 34.5842 17.8311C34.8941 17.6488 35.1652 17.4072 35.3977 17.1064L36.1701 17.708C35.5503 18.6605 34.6206 19.1367 33.3811 19.1367ZM33.2238 12.5059C32.7134 12.5059 32.285 12.6927 31.9387 13.0664C31.5923 13.4355 31.3781 13.9551 31.2961 14.625H35.0012V14.5293C34.9647 13.8867 34.7915 13.39 34.4816 13.0391C34.1717 12.6836 33.7525 12.5059 33.2238 12.5059ZM40.22 15.5752L39.427 16.4023V19H38.1624V8.5H39.427V14.8506L40.1038 14.0371L42.4075 11.6035H43.9456L41.0677 14.6934L44.2805 19H42.7971L40.22 15.5752ZM47.3871 9.8125V11.6035H48.7679V12.5811H47.3871V17.168C47.3871 17.4642 47.4486 17.6875 47.5716 17.8379C47.6947 17.9837 47.9043 18.0566 48.2005 18.0566C48.3464 18.0566 48.5469 18.0293 48.8021 17.9746V19C48.4694 19.0911 48.1459 19.1367 47.8314 19.1367C47.2663 19.1367 46.8402 18.9658 46.5531 18.624C46.266 18.2822 46.1224 17.7969 46.1224 17.168V12.5811H44.7757V11.6035H46.1224V9.8125H47.3871ZM52.0454 19H50.7807V11.6035H52.0454V19ZM50.6782 9.6416C50.6782 9.43652 50.7397 9.26335 50.8627 9.12207C50.9903 8.98079 51.1772 8.91016 51.4233 8.91016C51.6694 8.91016 51.8562 8.98079 51.9838 9.12207C52.1114 9.26335 52.1752 9.43652 52.1752 9.6416C52.1752 9.84668 52.1114 10.0176 51.9838 10.1543C51.8562 10.291 51.6694 10.3594 51.4233 10.3594C51.1772 10.3594 50.9903 10.291 50.8627 10.1543C50.7397 10.0176 50.6782 9.84668 50.6782 9.6416ZM58.8023 17.0381C58.8023 16.6963 58.6724 16.432 58.4126 16.2451C58.1574 16.0537 57.7085 15.8896 57.0659 15.7529C56.4279 15.6162 55.9198 15.4521 55.5415 15.2607C55.1678 15.0693 54.8898 14.8415 54.7075 14.5771C54.5298 14.3128 54.4409 13.9984 54.4409 13.6338C54.4409 13.0277 54.6961 12.515 55.2066 12.0957C55.7215 11.6764 56.3778 11.4668 57.1753 11.4668C58.0139 11.4668 58.6929 11.6833 59.2124 12.1162C59.7365 12.5492 59.9986 13.1029 59.9986 13.7773H58.7271C58.7271 13.431 58.579 13.1325 58.2827 12.8818C57.9911 12.6312 57.6219 12.5059 57.1753 12.5059C56.715 12.5059 56.355 12.6061 56.0952 12.8066C55.8355 13.0072 55.7056 13.2692 55.7056 13.5928C55.7056 13.8981 55.8264 14.1283 56.0679 14.2832C56.3094 14.4382 56.7446 14.5863 57.3736 14.7275C58.007 14.8688 58.5197 15.0374 58.9116 15.2334C59.3036 15.4294 59.593 15.6663 59.7798 15.9443C59.9712 16.2178 60.0669 16.5527 60.0669 16.9492C60.0669 17.61 59.8026 18.141 59.2739 18.542C58.7453 18.9385 58.0594 19.1367 57.2163 19.1367C56.6239 19.1367 56.0998 19.0319 55.6441 18.8223C55.1883 18.6126 54.8306 18.321 54.5708 17.9473C54.3156 17.569 54.188 17.1611 54.188 16.7236H55.4527C55.4754 17.1475 55.6441 17.4847 55.9585 17.7354C56.2775 17.9814 56.6968 18.1045 57.2163 18.1045C57.6948 18.1045 58.0777 18.0088 58.3648 17.8174C58.6564 17.6214 58.8023 17.3617 58.8023 17.0381ZM65.1012 18.1045C65.5523 18.1045 65.9466 17.9678 66.2838 17.6943C66.621 17.4209 66.8079 17.0791 66.8443 16.6689H68.0406C68.0178 17.0928 67.872 17.4961 67.6031 17.8789C67.3342 18.2617 66.9742 18.5671 66.523 18.7949C66.0764 19.0228 65.6025 19.1367 65.1012 19.1367C64.094 19.1367 63.2919 18.8018 62.6949 18.1318C62.1025 17.4574 61.8063 16.5368 61.8063 15.3701V15.1582C61.8063 14.4382 61.9384 13.7979 62.2027 13.2373C62.4671 12.6768 62.8453 12.2415 63.3375 11.9316C63.8342 11.6217 64.4199 11.4668 65.0943 11.4668C65.9238 11.4668 66.6119 11.7152 67.1588 12.2119C67.7102 12.7087 68.0042 13.3535 68.0406 14.1465H66.8443C66.8079 13.668 66.6256 13.276 66.2975 12.9707C65.9739 12.6608 65.5729 12.5059 65.0943 12.5059C64.4518 12.5059 63.9527 12.7383 63.5973 13.2031C63.2464 13.6634 63.0709 14.3311 63.0709 15.2061V15.4453C63.0709 16.2975 63.2464 16.9538 63.5973 17.4141C63.9482 17.8743 64.4495 18.1045 65.1012 18.1045ZM71.1471 12.499C71.7077 11.8109 72.4369 11.4668 73.3346 11.4668C74.8978 11.4668 75.6862 12.3486 75.6999 14.1123V19H74.4352V14.1055C74.4307 13.5723 74.3076 13.1781 74.0661 12.9229C73.8291 12.6676 73.4577 12.54 72.9518 12.54C72.5417 12.54 72.1817 12.6494 71.8718 12.8682C71.5619 13.0869 71.3203 13.374 71.1471 13.7295V19H69.8825V8.5H71.1471V12.499ZM81.0828 19.1367C80.0802 19.1367 79.2644 18.8086 78.6355 18.1523C78.0066 17.4915 77.6921 16.6097 77.6921 15.5068V15.2744C77.6921 14.5407 77.8311 13.8867 78.1091 13.3125C78.3917 12.7337 78.7836 12.2826 79.2849 11.959C79.7908 11.6309 80.3377 11.4668 80.9255 11.4668C81.8871 11.4668 82.6345 11.7835 83.1677 12.417C83.7009 13.0505 83.9675 13.9574 83.9675 15.1377V15.6641H78.9568C78.975 16.3932 79.1869 16.9834 79.5925 17.4346C80.0027 17.8812 80.5222 18.1045 81.1511 18.1045C81.5977 18.1045 81.976 18.0133 82.2859 17.8311C82.5958 17.6488 82.867 17.4072 83.0994 17.1064L83.8718 17.708C83.252 18.6605 82.3224 19.1367 81.0828 19.1367ZM80.9255 12.5059C80.4151 12.5059 79.9867 12.6927 79.6404 13.0664C79.294 13.4355 79.0798 13.9551 78.9978 14.625H82.7029V14.5293C82.6664 13.8867 82.4933 13.39 82.1834 13.0391C81.8735 12.6836 81.4542 12.5059 80.9255 12.5059Z" fill="#2E0909"/>
<path d="M5.25586 34.2959C3.80859 33.8799 2.75391 33.3701 2.0918 32.7666C1.43555 32.1572 1.10742 31.4072 1.10742 30.5166C1.10742 29.5088 1.50879 28.6768 2.31152 28.0205C3.12012 27.3584 4.16895 27.0273 5.45801 27.0273C6.33691 27.0273 7.11914 27.1973 7.80469 27.5371C8.49609 27.877 9.0293 28.3457 9.4043 28.9434C9.78516 29.541 9.97559 30.1943 9.97559 30.9033H8.2793C8.2793 30.1299 8.0332 29.5234 7.54102 29.084C7.04883 28.6387 6.35449 28.416 5.45801 28.416C4.62598 28.416 3.97559 28.6006 3.50684 28.9697C3.04395 29.333 2.8125 29.8398 2.8125 30.4902C2.8125 31.0117 3.03223 31.4541 3.47168 31.8174C3.91699 32.1748 4.66992 32.5029 5.73047 32.8018C6.79688 33.1006 7.62891 33.4316 8.22656 33.7949C8.83008 34.1523 9.27539 34.5713 9.5625 35.0518C9.85547 35.5322 10.002 36.0977 10.002 36.748C10.002 37.7852 9.59766 38.6172 8.78906 39.2441C7.98047 39.8652 6.89941 40.1758 5.5459 40.1758C4.66699 40.1758 3.84668 40.0088 3.08496 39.6748C2.32324 39.335 1.73438 38.8721 1.31836 38.2861C0.908203 37.7002 0.703125 37.0352 0.703125 36.291H2.39941C2.39941 37.0645 2.68359 37.6768 3.25195 38.1279C3.82617 38.5732 4.59082 38.7959 5.5459 38.7959C6.43652 38.7959 7.11914 38.6143 7.59375 38.251C8.06836 37.8877 8.30566 37.3926 8.30566 36.7656C8.30566 36.1387 8.08594 35.6553 7.64648 35.3154C7.20703 34.9697 6.41016 34.6299 5.25586 34.2959ZM1.48535 61V48.2031H5.66895C7.05762 48.2031 8.10059 48.4902 8.79785 49.0645C9.50098 49.6387 9.85254 50.4883 9.85254 51.6133C9.85254 52.2109 9.68262 52.7412 9.34277 53.2041C9.00293 53.6611 8.54004 54.0156 7.9541 54.2676C8.64551 54.4609 9.19043 54.8301 9.58887 55.375C9.99316 55.9141 10.1953 56.5586 10.1953 57.3086C10.1953 58.457 9.82324 59.3594 9.0791 60.0156C8.33496 60.6719 7.2832 61 5.92383 61H1.48535ZM3.17285 55.0146V59.6201H5.95898C6.74414 59.6201 7.3623 59.418 7.81348 59.0137C8.27051 58.6035 8.49902 58.041 8.49902 57.3262C8.49902 55.7852 7.66113 55.0146 5.98535 55.0146H3.17285ZM3.17285 53.6611H5.72168C6.45996 53.6611 7.04883 53.4766 7.48828 53.1074C7.93359 52.7383 8.15625 52.2373 8.15625 51.6045C8.15625 50.9014 7.95117 50.3916 7.54102 50.0752C7.13086 49.7529 6.50684 49.5918 5.66895 49.5918H3.17285V53.6611Z" fill="#A02B2B"/>
<path d="M13.9004 30.8125V32.6035H15.2812V33.5811H13.9004V38.168C13.9004 38.4642 13.9619 38.6875 14.0849 38.8379C14.208 38.9837 14.4176 39.0566 14.7138 39.0566C14.8597 39.0566 15.0602 39.0293 15.3154 38.9746V40C14.9827 40.0911 14.6591 40.1367 14.3447 40.1367C13.7796 40.1367 13.3535 39.9658 13.0664 39.624C12.7793 39.2822 12.6357 38.7969 12.6357 38.168V33.5811H11.289V32.6035H12.6357V30.8125H13.9004ZM20.7598 33.7383C20.5684 33.7064 20.361 33.6904 20.1377 33.6904C19.3083 33.6904 18.7455 34.0436 18.4493 34.75V40H17.1846V32.6035H18.4151L18.4356 33.458C18.8503 32.7972 19.4382 32.4668 20.1993 32.4668C20.4454 32.4668 20.6322 32.4987 20.7598 32.5625V33.7383ZM26.6417 40C26.5688 39.8542 26.5096 39.5944 26.464 39.2207C25.8761 39.8314 25.1743 40.1367 24.3585 40.1367C23.6293 40.1367 23.0301 39.9316 22.5607 39.5215C22.0958 39.1068 21.8634 38.5827 21.8634 37.9492C21.8634 37.179 22.1551 36.582 22.7384 36.1582C23.3263 35.7298 24.1512 35.5156 25.213 35.5156H26.4435V34.9346C26.4435 34.4925 26.3113 34.1416 26.047 33.8818C25.7827 33.6175 25.393 33.4854 24.878 33.4854C24.4269 33.4854 24.0486 33.5993 23.7433 33.8271C23.4379 34.055 23.2853 34.3307 23.2853 34.6543H22.0138C22.0138 34.2852 22.1437 33.9297 22.4034 33.5879C22.6678 33.2415 23.0232 32.9681 23.4698 32.7676C23.921 32.5671 24.4155 32.4668 24.9532 32.4668C25.8055 32.4668 26.4731 32.681 26.9562 33.1094C27.4392 33.5332 27.6899 34.1188 27.7081 34.8662V38.2705C27.7081 38.9495 27.7947 39.4896 27.9679 39.8906V40H26.6417ZM24.5431 39.0361C24.9396 39.0361 25.3155 38.9336 25.671 38.7285C26.0265 38.5234 26.284 38.2568 26.4435 37.9287V36.4111H25.4523C23.9028 36.4111 23.128 36.8646 23.128 37.7715C23.128 38.168 23.2602 38.4779 23.5245 38.7012C23.7889 38.9245 24.1284 39.0361 24.5431 39.0361ZM31.8264 30.8125V32.6035H33.2072V33.5811H31.8264V38.168C31.8264 38.4642 31.8879 38.6875 32.0109 38.8379C32.134 38.9837 32.3436 39.0566 32.6398 39.0566C32.7857 39.0566 32.9862 39.0293 33.2414 38.9746V40C32.9087 40.0911 32.5852 40.1367 32.2707 40.1367C31.7056 40.1367 31.2795 39.9658 30.9924 39.624C30.7053 39.2822 30.5617 38.7969 30.5617 38.168V33.5811H29.215V32.6035H30.5617V30.8125H31.8264ZM38.18 40.1367C37.1774 40.1367 36.3616 39.8086 35.7327 39.1523C35.1038 38.4915 34.7893 37.6097 34.7893 36.5068V36.2744C34.7893 35.5407 34.9283 34.8867 35.2063 34.3125C35.4889 33.7337 35.8808 33.2826 36.3821 32.959C36.888 32.6309 37.4348 32.4668 38.0227 32.4668C38.9843 32.4668 39.7317 32.7835 40.2649 33.417C40.7981 34.0505 41.0647 34.9574 41.0647 36.1377V36.6641H36.054C36.0722 37.3932 36.2841 37.9834 36.6897 38.4346C37.0999 38.8812 37.6194 39.1045 38.2483 39.1045C38.6949 39.1045 39.0732 39.0133 39.3831 38.8311C39.693 38.6488 39.9641 38.4072 40.1966 38.1064L40.969 38.708C40.3492 39.6605 39.4195 40.1367 38.18 40.1367ZM38.0227 33.5059C37.5123 33.5059 37.0839 33.6927 36.7376 34.0664C36.3912 34.4355 36.177 34.9551 36.095 35.625H39.8001V35.5293C39.7636 34.8867 39.5904 34.39 39.2805 34.0391C38.9707 33.6836 38.5514 33.5059 38.0227 33.5059ZM42.6537 36.2402C42.6537 35.0872 42.9203 34.1712 43.4535 33.4922C43.9867 32.8086 44.6931 32.4668 45.5726 32.4668C46.475 32.4668 47.1791 32.7858 47.6849 33.4238L47.7464 32.6035H48.9017V39.8223C48.9017 40.7793 48.6169 41.5335 48.0472 42.085C47.4821 42.6364 46.7211 42.9121 45.764 42.9121C45.2308 42.9121 44.709 42.7982 44.1986 42.5703C43.6882 42.3424 43.2985 42.0303 43.0296 41.6338L43.6859 40.875C44.2282 41.5449 44.8913 41.8799 45.6752 41.8799C46.2904 41.8799 46.7689 41.7067 47.1107 41.3604C47.4571 41.014 47.6302 40.5264 47.6302 39.8975V39.2617C47.1244 39.8451 46.4339 40.1367 45.5589 40.1367C44.6931 40.1367 43.9912 39.7881 43.4535 39.0908C42.9203 38.3936 42.6537 37.4434 42.6537 36.2402ZM43.9252 36.3838C43.9252 37.2178 44.0961 37.874 44.4379 38.3525C44.7796 38.8265 45.2582 39.0635 45.8734 39.0635C46.6709 39.0635 47.2565 38.7012 47.6302 37.9766V34.5996C47.2429 33.8932 46.6618 33.54 45.8871 33.54C45.2718 33.54 44.791 33.7793 44.4447 34.2578C44.0983 34.7363 43.9252 35.445 43.9252 36.3838ZM52.6098 40H51.3452V32.6035H52.6098V40ZM51.2426 30.6416C51.2426 30.4365 51.3041 30.2633 51.4272 30.1221C51.5548 29.9808 51.7416 29.9102 51.9877 29.9102C52.2338 29.9102 52.4207 29.9808 52.5483 30.1221C52.6759 30.2633 52.7397 30.4365 52.7397 30.6416C52.7397 30.8467 52.6759 31.0176 52.5483 31.1543C52.4207 31.291 52.2338 31.3594 51.9877 31.3594C51.7416 31.3594 51.5548 31.291 51.4272 31.1543C51.3041 31.0176 51.2426 30.8467 51.2426 30.6416ZM58.1294 40.1367C57.1268 40.1367 56.3111 39.8086 55.6821 39.1523C55.0532 38.4915 54.7388 37.6097 54.7388 36.5068V36.2744C54.7388 35.5407 54.8778 34.8867 55.1558 34.3125C55.4383 33.7337 55.8303 33.2826 56.3316 32.959C56.8374 32.6309 57.3843 32.4668 57.9722 32.4668C58.9338 32.4668 59.6812 32.7835 60.2144 33.417C60.7476 34.0505 61.0142 34.9574 61.0142 36.1377V36.6641H56.0034C56.0217 37.3932 56.2336 37.9834 56.6392 38.4346C57.0493 38.8812 57.5689 39.1045 58.1978 39.1045C58.6444 39.1045 59.0226 39.0133 59.3325 38.8311C59.6424 38.6488 59.9136 38.4072 60.146 38.1064L60.9185 38.708C60.2987 39.6605 59.369 40.1367 58.1294 40.1367ZM57.9722 33.5059C57.4618 33.5059 57.0334 33.6927 56.687 34.0664C56.3407 34.4355 56.1265 34.9551 56.0445 35.625H59.7495V35.5293C59.7131 34.8867 59.5399 34.39 59.23 34.0391C58.9201 33.6836 58.5008 33.5059 57.9722 33.5059ZM64.1002 32.6035L64.1412 33.5332C64.7063 32.8223 65.4446 32.4668 66.3561 32.4668C67.9192 32.4668 68.7076 33.3486 68.7213 35.1123V40H67.4566V35.1055C67.4521 34.5723 67.329 34.1781 67.0875 33.9229C66.8505 33.6676 66.4791 33.54 65.9732 33.54C65.5631 33.54 65.2031 33.6494 64.8932 33.8682C64.5833 34.0869 64.3417 34.374 64.1686 34.7295V40H62.9039V32.6035H64.1002ZM15.7812 61.1367C14.7786 61.1367 13.9629 60.8086 13.3339 60.1523C12.705 59.4915 12.3906 58.6097 12.3906 57.5068V57.2744C12.3906 56.5407 12.5296 55.8867 12.8076 55.3125C13.0901 54.7337 13.4821 54.2826 13.9834 53.959C14.4892 53.6309 15.0361 53.4668 15.624 53.4668C16.5856 53.4668 17.333 53.7835 17.8662 54.417C18.3994 55.0505 18.666 55.9574 18.666 57.1377V57.6641H13.6552C13.6735 58.3932 13.8854 58.9834 14.291 59.4346C14.7011 59.8812 15.2207 60.1045 15.8496 60.1045C16.2962 60.1045 16.6744 60.0133 16.9843 59.8311C17.2942 59.6488 17.5654 59.4072 17.7978 59.1064L18.5703 59.708C17.9505 60.6605 17.0208 61.1367 15.7812 61.1367ZM15.624 54.5059C15.1136 54.5059 14.6852 54.6927 14.3388 55.0664C13.9925 55.4355 13.7783 55.9551 13.6962 56.625H17.4013V56.5293C17.3649 55.8867 17.1917 55.39 16.8818 55.0391C16.5719 54.6836 16.1526 54.5059 15.624 54.5059ZM24.1309 54.7383C23.9395 54.7064 23.7321 54.6904 23.5088 54.6904C22.6794 54.6904 22.1166 55.0436 21.8204 55.75V61H20.5557V53.6035H21.7862L21.8067 54.458C22.2214 53.7972 22.8093 53.4668 23.5704 53.4668C23.8164 53.4668 24.0033 53.4987 24.1309 53.5625V54.7383ZM30.0128 61C29.9399 60.8542 29.8807 60.5944 29.8351 60.2207C29.2472 60.8314 28.5454 61.1367 27.7296 61.1367C27.0004 61.1367 26.4012 60.9316 25.9318 60.5215C25.4669 60.1068 25.2345 59.5827 25.2345 58.9492C25.2345 58.179 25.5262 57.582 26.1095 57.1582C26.6974 56.7298 27.5223 56.5156 28.5841 56.5156H29.8146V55.9346C29.8146 55.4925 29.6824 55.1416 29.4181 54.8818C29.1538 54.6175 28.7641 54.4854 28.2491 54.4854C27.798 54.4854 27.4197 54.5993 27.1144 54.8271C26.809 55.055 26.6564 55.3307 26.6564 55.6543H25.3849C25.3849 55.2852 25.5148 54.9297 25.7745 54.5879C26.0389 54.2415 26.3943 53.9681 26.8409 53.7676C27.2921 53.5671 27.7866 53.4668 28.3243 53.4668C29.1765 53.4668 29.8442 53.681 30.3273 54.1094C30.8103 54.5332 31.061 55.1188 31.0792 55.8662V59.2705C31.0792 59.9495 31.1658 60.4896 31.339 60.8906V61H30.0128ZM27.9142 60.0361C28.3107 60.0361 28.6866 59.9336 29.0421 59.7285C29.3976 59.5234 29.6551 59.2568 29.8146 58.9287V57.4111H28.8234C27.2739 57.4111 26.4991 57.8646 26.4991 58.7715C26.4991 59.168 26.6313 59.4779 26.8956 59.7012C27.1599 59.9245 27.4995 60.0361 27.9142 60.0361ZM35.1975 51.8125V53.6035H36.5783V54.5811H35.1975V59.168C35.1975 59.4642 35.259 59.6875 35.382 59.8379C35.5051 59.9837 35.7147 60.0566 36.0109 60.0566C36.1568 60.0566 36.3573 60.0293 36.6125 59.9746V61C36.2798 61.0911 35.9562 61.1367 35.6418 61.1367C35.0767 61.1367 34.6506 60.9658 34.3635 60.624C34.0764 60.2822 33.9328 59.7969 33.9328 59.168V54.5811H32.5861V53.6035H33.9328V51.8125H35.1975ZM43.0481 60.2686C42.5559 60.8473 41.8336 61.1367 40.8811 61.1367C40.0927 61.1367 39.4912 60.9089 39.0764 60.4531C38.6663 59.9928 38.4589 59.3138 38.4544 58.416V53.6035H39.719V58.3818C39.719 59.5029 40.1748 60.0635 41.0862 60.0635C42.0524 60.0635 42.6949 59.7035 43.0139 58.9834V53.6035H44.2786V61H43.0755L43.0481 60.2686ZM47.8226 53.6035L47.8636 54.5332C48.4287 53.8223 49.167 53.4668 50.0785 53.4668C51.6416 53.4668 52.43 54.3486 52.4437 56.1123V61H51.1791V56.1055C51.1745 55.5723 51.0515 55.1781 50.8099 54.9229C50.5729 54.6676 50.2015 54.54 49.6957 54.54C49.2855 54.54 48.9255 54.6494 48.6156 54.8682C48.3057 55.0869 48.0642 55.374 47.891 55.7295V61H46.6263V53.6035H47.8226ZM54.4702 57.2402C54.4702 56.0872 54.7368 55.1712 55.27 54.4922C55.8032 53.8086 56.5095 53.4668 57.3891 53.4668C58.2914 53.4668 58.9955 53.7858 59.5014 54.4238L59.5629 53.6035H60.7182V60.8223C60.7182 61.7793 60.4334 62.5335 59.8637 63.085C59.2986 63.6364 58.5375 63.9121 57.5805 63.9121C57.0473 63.9121 56.5255 63.7982 56.0151 63.5703C55.5047 63.3424 55.115 63.0303 54.8461 62.6338L55.5024 61.875C56.0447 62.5449 56.7078 62.8799 57.4916 62.8799C58.1069 62.8799 58.5854 62.7067 58.9272 62.3604C59.2735 62.014 59.4467 61.5264 59.4467 60.8975V60.2617C58.9409 60.8451 58.2504 61.1367 57.3754 61.1367C56.5095 61.1367 55.8077 60.7881 55.27 60.0908C54.7368 59.3936 54.4702 58.4434 54.4702 57.2402ZM55.7416 57.3838C55.7416 58.2178 55.9125 58.874 56.2543 59.3525C56.5961 59.8265 57.0746 60.0635 57.6899 60.0635C58.4874 60.0635 59.073 59.7012 59.4467 58.9766V55.5996C59.0594 54.8932 58.4783 54.54 57.7036 54.54C57.0883 54.54 56.6075 54.7793 56.2612 55.2578C55.9148 55.7363 55.7416 56.445 55.7416 57.3838Z" fill="#2E0909"/>
<path d="M75.7591 40H74.4945V32.6035H75.7591V40ZM74.3919 30.6416C74.3919 30.4365 74.4534 30.2633 74.5765 30.1221C74.7041 29.9808 74.8909 29.9102 75.137 29.9102C75.3831 29.9102 75.57 29.9808 75.6976 30.1221C75.8252 30.2633 75.889 30.4365 75.889 30.6416C75.889 30.8467 75.8252 31.0176 75.6976 31.1543C75.57 31.291 75.3831 31.3594 75.137 31.3594C74.8909 31.3594 74.7041 31.291 74.5765 31.1543C74.4534 31.0176 74.3919 30.8467 74.3919 30.6416ZM79.4057 32.6035L79.4467 33.5332C80.0118 32.8223 80.7501 32.4668 81.6615 32.4668C83.2247 32.4668 84.0131 33.3486 84.0268 35.1123V40H82.7621V35.1055C82.7576 34.5723 82.6345 34.1781 82.393 33.9229C82.156 33.6676 81.7846 33.54 81.2787 33.54C80.8686 33.54 80.5085 33.6494 80.1986 33.8682C79.8887 34.0869 79.6472 34.374 79.474 34.7295V40H78.2094V32.6035H79.4057ZM89.939 36.2402C89.939 35.1055 90.2079 34.194 90.7457 33.5059C91.2834 32.8132 91.9875 32.4668 92.858 32.4668C93.7239 32.4668 94.4097 32.763 94.9156 33.3555V29.5H96.1802V40H95.0181L94.9566 39.207C94.4507 39.8268 93.7466 40.1367 92.8443 40.1367C91.9875 40.1367 91.288 39.7858 90.7457 39.084C90.2079 38.3822 89.939 37.4661 89.939 36.3359V36.2402ZM91.2037 36.3838C91.2037 37.2223 91.3769 37.8786 91.7232 38.3525C92.0696 38.8265 92.5481 39.0635 93.1588 39.0635C93.9608 39.0635 94.5464 38.7035 94.9156 37.9834V34.5859C94.5373 33.8887 93.9563 33.54 93.1724 33.54C92.5526 33.54 92.0696 33.7793 91.7232 34.2578C91.3769 34.7363 91.2037 35.445 91.2037 36.3838ZM101.638 40.1367C100.636 40.1367 99.82 39.8086 99.1911 39.1523C98.5621 38.4915 98.2477 37.6097 98.2477 36.5068V36.2744C98.2477 35.5407 98.3867 34.8867 98.6647 34.3125C98.9472 33.7337 99.3392 33.2826 99.8405 32.959C100.346 32.6309 100.893 32.4668 101.481 32.4668C102.443 32.4668 103.19 32.7835 103.723 33.417C104.256 34.0505 104.523 34.9574 104.523 36.1377V36.6641H99.5123C99.5306 37.3932 99.7425 37.9834 100.148 38.4346C100.558 38.8812 101.078 39.1045 101.707 39.1045C102.153 39.1045 102.532 39.0133 102.841 38.8311C103.151 38.6488 103.423 38.4072 103.655 38.1064L104.427 38.708C103.808 39.6605 102.878 40.1367 101.638 40.1367ZM101.481 33.5059C100.971 33.5059 100.542 33.6927 100.196 34.0664C99.8496 34.4355 99.6354 34.9551 99.5534 35.625H103.258V35.5293C103.222 34.8867 103.049 34.39 102.739 34.0391C102.429 33.6836 102.01 33.5059 101.481 33.5059ZM109.988 33.7383C109.797 33.7064 109.589 33.6904 109.366 33.6904C108.537 33.6904 107.974 34.0436 107.677 34.75V40H106.413V32.6035H107.643L107.664 33.458C108.079 32.7972 108.666 32.4668 109.427 32.4668C109.674 32.4668 109.86 32.4987 109.988 32.5625V33.7383Z" fill="#401717" fill-opacity="0.9"/>
</svg>
