<?xml version="1.0" standalone="no"?>
<!DOCTYPE svg PUBLIC "-//W3C//DTD SVG 20010904//EN"
 "http://www.w3.org/TR/2001/REC-SVG-20010904/DTD/svg10.dtd">
<svg version="1.0" xmlns="http://www.w3.org/2000/svg"
 width="1491.000000pt" height="1027.000000pt" viewBox="0 0 1491.000000 1027.000000"
 preserveAspectRatio="xMidYMid meet">

<g transform="translate(0.000000,1027.000000) scale(0.100000,-0.100000)"
fill="#000000" stroke="none">
<path d="M9140 10045 c-162 -51 -221 -250 -115 -389 l35 -46 -45 -342 c-52
-400 -109 -816 -280 -2021 -69 -483 -125 -889 -125 -903 0 -25 -2 -24 -51 20
-74 67 -148 100 -223 100 -181 -1 -221 -150 -84 -308 l35 -40 -23 -20 c-35
-32 -38 -65 -11 -116 l23 -44 -30 -21 c-73 -49 -69 -122 10 -195 55 -51 142
-92 198 -94 l41 -1 -52 -360 c-56 -386 -60 -424 -41 -443 16 -16 90 -15 111 0
13 10 26 86 63 348 26 184 47 336 48 337 0 1 33 -10 71 -23 52 -18 89 -24 146
-23 63 2 90 -4 162 -31 48 -18 87 -37 87 -42 0 -5 -12 -56 -26 -114 -15 -57
-25 -106 -23 -108 12 -12 380 -142 492 -175 173 -50 267 -66 309 -52 47 17 49
14 23 -24 -36 -53 -48 -100 -43 -168 4 -54 8 -63 43 -95 l38 -35 -77 -516
c-123 -830 -140 -961 -127 -974 8 -8 36 1 112 38 111 55 107 72 -9 36 -34 -10
-62 -17 -62 -14 0 22 196 1348 205 1390 4 16 10 20 26 16 20 -6 21 -10 15 -87
-4 -45 -25 -238 -47 -431 -55 -485 -54 -471 -39 -480 9 -5 21 1 35 18 26 33
37 34 29 3 -3 -13 0 -254 6 -536 6 -281 10 -514 7 -516 -3 -3 -309 -2 -681 2
-505 5 -673 10 -666 19 11 13 3 50 -17 82 -8 12 -35 30 -59 39 -35 13 -44 22
-44 40 0 13 -10 34 -21 45 -19 19 -30 21 -114 17 -97 -4 -125 -15 -125 -49 0
-15 -7 -19 -35 -19 -24 0 -35 5 -35 15 0 8 -9 24 -20 35 -16 16 -33 20 -89 20
-104 0 -132 -8 -145 -42 -11 -31 -56 -41 -56 -13 0 8 -9 24 -20 35 -16 16 -33
20 -89 20 -104 0 -132 -8 -145 -42 -8 -23 -16 -28 -42 -28 -26 0 -33 5 -38 25
-10 39 -39 48 -144 43 -98 -6 -112 -12 -112 -53 1 -19 1 -20 15 -1 13 17 23
18 102 12 83 -7 102 -11 92 -20 -5 -5 -213 -25 -217 -21 -1 1 -11 69 -22 151
-11 82 -22 161 -24 176 -5 25 -3 26 17 19 13 -5 276 -12 585 -16 610 -8 609
-8 637 46 27 52 31 27 -125 854 -95 505 -185 951 -205 1022 -14 46 -21 56 -58
74 -42 22 -44 22 -647 19 -333 -1 -911 -5 -1285 -9 -604 -6 -684 -8 -717 -23
-70 -31 -72 -4 41 -670 134 -785 208 -1196 222 -1231 24 -57 33 -58 462 -57
414 1 506 5 487 24 -8 8 -148 13 -445 16 -368 4 -437 7 -449 20 -8 8 -26 74
-40 145 -53 273 -286 1637 -286 1672 0 52 -35 51 1335 62 1203 10 1270 10
1299 -7 17 -10 33 -30 38 -47 42 -152 338 -1719 338 -1791 0 -53 -8 -67 -47
-76 -12 -3 -275 -1 -584 4 -446 8 -563 8 -569 -2 -5 -7 -11 10 -15 41 -19 144
-86 611 -96 667 -6 35 -18 69 -25 77 -31 30 -271 42 -299 14 -12 -12 -38 -160
-101 -569 -46 -304 -84 -557 -84 -561 0 -5 -11 3 -25 16 -21 22 -32 25 -97 24
-112 -2 -132 -9 -136 -44 -3 -28 -2 -29 11 -11 12 17 22 18 105 11 69 -5 92
-11 92 -21 0 -11 -24 -14 -123 -14 l-123 0 -13 35 c-15 44 -36 49 -148 42 -88
-5 -103 -12 -103 -51 0 -19 1 -19 13 -2 12 16 23 18 105 11 62 -5 92 -11 92
-19 0 -9 -50 -15 -180 -22 -175 -9 -180 -10 -206 -35 -14 -15 -29 -41 -33 -58
l-6 -32 -517 1 c-601 0 -538 16 -538 -132 0 -228 91 -1696 107 -1721 4 -6 -40
-7 -128 -3 -96 4 -3681 21 -4514 21 -54 0 -60 -2 -63 -21 l-3 -22 793 -6 c436
-3 1893 -11 3238 -16 3740 -16 6125 -29 6225 -35 158 -10 2313 -7 3055 5 958
14 1314 29 1275 52 -29 17 -210 17 -910 2 -948 -20 -2648 -22 -4330 -6 -671 6
-1981 15 -2910 18 l-1691 7 -2 51 c-1 28 -16 256 -32 506 -41 622 -60 982 -60
1129 l0 124 1143 -7 c628 -3 1621 -11 2207 -16 2592 -24 3207 -30 3552 -36
l366 -6 -5 -57 c-16 -192 -52 -513 -108 -986 -70 -581 -85 -747 -66 -729 18
17 48 176 72 393 l24 203 45 -6 c25 -4 94 -9 153 -13 94 -5 110 -9 123 -27 7
-11 14 -24 14 -28 0 -4 -73 -9 -162 -10 -155 -3 -163 -4 -163 -23 0 -20 7 -20
325 -20 496 0 422 14 613 -114 89 -60 169 -116 176 -125 12 -15 -1 -16 -148
-16 l-161 0 -6 28 c-12 54 -17 67 -28 74 -16 11 -408 10 -425 -1 -7 -5 -15
-29 -18 -53 l-5 -45 -160 -7 c-88 -4 -167 -10 -176 -13 -25 -10 28 -22 131
-30 48 -3 87 -8 87 -10 0 -2 -7 -17 -15 -33 -31 -61 -129 -83 -184 -42 -33 24
-61 29 -61 10 1 -36 69 -78 128 -78 75 0 135 47 148 116 6 34 6 34 63 34 31 0
62 4 70 9 7 5 15 29 18 54 l5 45 56 6 c30 4 113 4 184 0 141 -8 133 -3 140
-79 2 -22 9 -31 25 -33 15 -2 24 -13 28 -33 4 -16 18 -43 32 -60 85 -101 246
-67 269 57 5 30 11 35 44 40 20 3 43 10 50 14 32 20 -35 76 -284 239 l-139 91
-213 0 c-180 0 -213 2 -208 14 8 20 -22 73 -48 87 -15 8 -67 10 -170 7 -107
-4 -148 -3 -148 6 0 19 40 329 42 332 2 1 39 5 84 9 l80 7 0 -163 c-1 -139 1
-164 14 -164 13 0 15 25 15 163 l0 162 50 1 c212 3 656 26 663 34 5 6 82 505
171 1109 184 1242 231 1575 257 1827 l17 176 -24 43 c-13 25 -39 55 -58 67
l-34 23 -971 -1 c-534 -1 -984 -4 -1001 -8 -96 -21 70 -26 988 -31 l979 -5 35
-39 36 -39 -7 -99 c-9 -140 -65 -578 -131 -1018 -30 -206 -108 -731 -173
-1167 -65 -436 -120 -794 -123 -797 -6 -7 -850 -38 -856 -32 -3 3 9 134 27
291 17 158 34 334 37 391 l6 103 -27 11 c-15 5 -102 10 -193 10 l-165 0 7 82
c4 46 11 88 16 94 6 8 118 14 349 19 265 6 340 10 344 20 11 29 -21 38 -120
30 l-95 -7 5 34 c27 162 127 1200 124 1291 l-3 92 -18 -68 c-10 -38 -29 -177
-43 -310 -13 -133 -43 -415 -65 -626 -28 -270 -37 -387 -29 -396 8 -10 -38
-13 -231 -17 -292 -6 -273 4 -266 -141 l5 -97 -131 0 c-167 0 -181 4 -173 42
9 46 38 480 33 499 -4 14 4 19 37 24 124 19 117 9 105 151 -36 404 -188 1173
-334 1695 -14 49 -25 90 -25 93 0 4 15 6 33 6 70 0 113 64 101 150 -9 67 3 81
65 73 43 -5 50 -3 69 22 12 15 24 43 28 64 4 20 17 49 30 64 50 59 44 106 -22
186 -55 66 -54 89 1 114 71 31 88 42 108 68 25 35 17 73 -30 133 -19 25 -33
52 -30 60 3 8 27 17 59 21 85 10 115 24 152 66 82 96 63 250 -44 354 -36 35
-42 38 -55 24 -14 -13 -11 -19 21 -54 47 -51 84 -129 84 -179 0 -48 -33 -119
-64 -140 -13 -8 -48 -18 -77 -22 -140 -17 -160 -60 -78 -165 16 -20 29 -44 29
-53 0 -23 -35 -51 -81 -65 -97 -29 -113 -89 -46 -171 76 -94 79 -100 63 -151
-11 -37 -15 -41 -21 -24 -4 11 -14 35 -21 53 -7 18 -20 32 -30 32 -13 0 -15
-6 -10 -32 18 -94 19 -128 2 -147 -14 -16 -23 -17 -48 -10 -21 6 -40 5 -57 -4
-40 -19 -51 -53 -44 -129 5 -62 4 -68 -20 -92 -14 -14 -37 -26 -50 -26 -21 0
-27 14 -84 204 -118 389 -210 610 -287 690 -58 59 -82 64 -104 19 l-18 -35
-13 194 c-13 191 -10 258 11 258 19 0 78 50 93 80 23 44 19 45 -28 6 -24 -20
-58 -39 -76 -42 -22 -5 -36 -15 -43 -33 -13 -33 -1 -450 13 -468 6 -6 17 -9
25 -6 12 4 12 1 -1 -23 -8 -16 -38 -83 -66 -149 -53 -127 -114 -238 -146 -268
-18 -16 -23 -16 -57 -2 -69 29 -146 -19 -146 -91 0 -39 47 -98 85 -108 58 -15
125 48 125 117 0 14 14 39 33 60 19 19 53 71 76 116 23 45 43 81 45 81 1 0
-17 -102 -41 -227 -23 -126 -49 -273 -58 -328 -19 -134 -43 -462 -51 -718 l-7
-208 -26 5 c-74 14 -292 28 -356 23 -69 -6 -155 -31 -155 -46 0 -3 46 -5 102
-3 93 3 306 -10 400 -25 l36 -5 -5 -212 c-3 -116 -8 -214 -12 -217 -3 -4 -62
0 -131 8 -153 17 -357 13 -417 -10 l-42 -16 4 27 c6 30 80 708 90 818 7 79 7
81 -67 108 -26 9 -61 33 -78 52 -54 62 -42 107 73 281 119 178 152 244 262
522 99 251 178 421 195 421 6 0 10 -15 10 -32 1 -61 20 -243 31 -296 27 -131
39 28 18 248 -18 194 -26 195 -197 19 -142 -147 -256 -246 -352 -309 -61 -39
-68 -41 -118 -36 -29 4 -153 35 -275 70 -293 85 -342 97 -359 91 -8 -3 -20
-29 -28 -58 -7 -29 -15 -55 -17 -60 -4 -6 -82 33 -105 52 -4 3 -2 25 3 47 13
52 -11 194 -46 272 -25 54 -118 162 -141 162 -30 0 -22 -24 26 -78 64 -71 83
-108 104 -199 20 -90 20 -140 1 -187 -17 -41 -28 -32 91 -76 l62 -22 -14 -50
c-7 -28 -15 -52 -18 -55 -3 -3 -17 4 -33 15 -75 53 -116 66 -208 68 -83 2
-193 28 -216 51 -4 5 1 71 12 148 31 217 47 406 37 440 -14 50 -9 128 11 171
32 70 89 94 127 53 20 -22 25 -118 11 -217 -11 -73 7 -60 33 24 48 156 3 277
-96 261 -46 -8 -80 -30 -105 -70 -18 -29 -19 -29 -14 -7 16 75 373 2630 426
3051 20 161 24 176 41 171 10 -2 20 -8 23 -12 3 -4 -4 -45 -15 -91 -31 -126
-422 -3011 -411 -3022 5 -5 16 -7 23 -5 10 4 68 411 216 1494 111 819 204
1518 207 1554 l6 65 62 0 c49 1 73 7 116 30 30 17 63 42 74 57 12 16 25 28 30
28 24 0 2337 -1224 2784 -1473 220 -123 333 -180 333 -167 0 42 -314 220
-1490 843 -644 341 -1592 837 -1600 837 -8 0 -20 84 -20 138 0 76 -73 160
-162 187 -62 18 -98 18 -158 0z m177 -56 c24 -11 57 -37 73 -57 32 -39 66
-132 51 -141 -4 -3 -14 -23 -20 -44 -28 -84 -104 -136 -199 -137 -167 0 -266
191 -165 318 62 78 172 104 260 61z m-883 -3596 c33 -15 85 -42 114 -60 49
-31 52 -35 52 -74 l0 -41 -34 30 c-60 52 -127 94 -142 88 -26 -10 -15 -31 36
-65 70 -48 130 -115 130 -146 0 -30 -42 -55 -93 -55 -69 0 -123 28 -190 100
-106 112 -122 195 -44 234 47 23 102 19 171 -11z m205 -228 c1 -16 -1 -17 -9
-5 -5 8 -9 29 -9 45 1 29 1 29 9 5 4 -14 8 -34 9 -45z m22 -75 c12 0 11 -27
-4 -77 l-13 -42 -27 35 -28 35 25 30 c14 17 27 38 27 47 1 10 3 8 6 -5 2 -13
9 -23 14 -23z m-275 -41 c32 -14 69 -22 112 -22 61 -1 66 -2 83 -31 11 -17 24
-49 30 -70 13 -48 1 -60 -66 -70 -73 -11 -121 9 -197 85 -67 66 -80 93 -56
117 17 17 39 15 94 -9z m2463 -75 c37 -48 129 -238 179 -374 93 -253 219 -691
232 -810 5 -41 18 -154 30 -250 24 -188 34 -605 17 -724 l-9 -59 -200 6 c-110
4 -202 8 -203 9 -2 2 1 23 6 48 5 25 14 202 21 394 12 338 11 349 -7 385 -15
26 -28 37 -47 39 -35 4 -36 -11 -3 -50 25 -30 25 -32 19 -147 -4 -64 -7 -251
-8 -416 l-1 -300 73 -3 73 -3 -6 -72 c-17 -211 -13 -194 -53 -219 -55 -33
-152 -128 -172 -169 -14 -26 -20 -63 -22 -136 l-3 -101 -95 -4 c-52 -2 -97 -3
-99 -1 -6 4 28 1410 40 1613 19 339 35 467 120 923 46 246 86 447 90 447 4 0
17 -12 28 -26z m-2434 -145 c25 -12 64 -19 102 -19 70 0 85 -13 76 -63 -10
-52 -90 -87 -167 -73 -49 9 -149 79 -171 119 -22 41 -16 61 26 86 l32 20 31
-26 c17 -14 49 -34 71 -44z m205 -14 c0 -9 -6 -12 -16 -8 -13 5 -13 7 -2 14
17 11 18 11 18 -6z m1653 -72 c-14 -32 -59 -142 -99 -246 -84 -213 -124 -297
-197 -415 -43 -69 -58 -84 -87 -92 -81 -23 -190 -5 -413 67 -120 38 -377 130
-384 136 -3 4 104 428 110 433 3 3 130 -31 283 -74 352 -101 349 -100 416 -69
69 31 191 124 303 231 50 47 91 85 92 86 1 0 -10 -26 -24 -57z m-1729 -468
c-30 -215 -54 -395 -54 -402 0 -15 -39 -28 -50 -16 -4 4 16 175 46 378 29 204
51 377 49 385 -3 9 8 21 28 30 18 9 33 15 34 15 1 0 -23 -176 -53 -390z m1953
191 c0 0 4 -17 8 -36 5 -28 2 -41 -15 -63 -28 -35 -65 -33 -94 6 -19 26 -19
30 -5 55 22 40 77 60 106 38z m922 -1316 c62 -305 127 -708 146 -916 l7 -71
-84 -13 c-45 -6 -90 -14 -99 -16 -12 -3 -18 11 -27 68 -16 90 -38 140 -89 198
l-39 45 -2 139 -1 139 54 -7 54 -6 8 47 c4 27 8 194 8 372 0 364 -5 362 64 21z
m-4365 -300 c15 -11 15 -14 52 -257 20 -134 134 -987 134 -1003 0 -5 -612 0
-618 5 -2 1 4 31 13 66 13 57 185 1167 185 1199 0 16 214 7 234 -10z m4156
-142 c0 -7 -4 -39 -10 -71 -5 -32 -10 -93 -11 -137 l-3 -79 47 -49 c60 -65 78
-109 84 -209 5 -76 4 -83 -18 -105 -14 -14 -48 -29 -82 -37 -58 -13 -59 -13
-84 -69 -14 -32 -32 -65 -40 -74 -24 -26 -76 -23 -112 8 -35 30 -47 64 -63
192 -11 92 -25 119 -49 95 -8 -8 1 -123 17 -192 5 -21 3 -23 -23 -16 -52 13
-55 20 -51 141 3 107 4 114 34 156 18 23 58 63 91 88 33 25 71 54 86 65 26 19
27 24 33 163 l7 142 73 0 c53 0 74 -4 74 -12z m-780 -42 l105 -11 -1 -30 c-16
-586 -15 -653 3 -659 17 -5 178 24 216 39 10 4 17 3 17 -4 0 -27 49 -61 87
-61 35 -1 40 -4 58 -42 25 -53 61 -79 116 -85 62 -7 106 25 135 97 21 53 24
55 78 71 70 21 102 42 112 71 8 27 22 38 49 38 20 0 20 -2 8 -182 -7 -101 -10
-222 -7 -270 l6 -88 -304 0 c-415 0 -1088 12 -1084 19 8 12 -14 860 -25 970
-7 75 -7 117 -1 123 25 25 226 27 432 4z m-2605 -917 c5 -5 -30 -9 -93 -9 -95
0 -114 5 -94 24 9 11 174 -3 187 -15z m310 0 c5 -5 -30 -9 -93 -9 -95 0 -114
5 -94 24 9 11 174 -3 187 -15z m327 -2 c4 -6 5 -13 3 -15 -2 -2 -49 -1 -104 3
-83 6 -99 10 -94 22 5 13 20 15 97 9 51 -4 94 -12 98 -19z m-557 -56 c658 -8
643 -7 683 -81 l23 -43 -182 6 c-100 4 -397 7 -660 7 l-477 0 -6 28 c-20 108
-20 105 11 97 15 -4 289 -10 608 -14z m-1305 -13 c0 -7 -3 -30 -6 -50 l-7 -38
-368 0 c-235 0 -369 4 -369 10 0 5 13 24 29 42 l29 33 294 6 c161 3 317 6 346
7 36 1 52 -2 52 -10z m6520 -1803 c0 -20 -35 -67 -58 -78 -69 -35 -131 -25
-165 26 -35 53 -28 57 103 57 66 0 120 -2 120 -5z"/>
<path d="M9162 9925 c-55 -40 -65 -120 -19 -163 52 -49 119 -48 166 2 21 23
22 28 11 79 -6 30 -20 63 -30 72 -27 25 -99 30 -128 10z m123 -56 c25 -30 25
-32 8 -53 -43 -52 -79 -60 -113 -26 -26 26 -25 64 2 90 32 30 71 26 103 -11z"/>
<path d="M9501 9797 c-18 -22 5 -39 164 -122 205 -107 1040 -552 1995 -1063
744 -399 944 -501 956 -489 15 14 -178 125 -736 424 -687 369 -1895 1013
-2095 1118 -71 37 -162 85 -201 106 -58 32 -74 37 -83 26z"/>
<path d="M4332 9590 c-12 -5 -32 -25 -43 -45 -12 -19 -23 -35 -26 -35 -3 0
-348 -67 -767 -150 -418 -82 -927 -181 -1131 -220 l-370 -71 -362 -6 -363 -6
-2 -606 c-4 -944 1 -1492 13 -1508 10 -11 356 -13 1988 -12 1087 1 2408 5
2936 8 l960 6 14 40 c19 58 30 482 30 1270 0 611 -5 794 -24 813 -4 4 -129 9
-278 12 l-272 6 -475 96 c-261 52 -749 149 -1084 214 -539 105 -609 121 -616
139 -18 47 -81 74 -128 55z m92 -51 c32 -26 33 -37 1 -72 -31 -32 -58 -34 -85
-7 -26 26 -25 48 2 77 27 28 48 29 82 2z m-88 -134 c44 -20 89 -10 122 29 l27
32 951 -186 c523 -103 957 -189 965 -192 7 -2 -459 -5 -1036 -6 -578 -1 -1511
-4 -2075 -7 l-1025 -5 180 36 c99 20 551 110 1005 199 l825 162 15 -23 c8 -13
29 -31 46 -39z m2677 -372 l137 -6 5 -31 c8 -48 11 -758 5 -1412 l-5 -592
-680 -6 c-374 -3 -1686 -8 -2916 -11 l-2236 -5 -6 67 c-9 89 -9 1409 0 1725
l6 248 31 5 c73 12 5430 29 5659 18z"/>
<path d="M2447 8951 c-948 -6 -999 -7 -1012 -24 -24 -34 -28 -265 -17 -1066 9
-691 12 -796 26 -809 28 -28 745 -34 2496 -22 2508 17 3101 25 3111 41 32 50
34 93 32 864 0 424 -4 825 -8 893 l-7 122 -1227 0 c-675 0 -1491 2 -1812 4
-321 2 -1033 1 -1582 -3z m4578 -52 c4 -5 25 -1789 21 -1795 -1 0 -552 -6
-1226 -13 -1674 -16 -3870 -24 -4124 -14 l-210 8 -8 30 c-4 17 -11 415 -14
885 -6 654 -4 860 5 878 l12 22 387 3 c715 6 5150 2 5157 -4z"/>
<path d="M4139 8544 c-5 -15 -13 -50 -17 -78 -6 -46 -11 -53 -42 -68 -19 -9
-50 -19 -68 -23 l-32 -7 2 84 c3 79 2 83 -19 86 -32 5 -51 -32 -59 -115 -5
-58 -10 -74 -25 -78 -24 -8 -25 -51 -1 -64 13 -8 17 -23 17 -72 0 -47 4 -64
17 -73 29 -18 50 14 57 85 6 60 7 63 41 75 19 7 47 13 62 13 l27 1 3 -92 3
-93 27 -3 c38 -4 44 15 52 173 3 72 12 155 19 185 17 74 13 90 -24 90 -23 0
-32 -6 -40 -26z"/>
<path d="M5095 8560 c-34 -14 -103 -93 -123 -140 -44 -102 -57 -251 -24 -269
30 -16 52 5 52 48 0 44 10 51 75 51 l44 0 3 -62 c3 -68 16 -81 52 -55 15 11
19 26 19 76 -1 33 3 64 8 67 12 7 11 48 -1 60 -6 6 -14 53 -19 104 -7 79 -12
97 -31 112 -25 20 -27 20 -55 8z m15 -169 c0 -54 -4 -70 -16 -75 -25 -10 -74
-7 -74 4 0 33 62 140 81 140 5 0 9 -31 9 -69z"/>
<path d="M3047 8536 c-102 -42 -155 -94 -143 -142 9 -34 36 -45 154 -59 81
-10 109 -18 125 -34 l21 -21 -24 -25 c-32 -34 -101 -59 -145 -52 -20 3 -53 20
-75 37 -44 35 -74 34 -86 -2 -8 -26 21 -66 67 -93 26 -16 52 -20 115 -20 72 0
86 3 130 30 60 38 94 86 94 135 0 70 -88 120 -214 120 l-61 1 30 24 c41 34 96
48 140 36 27 -7 38 -6 50 6 20 19 19 25 -6 57 -17 21 -28 26 -67 26 -26 0 -73
-11 -105 -24z"/>
<path d="M3674 8541 c-51 -23 -105 -76 -151 -149 -30 -46 -37 -67 -40 -121 -5
-79 8 -109 57 -133 91 -46 281 10 268 79 -5 29 -41 27 -107 -6 -71 -36 -94
-38 -121 -11 -46 46 -6 170 77 239 47 39 56 39 70 1 14 -38 49 -41 63 -6 12
33 -5 91 -33 111 -27 19 -33 19 -83 -4z"/>
<path d="M5325 8546 c-16 -12 -36 -106 -61 -298 -8 -60 9 -102 47 -118 36 -15
68 -8 146 36 69 38 92 66 72 90 -18 22 -47 17 -109 -22 -32 -20 -63 -33 -68
-30 -11 7 -7 51 14 170 20 111 19 163 -5 175 -13 7 -23 6 -36 -3z"/>
<path d="M4576 8528 c-24 -38 -46 -126 -62 -250 -18 -144 -9 -174 50 -152 12
5 16 21 17 63 1 31 4 69 8 86 l6 30 27 -46 c15 -25 34 -51 42 -58 28 -24 64
-4 96 52 16 28 30 48 31 42 1 -5 2 -46 3 -90 1 -72 3 -80 21 -83 47 -6 50 6
55 205 3 103 1 196 -3 206 -5 11 -17 17 -30 15 -17 -2 -35 -30 -81 -125 -33
-68 -63 -123 -68 -123 -15 0 -28 48 -38 142 -6 50 -13 95 -16 99 -10 17 -44 9
-58 -13z"/>
<path d="M3365 8528 c-3 -11 -25 -192 -40 -332 -2 -22 1 -48 6 -58 12 -22 42
-23 59 -3 24 29 54 364 36 394 -10 15 -56 14 -61 -1z"/>
<path d="M6371 7841 c-21 -13 -31 -74 -31 -188 0 -62 -4 -113 -9 -113 -10 0
-51 91 -75 167 -23 71 -50 103 -87 103 -41 0 -48 -25 -58 -199 -9 -171 -4
-205 27 -209 27 -4 42 29 42 92 0 24 3 64 6 90 l7 47 43 -88 c43 -86 72 -123
100 -123 23 0 52 36 63 77 16 58 31 291 21 318 -10 25 -31 37 -49 26z"/>
<path d="M2138 7821 c-90 -45 -136 -99 -124 -147 8 -29 24 -38 106 -59 87 -22
110 -38 110 -76 0 -44 -39 -79 -89 -79 -41 0 -44 2 -82 53 -27 36 -66 37 -75
1 -10 -40 19 -92 63 -111 51 -21 153 -14 190 13 41 30 73 92 73 141 0 53 -33
83 -127 113 -37 13 -71 26 -76 29 -9 9 43 48 76 56 14 4 35 2 46 -5 55 -29 84
30 35 69 -33 26 -77 26 -126 2z"/>
<path d="M3635 7820 c-155 -14 -164 -22 -157 -138 2 -48 -1 -128 -7 -177 -11
-83 -11 -90 6 -103 38 -29 253 14 303 60 25 23 23 61 -3 66 -11 2 -47 -10 -81
-27 -34 -16 -81 -33 -104 -37 l-42 -7 0 54 c0 30 4 59 8 65 4 6 51 14 104 18
121 8 151 18 146 49 -3 22 -5 22 -125 19 -117 -3 -123 -2 -123 16 0 11 8 30
19 43 16 20 29 23 114 27 105 5 127 15 107 51 -6 12 -18 21 -28 21 -9 0 -26 2
-37 4 -11 2 -56 0 -100 -4z"/>
<path d="M4545 7816 c-16 -12 -36 -106 -61 -298 -11 -76 24 -128 84 -128 27 0
140 57 167 85 21 20 24 28 15 45 -15 29 -44 25 -110 -16 -32 -20 -63 -33 -68
-30 -11 7 -8 45 14 176 19 118 18 157 -5 169 -13 7 -23 6 -36 -3z"/>
<path d="M5801 7814 c-36 -7 -69 -18 -75 -24 -6 -6 -9 -52 -8 -118 2 -59 -2
-138 -8 -176 -14 -88 -4 -102 75 -100 63 2 188 38 227 66 31 21 38 62 12 72
-8 3 -45 -8 -80 -25 -36 -18 -86 -34 -111 -37 l-46 -5 5 57 c3 31 7 59 11 62
3 3 50 10 105 14 101 8 142 20 142 44 0 33 -26 39 -130 27 -55 -7 -105 -9
-110 -6 -16 10 -11 44 10 65 16 16 33 20 83 20 127 0 175 23 127 62 -27 22
-134 23 -229 2z"/>
<path d="M2463 7810 c-51 -11 -83 -26 -84 -43 -1 -7 0 -53 1 -103 1 -50 -3
-125 -10 -168 -16 -104 -10 -110 90 -103 75 6 173 34 217 62 27 18 31 63 7 72
-9 3 -45 -8 -81 -26 -36 -17 -84 -34 -109 -38 l-44 -6 0 50 c0 73 9 80 122 86
104 6 138 17 138 46 0 28 -22 32 -141 25 -103 -7 -109 -6 -109 12 0 11 7 29
15 40 12 18 29 22 112 28 118 9 144 24 107 60 -12 12 -36 16 -102 15 -48 -1
-106 -5 -129 -9z"/>
<path d="M2804 7785 c-7 -19 -14 -49 -14 -67 -1 -18 -9 -77 -19 -130 -10 -54
-16 -110 -13 -125 7 -43 40 -73 79 -73 33 0 142 48 176 78 23 20 22 49 -3 62
-21 11 -55 -1 -112 -41 -60 -43 -69 -21 -44 117 25 136 28 172 16 194 -17 32
-49 25 -66 -15z"/>
<path d="M3198 7810 c-91 -12 -140 -59 -104 -99 13 -14 14 -29 6 -97 -5 -43
-14 -104 -20 -134 -10 -52 -9 -56 12 -74 51 -41 230 11 292 85 48 57 30 115
-42 140 l-33 11 41 44 c32 34 40 50 35 67 -9 29 -42 57 -69 57 -11 0 -30 2
-41 4 -11 2 -46 0 -77 -4z m96 -75 c0 -11 -81 -75 -95 -75 -5 0 -9 16 -9 35 0
28 5 38 23 45 28 12 82 8 81 -5z m19 -166 c9 -6 17 -16 17 -23 0 -32 -97 -86
-157 -86 -23 0 -24 2 -17 48 11 80 17 85 82 77 32 -4 65 -11 75 -16z"/>
<path d="M4993 7803 c-100 -35 -193 -159 -193 -257 0 -100 58 -151 171 -150
125 0 239 78 275 187 52 157 -88 279 -253 220z m123 -72 c31 -19 64 -74 64
-106 0 -31 -43 -94 -82 -122 -50 -34 -135 -44 -173 -19 -32 21 -48 60 -40 97
10 46 64 117 108 144 50 30 82 31 123 6z"/>
<path d="M5399 7811 c-68 -21 -94 -57 -64 -90 14 -16 15 -29 5 -107 -6 -49
-15 -108 -20 -131 -13 -56 -5 -71 40 -83 89 -24 260 55 290 135 16 41 -3 73
-57 96 l-47 20 32 25 c46 36 56 60 42 94 -6 15 -23 32 -36 39 -28 12 -145 13
-185 2z m139 -73 c-2 -7 -26 -28 -54 -46 l-49 -34 -3 37 c-4 45 7 55 66 55 30
0 42 -4 40 -12z m2 -157 c71 -20 -3 -99 -101 -109 l-50 -5 7 39 c14 79 19 84
71 83 27 -1 59 -4 73 -8z"/>
<path d="M3999 7800 c-115 -20 -126 -41 -143 -303 -6 -86 -6 -87 19 -99 35
-16 56 6 63 68 l5 48 27 -32 c47 -56 90 -82 136 -82 76 0 71 42 -8 80 -29 14
-54 32 -56 41 -2 11 20 35 58 64 65 50 100 96 100 131 0 64 -92 103 -201 84z
m105 -70 c15 -15 -3 -58 -39 -94 -33 -33 -98 -61 -117 -50 -12 7 2 116 17 133
26 27 115 35 139 11z"/>
<path d="M10383 8476 c-44 -20 -62 -53 -74 -133 -6 -37 -14 -72 -18 -76 -5 -4
-34 19 -66 53 -53 54 -63 60 -100 60 -77 0 -113 -55 -102 -159 8 -74 0 -86
-38 -61 -63 42 -166 16 -200 -50 -23 -44 -17 -105 10 -105 16 0 21 8 23 42 2
32 10 48 33 68 37 30 73 32 114 5 37 -25 67 -25 88 -2 13 14 17 39 17 104 0
70 3 88 18 101 31 28 52 20 111 -42 65 -68 89 -79 120 -54 17 14 24 35 31 87
11 86 33 120 83 124 44 4 86 -30 125 -103 31 -57 70 -82 101 -65 11 5 40 31
64 56 57 61 78 56 108 -27 37 -101 69 -110 184 -49 86 45 129 50 169 19 34
-27 72 -92 87 -152 15 -61 60 -101 129 -116 28 -6 60 -11 71 -11 38 0 89 -29
109 -62 25 -42 26 -99 0 -173 -26 -75 -26 -125 1 -159 28 -36 60 -51 150 -71
81 -17 139 -46 139 -68 0 -16 -40 -54 -102 -96 -60 -40 -71 -62 -66 -123 7
-64 38 -96 151 -155 103 -53 127 -79 127 -137 0 -63 -43 -123 -129 -180 -39
-26 -80 -59 -91 -73 -26 -33 -26 -87 1 -158 19 -50 66 -121 75 -112 2 2 -6 27
-17 57 -11 30 -23 84 -26 121 l-6 67 69 45 c179 114 224 250 117 348 -15 15
-66 46 -112 69 -85 45 -121 82 -121 127 0 22 10 32 110 106 58 43 76 78 60
117 -17 41 -47 57 -156 85 -157 41 -169 59 -128 182 54 163 -5 271 -156 289
-30 3 -74 14 -96 24 -38 16 -44 24 -64 84 -41 124 -110 196 -187 196 -18 0
-65 -17 -108 -40 -101 -53 -121 -53 -135 3 -16 58 -36 86 -73 102 -43 18 -73
5 -123 -52 -23 -25 -46 -43 -52 -39 -5 3 -24 31 -41 61 -51 90 -138 132 -208
101z"/>
<path d="M13403 8400 c-18 -10 -67 -64 -109 -120 l-77 -100 -49 6 c-64 9 -128
-10 -178 -53 -47 -40 -70 -80 -70 -119 0 -26 2 -26 29 17 18 28 49 56 85 78
54 32 60 34 130 28 l74 -5 76 98 c97 125 130 154 170 146 17 -3 42 -18 55 -33
20 -23 23 -34 18 -79 -3 -28 -15 -70 -26 -93 -23 -43 -50 -61 -139 -92 -63
-22 -92 -44 -92 -70 0 -58 156 -125 342 -149 130 -16 199 -55 233 -131 17 -38
17 -41 -1 -80 -10 -24 -34 -52 -55 -66 l-37 -24 -62 21 c-77 26 -217 96 -300
149 -76 49 -146 73 -202 69 -38 -3 -43 -6 -46 -30 -2 -15 4 -43 14 -63 33 -71
92 -117 261 -204 88 -45 171 -92 182 -102 25 -23 27 -68 6 -108 -33 -65 -138
-67 -256 -5 -59 31 -87 56 -165 144 -95 108 -148 148 -178 137 -42 -16 8 -168
116 -350 17 -29 20 -42 12 -55 -17 -27 -58 -46 -86 -39 -36 9 -114 82 -145
135 -25 42 -28 57 -31 169 l-4 123 -30 0 c-47 0 -115 20 -138 42 -29 27 -20
66 31 141 21 32 39 62 39 67 0 21 -28 15 -57 -12 l-32 -30 -73 29 c-40 17 -81
33 -90 36 -15 5 -9 21 43 109 68 114 132 208 192 281 l40 48 61 -60 c65 -64
86 -74 86 -40 0 28 -120 149 -148 149 -36 0 -176 -186 -291 -388 -29 -52 -50
-99 -47 -108 8 -21 62 -42 146 -56 38 -7 70 -15 70 -19 0 -4 -7 -23 -15 -42
-8 -20 -15 -54 -15 -76 0 -31 6 -44 30 -65 31 -26 87 -46 128 -46 20 0 22 -4
22 -64 0 -77 14 -156 36 -203 38 -79 158 -172 223 -173 32 0 111 79 111 111 0
13 -14 44 -31 69 -36 53 -106 198 -115 237 -6 30 3 22 161 -148 33 -35 83 -77
111 -91 70 -38 167 -61 218 -54 120 18 179 169 95 240 -17 15 -88 55 -157 91
-170 86 -215 116 -252 166 -40 56 -40 73 3 64 39 -9 95 -37 205 -103 137 -84
293 -141 345 -128 37 9 97 64 113 103 39 91 -11 190 -121 242 -25 12 -92 28
-148 37 -114 16 -178 35 -251 72 -46 22 -49 25 -32 38 11 7 47 23 81 34 34 11
74 33 88 48 64 67 92 207 54 266 -36 54 -126 72 -184 36z"/>
<path d="M10491 8217 c-6 -8 -20 -44 -32 -82 -17 -55 -18 -69 -7 -76 20 -13
25 -11 36 19 42 111 44 187 3 139z"/>
<path d="M10690 8102 c-28 -9 -110 -76 -110 -89 0 -29 32 -24 75 12 63 51 82
93 35 77z"/>
<path d="M10243 8003 c-23 -8 -64 -34 -91 -58 l-49 -44 -184 -11 c-101 -5
-222 -15 -269 -21 -347 -43 -491 -136 -450 -290 17 -63 49 -101 117 -136 75
-40 139 -55 420 -98 380 -58 614 -80 588 -56 -18 16 -147 41 -370 71 -308 43
-511 79 -573 102 -118 44 -172 139 -125 219 22 37 112 85 207 109 91 23 291
47 478 56 l137 7 -15 -49 c-19 -60 -12 -141 17 -201 80 -166 325 -206 469 -76
66 59 101 133 62 133 -11 0 -32 -21 -52 -52 -50 -76 -116 -108 -219 -108 -69
0 -82 3 -131 33 -94 56 -137 182 -96 281 19 46 82 114 127 137 61 31 151 26
227 -12 80 -40 108 -78 104 -141 -5 -59 20 -113 62 -135 24 -13 56 -16 147
-15 104 2 117 1 133 -17 28 -31 14 -62 -59 -125 -53 -47 -65 -63 -65 -87 0
-74 53 -114 136 -102 45 6 74 -7 74 -32 0 -6 -13 -32 -30 -56 -38 -56 -38 -83
0 -121 28 -27 35 -30 73 -24 23 4 75 22 116 41 40 19 79 35 85 35 21 0 53 -43
65 -85 14 -51 14 -95 0 -151 -14 -55 -117 -170 -203 -226 -52 -33 -56 -38 -32
-38 47 0 120 42 184 108 82 82 102 125 102 222 0 94 -14 146 -50 181 -46 47
-71 47 -161 0 -132 -68 -189 -50 -135 42 32 54 34 107 5 133 -17 15 -34 19
-90 16 -63 -2 -70 0 -84 22 -21 31 -14 43 51 95 29 22 59 57 69 77 15 32 15
40 3 73 -22 58 -63 73 -178 66 -59 -4 -106 -3 -123 4 -35 13 -61 71 -52 113 6
24 3 30 -12 34 -11 3 -25 20 -32 39 -37 103 -203 163 -328 118z"/>
<path d="M10700 7903 c-61 -11 -44 -55 18 -47 67 9 123 27 119 38 -4 11 -93
17 -137 9z"/>
<path d="M10429 7824 c-19 -19 -14 -57 12 -80 23 -21 46 -12 59 22 20 52 -34
96 -71 58z"/>
<path d="M10226 7258 c-3 -12 -32 -265 -43 -385 l-5 -52 53 -15 c122 -36 276
-11 382 63 31 22 57 38 57 36 0 -17 -47 -99 -75 -132 -64 -75 -213 -135 -337
-137 -55 -1 -58 -2 -58 -26 1 -88 141 -240 293 -317 l49 -24 -8 -215 c-5 -146
-4 -214 4 -214 27 0 65 387 43 443 -6 15 -22 32 -36 37 -43 16 -134 79 -187
128 -51 47 -108 118 -108 134 0 4 15 8 33 8 53 0 183 37 239 67 94 51 169 146
193 245 5 20 2 29 -12 36 -14 8 -40 -1 -118 -39 -119 -59 -202 -76 -291 -60
-31 6 -59 13 -62 16 -3 3 5 87 17 187 27 226 27 228 1 228 -11 0 -22 -6 -24
-12z"/>
<path d="M10733 7064 c-4 -11 3 -23 21 -37 55 -40 81 -135 56 -202 -15 -40 11
-27 32 16 35 68 13 158 -52 213 -37 30 -48 32 -57 10z"/>
<path d="M10948 6662 c-40 -41 -31 -104 18 -116 40 -11 74 16 74 59 0 61 -54
95 -92 57z m40 -50 c2 -14 -2 -22 -11 -22 -17 0 -26 19 -19 38 7 19 27 9 30
-16z"/>
<path d="M4353 6348 c-13 -6 -30 -28 -40 -49 -13 -31 -19 -36 -34 -28 -28 15
-75 11 -91 -8 -38 -44 -26 -118 29 -175 40 -42 47 -34 18 19 -25 48 -32 97
-17 121 14 21 95 -15 115 -51 21 -35 32 -31 17 7 -15 42 -12 91 8 108 34 31
56 30 87 -2 53 -55 82 -26 33 34 -24 30 -36 36 -66 35 -20 0 -47 -5 -59 -11z"/>
<path d="M4578 6332 c-46 -30 -102 -117 -96 -149 2 -10 14 0 35 29 17 24 50
57 73 73 39 27 44 28 68 14 35 -19 39 -51 13 -95 -12 -19 -21 -45 -21 -56 0
-11 -8 -27 -17 -34 -15 -11 -5 -12 59 -7 86 6 128 -9 128 -48 0 -29 -61 -88
-98 -95 -48 -10 -47 -31 4 -67 112 -79 26 -149 -110 -88 l-46 20 0 -82 c0
-141 -34 -169 -107 -90 -44 46 -46 47 -39 18 10 -40 57 -98 87 -106 43 -11 77
16 94 73 8 28 15 66 15 85 0 31 1 32 26 23 37 -15 101 -12 133 5 26 13 51 58
51 91 0 7 -15 30 -32 50 -26 29 -30 38 -18 42 26 9 77 70 83 99 7 36 -15 88
-44 103 -12 7 -44 10 -74 8 l-52 -4 25 47 c19 37 23 56 18 83 -13 68 -97 99
-158 58z"/>
<path d="M3633 6100 c-29 -12 -43 -40 -43 -90 0 -42 0 -42 -33 -36 -75 14
-147 -32 -147 -95 0 -41 35 -93 71 -104 25 -8 17 -21 -18 -30 -76 -19 -111
-85 -80 -151 22 -46 77 -62 154 -46 52 11 110 38 100 48 -2 2 -28 -1 -58 -6
-56 -11 -125 -5 -146 12 -7 6 -13 23 -13 39 0 22 8 34 33 49 17 11 40 20 49
20 10 0 23 8 29 19 8 11 20 17 33 14 17 -3 16 0 -8 19 -100 78 -120 114 -85
149 19 19 29 21 76 16 30 -3 61 -11 69 -18 28 -23 37 3 23 65 -14 64 -4 86 40
86 33 0 70 -37 103 -102 l23 -48 42 53 c22 29 57 61 77 72 53 29 70 14 76 -66
3 -40 8 -57 12 -46 4 9 14 17 22 17 9 0 20 9 26 21 21 38 70 59 138 59 47 0
63 3 60 13 -14 40 -105 45 -178 9 l-41 -20 -13 33 c-26 62 -88 58 -164 -10
l-48 -43 -22 34 c-40 62 -103 87 -159 64z"/>
<path d="M4414 6070 c-29 -12 -70 -63 -84 -105 -26 -79 18 -151 91 -149 48 2
119 45 119 74 0 10 5 22 10 25 35 22 -18 127 -76 151 -18 8 -35 14 -36 13 -2
0 -12 -4 -24 -9z m86 -78 c40 -39 54 -82 25 -82 -8 0 -31 -11 -51 -25 -43 -29
-66 -31 -88 -9 -31 31 -14 104 32 142 25 19 38 15 82 -26z"/>
<path d="M4034 5915 c-8 -21 5 -37 26 -30 29 9 98 -13 111 -36 16 -31 -11 -63
-83 -97 -123 -56 -120 -53 -49 -48 41 3 80 13 112 29 l48 25 -10 -24 c-18 -49
-11 -94 20 -125 45 -44 98 -38 164 21 22 19 34 37 30 46 -8 20 -18 18 -65 -16
-47 -35 -78 -38 -102 -11 -21 23 -15 50 30 145 19 38 31 72 28 75 -3 3 -21
-12 -40 -34 l-34 -40 0 33 c0 46 -16 71 -55 88 -46 19 -124 19 -131 -1z"/>
<path d="M3763 5843 c-39 -20 -53 -50 -53 -116 0 -62 18 -93 59 -102 68 -15
173 44 186 106 9 41 -11 87 -46 105 -43 22 -109 25 -146 7z m58 -33 c38 0 78
-17 85 -35 26 -68 -113 -146 -147 -83 -27 50 -6 159 25 128 5 -5 22 -10 37
-10z"/>
<path d="M4030 5674 c0 -10 20 -38 45 -65 53 -57 65 -92 40 -119 -23 -26 -74
-26 -124 -1 -41 21 -59 40 -79 80 -27 57 -3 -95 32 -203 36 -110 76 -282 76
-330 0 -27 -3 -28 -81 -41 -47 -7 -50 -19 -38 -144 14 -147 128 -1021 134
-1032 4 -5 -83 -9 -229 -9 l-236 0 0 28 c0 36 -53 105 -120 156 l-51 39 -412
8 c-227 4 -553 8 -725 8 -289 1 -313 0 -320 -16 -4 -10 -7 -63 -7 -118 0 -93
1 -100 20 -100 18 0 21 8 25 83 l5 83 31 -33 c48 -51 84 -103 84 -121 0 -26
19 -20 26 8 7 28 -10 78 -33 96 -7 7 -24 26 -35 42 l-22 30 669 -6 669 -7 35
-24 c56 -38 141 -122 141 -139 0 -24 -214 -29 -1070 -25 l-764 3 -23 33 c-15
23 -24 56 -29 103 -7 69 -8 71 -48 96 -22 14 -52 35 -65 47 -100 90 -144 328
-78 428 14 21 47 46 92 68 l70 35 -2 56 -3 56 353 7 c193 4 363 9 377 12 l25
5 -7 -193 c-3 -106 -11 -231 -17 -278 -14 -106 -14 -228 -2 -214 31 31 75 407
69 589 l-3 100 -55 12 c-35 7 -186 11 -417 12 l-363 1 0 -84 0 -84 -37 -7
c-74 -13 -104 -35 -131 -93 -45 -99 -26 -281 41 -394 28 -46 83 -98 134 -127
11 -6 19 -31 24 -76 5 -37 16 -78 24 -91 l15 -24 -737 -2 -738 -3 -3 -22 -3
-23 603 0 604 0 2 -342 c9 -1158 23 -2417 28 -2498 3 -52 10 -103 14 -115 8
-20 9 -15 23 105 6 47 -21 2829 -28 2839 -6 11 3132 26 3435 17 124 -4 260 -9
302 -12 l77 -6 3 -547 c3 -525 10 -634 31 -551 5 19 11 279 13 577 2 441 0
544 -10 553 -24 19 -223 30 -717 36 l-486 7 -6 71 c-3 39 -31 260 -61 491 -30
231 -57 454 -61 496 -7 74 -6 76 16 82 32 9 307 9 349 1 l32 -7 -6 -76 c-4
-42 -32 -242 -62 -446 -55 -367 -77 -605 -57 -605 13 0 35 116 73 385 16 116
43 302 60 415 16 113 30 240 30 283 0 74 -1 78 -26 87 -14 6 -38 10 -54 10
-27 0 -28 1 -23 43 11 94 45 240 83 359 22 69 40 145 40 169 l0 44 -26 -60
c-76 -179 -125 -347 -139 -479 l-7 -66 -79 0 -78 0 -6 48 c-10 80 -45 230 -75
316 l-28 83 36 -19 c43 -22 71 -23 117 -4 40 17 55 42 55 94 0 40 -15 66 -74
130 -32 34 -66 43 -66 16z"/>
<path d="M3546 5525 c-3 -9 -6 -32 -6 -50 0 -70 82 -116 148 -82 28 14 30 13
41 -9 5 -13 22 -31 36 -40 24 -16 29 -16 60 -1 51 24 71 74 67 160 -2 34 -22
26 -22 -9 0 -45 -45 -113 -76 -114 -19 0 -48 73 -46 115 l3 40 -26 -45 c-31
-53 -40 -60 -80 -60 -44 0 -53 10 -57 60 -3 47 -29 68 -42 35z"/>
<path d="M1580 4502 c-67 -33 -89 -135 -55 -250 25 -82 100 -156 133 -130 22
19 6 354 -19 384 -15 18 -17 18 -59 -4z m43 -169 c-3 -76 -6 -142 -7 -147 -1
-5 -12 7 -25 27 -43 70 -46 193 -5 238 37 41 42 26 37 -118z"/>
<path d="M10120 4069 c-30 -4 -69 -13 -85 -20 -26 -11 -9 -14 145 -20 96 -4
210 -13 254 -18 82 -11 96 -9 96 15 0 22 -36 32 -161 43 -127 12 -169 12 -249
0z"/>
<path d="M3264 3736 c-7 -18 25 -2861 32 -2908 10 -60 22 -44 29 38 8 79 -12
2822 -21 2862 -5 24 -32 30 -40 8z"/>
<path d="M1104 2705 c-11 -27 1 -234 13 -246 18 -18 33 53 33 164 0 91 -1 97
-20 97 -11 0 -23 -7 -26 -15z"/>
<path d="M3515 2694 c-6 -3 -8 -52 -4 -136 7 -150 6 -141 19 -133 20 12 30 82
24 172 -7 87 -14 105 -39 97z"/>
<path d="M2980 2558 c0 -115 9 -162 26 -145 9 9 26 237 19 254 -2 7 -14 13
-25 13 -19 0 -20 -6 -20 -122z"/>
</g>
</svg>
