<?xml version="1.0" standalone="no"?>
<!DOCTYPE svg PUBLIC "-//W3C//DTD SVG 20010904//EN"
 "http://www.w3.org/TR/2001/REC-SVG-20010904/DTD/svg10.dtd">
<svg version="1.0" xmlns="http://www.w3.org/2000/svg"
 width="965.000000pt" height="695.000000pt" viewBox="0 0 965.000000 695.000000"
 preserveAspectRatio="xMidYMid meet">

<g transform="translate(0.000000,695.000000) scale(0.100000,-0.100000)"
fill="#000000" stroke="none">
<path d="M4895 6905 c-723 -83 -1176 -400 -1175 -825 1 -183 78 -350 235 -506
131 -130 261 -209 497 -303 138 -54 202 -76 268 -90 40 -9 43 -8 26 4 -10 8
-51 26 -90 41 -404 152 -519 215 -682 378 -144 144 -212 281 -221 446 -23 403
368 705 1049 812 191 30 651 32 848 5 426 -60 745 -176 968 -352 175 -138 262
-297 262 -479 1 -524 -742 -936 -1625 -902 -93 4 -207 12 -252 19 l-83 13 -29
-26 c-31 -29 -65 -122 -75 -206 -14 -116 35 -311 120 -475 51 -98 172 -280
192 -287 25 -8 10 30 -37 96 -107 148 -193 324 -226 464 -32 135 -13 314 38
374 l23 27 90 -14 c137 -21 547 -18 699 5 434 66 772 220 995 452 74 78 98
111 134 187 55 115 66 162 66 279 0 165 -65 303 -207 439 -210 202 -545 339
-1008 411 -171 26 -620 34 -800 13z"/>
<path d="M1540 6769 c-318 -34 -619 -138 -806 -276 -524 -389 -230 -966 596
-1173 216 -54 312 -65 580 -65 186 0 272 4 357 18 148 23 337 76 453 126 l95
41 59 -63 c113 -118 220 -278 289 -433 15 -34 27 -69 27 -77 0 -19 16 -31 30
-22 12 8 -32 132 -78 215 -62 114 -154 242 -238 330 -79 82 -83 85 -110 73
-16 -6 -68 -27 -115 -47 -106 -44 -278 -90 -424 -113 -155 -25 -526 -24 -685
0 -402 62 -719 202 -907 401 -123 129 -179 278 -155 409 55 296 418 532 943
614 158 24 507 24 674 -1 585 -86 1016 -364 1066 -688 13 -84 0 -160 -42 -248
-24 -50 -57 -90 -140 -172 -60 -60 -105 -108 -100 -108 22 0 132 83 179 136
275 307 133 688 -345 927 -165 84 -377 147 -603 182 -125 19 -478 28 -600 14z"/>
<path d="M8228 6770 c-261 -47 -452 -217 -512 -455 -39 -154 -44 -383 -11
-509 52 -198 158 -275 460 -332 107 -20 416 -26 422 -8 2 7 -48 13 -159 17
-337 13 -546 75 -627 188 -71 98 -100 257 -81 457 6 64 18 144 26 177 54 208
208 361 424 421 92 26 360 26 480 1 327 -69 521 -213 593 -442 19 -60 22 -92
21 -215 -1 -254 -53 -386 -185 -471 -56 -37 -57 -47 -3 -29 85 28 163 135 198
270 25 97 32 308 12 398 -56 263 -247 429 -585 509 -84 19 -139 25 -266 28
-88 2 -181 0 -207 -5z"/>
<path d="M8246 6462 c-2 -4 -10 -47 -17 -95 -7 -48 -15 -87 -19 -87 -9 0 -28
66 -36 124 -7 49 -19 65 -36 48 -16 -16 -37 -137 -38 -209 0 -55 2 -63 19 -63
20 0 30 25 31 75 1 29 2 28 26 -17 39 -76 57 -67 82 40 28 116 34 156 26 176
-6 17 -29 22 -38 8z"/>
<path d="M5015 6444 c-50 -26 -76 -56 -73 -83 3 -21 13 -29 63 -46 51 -17 60
-24 63 -47 2 -18 -4 -31 -20 -42 -32 -23 -45 -20 -78 15 -30 34 -50 32 -50 -5
0 -71 140 -88 183 -22 23 35 28 71 12 93 -13 19 -29 28 -99 53 l-30 11 30 19
c21 14 38 18 62 14 28 -5 32 -3 32 15 0 20 -26 41 -52 41 -7 0 -26 -7 -43 -16z"/>
<path d="M5586 6445 c-9 -9 -16 -29 -16 -44 0 -38 -19 -59 -61 -66 l-36 -7 5
50 c3 33 0 52 -8 57 -20 12 -40 -24 -40 -71 0 -31 -5 -46 -17 -53 -15 -8 -16
-13 -5 -30 6 -12 12 -39 12 -61 0 -26 4 -40 13 -40 22 0 37 23 37 57 0 34 21
53 59 53 19 0 21 -6 21 -54 0 -56 7 -70 33 -60 11 4 16 32 22 106 4 56 11 113
16 127 14 35 -10 60 -35 36z"/>
<path d="M6331 6451 c-7 -5 -15 -27 -18 -49 -6 -48 -15 -57 -62 -67 l-34 -7 5
46 c4 28 1 49 -6 55 -21 18 -39 -6 -44 -59 -3 -31 -10 -54 -18 -57 -19 -7 -18
-32 1 -39 11 -5 13 -16 9 -44 -4 -24 -2 -40 5 -45 19 -11 41 15 41 51 0 37 21
54 65 54 26 0 27 -2 25 -47 -3 -67 -2 -73 15 -73 21 0 23 9 35 125 5 55 12
112 15 126 7 28 -11 44 -34 30z"/>
<path d="M8826 6445 c-3 -9 -6 -52 -6 -96 0 -43 -4 -79 -9 -79 -5 0 -19 26
-30 58 -33 90 -44 107 -71 107 -22 0 -26 -6 -32 -45 -3 -25 -7 -82 -7 -128 -1
-74 1 -83 17 -80 13 2 19 19 27 72 l10 68 27 -56 c32 -64 59 -84 82 -60 23 22
29 57 30 159 1 75 -2 90 -15 93 -9 2 -19 -4 -23 -13z"/>
<path d="M4294 6443 c-6 -5 -14 -39 -17 -78 -4 -38 -9 -91 -13 -117 -4 -33 -3
-53 6 -63 17 -21 40 -2 40 34 0 64 8 71 70 71 36 0 62 5 69 13 17 22 -8 37
-62 37 l-48 0 3 33 3 32 60 0 c53 0 60 2 60 20 0 18 -8 20 -80 23 -44 1 -85
-1 -91 -5z"/>
<path d="M4567 6411 c-39 -43 -55 -89 -59 -167 -3 -43 -1 -49 17 -49 14 0 21
8 23 28 3 23 8 27 37 27 32 0 34 -2 37 -37 2 -30 7 -38 23 -38 35 0 38 92 9
253 -7 36 -46 28 -87 -17z m51 -73 c-3 -39 -6 -43 -31 -46 -26 -3 -28 -1 -21
20 10 32 34 68 46 68 5 0 8 -19 6 -42z"/>
<path d="M5284 6440 c-30 -12 -89 -75 -108 -115 -22 -46 -21 -108 3 -129 29
-26 85 -31 135 -12 45 17 64 42 47 59 -7 7 -27 3 -61 -13 -59 -28 -83 -21 -88
25 -5 39 15 80 56 116 36 32 36 32 46 10 5 -12 17 -20 25 -19 24 5 25 44 2 67
-23 23 -26 24 -57 11z"/>
<path d="M6030 6443 c-25 -9 -71 -56 -101 -102 -53 -82 -32 -157 46 -167 72
-9 158 37 127 68 -9 9 -21 7 -55 -10 -50 -25 -68 -27 -85 -10 -31 31 1 117 58
158 l29 20 6 -20 c3 -11 15 -20 26 -20 24 0 26 36 3 68 -15 22 -26 25 -54 15z"/>
<path d="M8357 6437 l-28 -12 -4 -122 -4 -123 47 0 c88 1 186 50 157 79 -6 6
-30 1 -65 -14 -78 -34 -90 -33 -90 9 0 19 4 37 10 41 5 3 39 8 75 12 66 6 98
24 73 39 -7 5 -43 7 -80 5 -53 -2 -68 0 -68 11 0 27 24 38 80 38 61 0 87 14
69 37 -14 17 -133 17 -172 0z"/>
<path d="M4746 6418 c-29 -147 -34 -191 -26 -212 10 -28 40 -40 73 -30 39 12
97 54 97 69 0 21 -34 19 -72 -5 -18 -11 -37 -20 -42 -20 -5 0 -6 24 -2 53 20
174 21 167 -2 167 -14 0 -23 -8 -26 -22z"/>
<path d="M5833 6428 c-15 -20 -37 -238 -25 -250 34 -34 55 32 56 176 1 78 -9
102 -31 74z"/>
<path d="M8586 6408 c-15 -96 -26 -210 -21 -218 3 -6 14 -10 24 -10 23 0 29
24 37 158 7 99 6 102 -14 102 -16 0 -22 -8 -26 -32z"/>
<path d="M1712 6408 c-7 -7 -12 -23 -12 -36 0 -37 -17 -60 -50 -67 -44 -10
-45 -9 -42 45 3 44 2 50 -16 50 -24 0 -32 -18 -32 -70 0 -21 -6 -43 -15 -50
-17 -14 -20 -40 -5 -40 6 0 10 -20 10 -44 0 -25 4 -47 9 -51 17 -10 41 26 41
60 0 28 5 35 31 44 18 6 36 11 40 11 5 0 9 -27 9 -61 0 -57 1 -60 23 -57 20 3
23 10 28 83 4 44 10 106 14 138 6 46 5 57 -7 57 -8 0 -19 -5 -26 -12z"/>
<path d="M2444 6409 c-3 -6 -9 -49 -12 -96 -4 -75 -7 -84 -18 -68 -7 10 -21
41 -30 69 -18 55 -39 86 -60 86 -23 0 -31 -32 -39 -142 -6 -96 -5 -109 10
-114 24 -10 35 13 35 72 0 28 3 54 6 57 4 4 17 -15 29 -41 22 -49 49 -82 65
-82 23 0 42 54 50 139 5 50 6 99 3 111 -6 22 -28 27 -39 9z"/>
<path d="M1379 6383 c-83 -70 -118 -191 -67 -227 43 -30 158 -14 179 25 16 30
-16 35 -68 10 -58 -28 -83 -17 -83 38 0 38 22 76 65 113 26 23 32 22 40 -2 7
-24 33 -27 41 -5 4 9 1 29 -6 45 -16 39 -56 40 -101 3z"/>
<path d="M2005 6401 c-22 -4 -46 -10 -52 -14 -15 -9 -17 -43 -5 -51 8 -5 -2
-127 -13 -155 -16 -42 68 -55 134 -21 41 21 81 63 81 87 0 8 -13 22 -30 31
-35 20 -36 23 -10 47 54 49 -6 93 -105 76z m52 -66 c-33 -30 -57 -32 -57 -7 0
27 9 32 49 32 l36 -1 -28 -24z m23 -85 c11 -6 17 -17 14 -24 -7 -18 -65 -46
-94 -46 -19 0 -21 4 -15 33 4 17 9 35 12 40 6 10 61 9 83 -3z"/>
<path d="M1215 6388 c-6 -21 -25 -179 -25 -215 0 -26 4 -33 19 -33 11 0 22 8
25 18 11 34 26 205 21 223 -7 21 -34 26 -40 7z"/>
<path d="M2205 6388 c-7 -23 -25 -168 -25 -209 0 -32 4 -39 19 -39 11 0 22 8
25 18 10 32 26 211 20 227 -7 18 -33 20 -39 3z"/>
<path d="M5840 6101 c-20 -3 -36 -13 -38 -22 -3 -14 18 -16 195 -12 358 6 483
19 357 37 -58 8 -466 6 -514 -3z"/>
<path d="M5557 6043 c-4 -3 -7 -17 -7 -30 0 -27 34 -33 44 -7 10 25 -20 55
-37 37z"/>
<path d="M5660 6035 c-16 -19 -5 -47 17 -43 22 4 29 43 9 51 -8 3 -20 -1 -26
-8z"/>
<path d="M8117 6030 c-21 -4 -43 -12 -50 -19 -17 -17 4 -45 37 -49 26 -3 26
-3 26 -93 l0 -90 -31 -11 c-23 -8 -29 -16 -27 -32 2 -16 11 -22 36 -24 38 -4
139 15 147 28 10 17 -8 40 -31 40 -23 0 -24 3 -24 69 0 104 7 129 39 133 29 3
42 35 19 49 -15 10 -87 10 -141 -1z"/>
<path d="M8850 6020 c-6 -12 -14 -39 -18 -62 -7 -37 -11 -42 -50 -53 l-42 -13
3 56 c2 49 -1 57 -17 60 -27 6 -46 -24 -46 -74 0 -25 -6 -47 -15 -54 -17 -14
-20 -46 -5 -55 6 -3 10 -28 10 -56 0 -45 2 -49 24 -49 26 0 30 8 41 72 7 36
23 48 68 48 16 0 19 -7 17 -52 -3 -75 -3 -78 24 -78 30 0 32 8 41 130 3 52 11
112 18 134 10 34 9 40 -8 52 -25 19 -32 18 -45 -6z"/>
<path d="M1727 6023 c-11 -10 -8 -41 4 -49 16 -9 43 21 36 40 -7 16 -28 21
-40 9z"/>
<path d="M1826 6014 c-8 -21 11 -45 30 -37 20 7 14 47 -7 51 -9 2 -19 -5 -23
-14z"/>
<path d="M8472 6013 c-35 -17 -94 -80 -118 -126 -9 -16 -16 -51 -16 -79 -1
-44 2 -54 27 -76 25 -21 36 -24 92 -20 69 4 116 30 121 67 4 28 -32 28 -92 0
-66 -33 -95 -13 -82 55 6 32 78 126 97 126 5 0 9 -9 9 -19 0 -23 28 -35 46
-20 31 26 0 109 -41 109 -5 0 -25 -8 -43 -17z"/>
<path d="M2567 5923 c-40 -93 -51 -133 -38 -146 17 -17 34 7 70 98 36 93 38
105 12 105 -13 0 -26 -17 -44 -57z"/>
<path d="M6436 5957 c-16 -12 -76 -155 -76 -182 0 -15 27 -28 34 -16 13 21 76
177 76 188 0 19 -15 24 -34 10z"/>
<path d="M1382 5948 c-7 -7 -12 -43 -12 -87 0 -112 -12 -118 -47 -25 -31 80
-57 110 -82 94 -11 -6 -15 -36 -15 -127 -1 -110 7 -146 26 -112 4 8 10 40 13
73 l7 58 31 -63 c58 -117 100 -85 113 87 5 72 4 92 -8 101 -11 10 -17 10 -26
1z"/>
<path d="M2072 5943 c-5 -10 -12 -35 -16 -55 -6 -32 -12 -39 -44 -48 -53 -14
-52 -15 -45 39 4 34 2 51 -7 56 -20 12 -40 -23 -40 -68 0 -26 -6 -44 -17 -53
-15 -11 -16 -16 -5 -33 6 -12 12 -39 12 -61 0 -28 4 -40 15 -40 19 0 35 31 35
68 0 26 5 31 40 40 l40 10 0 -58 c0 -33 5 -62 10 -65 24 -15 37 17 44 108 3
51 10 106 15 124 13 44 -18 74 -37 36z"/>
<path d="M4616 5944 c-3 -9 -6 -49 -6 -90 0 -41 -4 -74 -8 -74 -9 0 -31 47
-54 113 -13 39 -49 60 -69 40 -16 -16 -24 -239 -10 -248 22 -13 33 11 39 80
l5 67 31 -58 c17 -31 39 -62 48 -68 40 -25 67 47 68 182 0 64 -2 72 -19 72
-10 0 -22 -7 -25 -16z"/>
<path d="M1143 5943 c-9 -3 -13 -26 -13 -66 0 -73 -14 -130 -36 -148 -14 -11
-18 -10 -31 6 -14 20 -14 56 3 158 6 32 4 37 -13 37 -21 0 -34 -33 -48 -122
-8 -50 11 -115 36 -128 27 -15 72 -4 98 24 23 24 41 106 41 187 0 46 -11 61
-37 52z"/>
<path d="M1741 5915 c-34 -40 -61 -118 -61 -182 0 -36 3 -43 20 -43 16 0 20 7
20 30 0 28 2 30 40 30 l40 0 0 -40 c0 -29 4 -40 15 -40 18 0 38 46 32 71 -2 9
0 24 5 33 6 11 6 22 0 29 -5 7 -12 38 -15 69 -3 32 -8 62 -12 68 -13 21 -53
10 -84 -25z m57 -95 c-2 -20 -9 -26 -36 -28 l-33 -3 16 37 c8 21 21 44 27 52
10 11 13 10 20 -9 5 -13 8 -35 6 -49z"/>
<path d="M2365 5931 c-51 -23 -112 -90 -120 -133 -12 -65 25 -113 97 -125 65
-10 138 53 138 119 0 35 -27 61 -54 54 -12 -4 -33 -9 -48 -12 -36 -8 -55 -31
-40 -46 9 -9 21 -9 49 0 44 13 46 12 38 -21 -14 -54 -117 -57 -131 -3 -7 31
16 67 68 105 32 24 44 28 58 19 38 -24 66 14 34 46 -20 20 -40 20 -89 -3z"/>
<path d="M4150 5937 c-23 -12 -25 -18 -22 -64 2 -28 -2 -77 -8 -109 -11 -52
-10 -59 6 -71 27 -20 65 -16 125 15 82 41 96 92 33 125 l-25 13 26 24 c29 27
31 42 9 64 -19 20 -108 21 -144 3z m100 -36 c0 -9 -52 -51 -64 -51 -12 0 -6
48 7 53 21 9 57 7 57 -2z m6 -101 c8 0 14 -9 14 -20 0 -23 -46 -50 -85 -50
-27 0 -31 13 -15 56 9 23 14 26 41 20 18 -3 38 -6 45 -6z"/>
<path d="M4386 5942 c-12 -19 -31 -197 -27 -249 2 -24 31 -13 42 15 15 39 17
234 2 239 -6 2 -14 0 -17 -5z"/>
<path d="M1503 5930 c-22 -9 -27 -21 -37 -90 -16 -105 -16 -158 -1 -164 17 -6
29 13 40 64 9 41 19 50 60 50 36 0 77 20 83 39 4 11 -8 12 -62 7 -60 -7 -66
-6 -66 11 0 34 16 43 84 50 54 5 66 9 64 22 -3 13 -18 16 -73 18 -39 1 -80 -2
-92 -7z"/>
<path d="M2166 5918 c-15 -70 -27 -231 -17 -241 33 -33 54 33 55 178 1 67 -2
80 -16 83 -11 2 -19 -5 -22 -20z"/>
<path d="M5215 5918 c-3 -13 -6 -54 -7 -93 -2 -38 -7 -70 -13 -70 -5 0 -22 33
-36 74 -18 52 -33 78 -48 85 -36 16 -43 -5 -49 -133 -4 -108 -3 -121 12 -121
20 0 23 7 31 85 l7 60 28 -56 c33 -63 51 -82 73 -73 25 9 38 64 40 166 2 80 0
93 -15 96 -11 2 -19 -5 -23 -20z"/>
<path d="M5591 5903 c-44 -44 -74 -127 -69 -190 4 -45 31 -54 36 -12 3 27 23
39 65 39 13 0 17 -8 17 -39 0 -42 8 -54 28 -42 17 10 32 111 21 133 -5 9 -9
34 -9 55 0 42 -18 84 -38 91 -7 2 -30 -14 -51 -35z m49 -89 c0 -20 -6 -34 -16
-38 -48 -18 -57 7 -23 63 16 27 23 31 30 20 5 -8 9 -28 9 -45z"/>
<path d="M5912 5923 c-5 -10 -12 -34 -16 -54 -5 -29 -12 -38 -34 -43 -15 -4
-35 -9 -44 -12 -15 -4 -16 2 -11 51 5 46 3 55 -10 55 -22 0 -37 -31 -37 -78 0
-26 -5 -42 -15 -46 -17 -6 -21 -36 -5 -36 6 0 10 -20 10 -44 0 -25 5 -48 12
-52 16 -10 38 25 38 62 0 27 5 34 31 43 18 6 36 11 40 11 5 0 9 -27 9 -61 0
-57 1 -60 23 -57 21 3 23 10 30 103 4 55 11 111 16 125 4 14 6 31 4 38 -7 18
-31 15 -41 -5z"/>
<path d="M4977 5924 c-4 -4 -7 -37 -8 -73 0 -85 -17 -135 -46 -139 -31 -5 -38
30 -23 117 12 73 9 94 -14 85 -29 -11 -51 -165 -32 -222 18 -55 109 -43 141
18 23 45 27 213 5 218 -9 1 -19 0 -23 -4z"/>
<path d="M6205 5916 c-38 -17 -112 -97 -121 -130 -21 -85 64 -153 155 -123 64
21 101 106 67 152 -13 18 -18 19 -63 7 -59 -16 -86 -38 -63 -52 8 -5 21 -8 28
-5 45 16 62 17 62 1 0 -48 -89 -75 -123 -38 -24 27 -21 47 14 87 40 46 79 66
101 54 22 -12 48 -1 48 20 0 40 -48 52 -105 27z"/>
<path d="M5335 5906 c-19 -13 -29 -60 -40 -183 -5 -58 -4 -63 14 -63 15 0 23
10 31 43 6 23 13 47 15 53 2 6 25 14 52 18 60 8 94 29 76 47 -10 10 -21 10
-51 1 -54 -16 -72 -15 -72 6 0 33 17 43 81 50 49 5 64 11 67 25 3 15 -6 17
-75 17 -51 0 -86 -5 -98 -14z"/>
<path d="M6006 5888 c-15 -96 -26 -210 -21 -218 3 -6 15 -10 25 -10 23 0 33
54 34 175 1 67 -2 80 -16 83 -12 2 -18 -6 -22 -30z"/>
<path d="M2522 5728 c-15 -15 -16 -45 -2 -53 16 -10 41 16 38 38 -4 25 -20 31
-36 15z"/>
<path d="M6357 5714 c-4 -4 -7 -18 -7 -31 0 -20 5 -24 23 -21 16 2 22 10 22
28 0 24 -23 39 -38 24z"/>
<path d="M8797 5556 c-80 -22 -116 -58 -131 -131 -15 -71 77 -138 188 -139 76
0 124 16 164 55 114 112 -42 263 -221 215z m186 -59 c60 -46 61 -97 3 -142
-41 -32 -111 -45 -173 -34 -58 11 -92 34 -118 82 l-20 36 25 26 c47 51 88 65
171 63 65 -3 81 -7 112 -31z"/>
<path d="M8634 5246 c-40 -18 -74 -54 -74 -79 0 -17 3 -16 22 8 26 33 75 55
122 55 114 0 178 -93 105 -154 -26 -22 -40 -26 -94 -26 -58 0 -68 3 -100 31
-19 17 -35 37 -35 45 0 8 -7 14 -15 14 -23 0 -18 -35 11 -69 37 -45 118 -67
185 -51 80 20 116 64 109 135 -7 79 -143 131 -236 91z"/>
<path d="M8490 4983 c-31 -21 -40 -33 -39 -53 0 -11 2 -11 6 -2 8 21 59 42
101 42 41 0 92 -30 92 -55 0 -7 -12 -23 -26 -34 -39 -31 -104 -28 -144 5 -35
30 -49 26 -32 -10 6 -14 28 -31 56 -41 40 -15 52 -16 91 -5 95 26 114 114 35
155 -39 20 -110 19 -140 -2z"/>
<path d="M5684 4780 c14 -73 93 -204 141 -236 37 -24 50 -7 47 64 -2 32 2 71
8 87 l12 30 20 -40 c62 -122 132 -195 188 -195 33 0 53 38 53 101 0 39 1 40
26 34 45 -11 124 -59 145 -88 16 -22 22 -47 25 -108 4 -101 -2 -129 -29 -122
-13 3 -20 0 -20 -8 0 -8 23 -22 50 -32 146 -52 199 -200 122 -342 -35 -64 -27
-71 17 -17 50 59 64 141 39 224 -15 50 -79 123 -130 149 -30 15 -38 24 -33 37
4 9 10 51 12 93 7 106 -15 156 -89 198 -61 36 -142 63 -163 55 -11 -5 -13 -17
-8 -49 7 -54 -3 -95 -22 -95 -43 0 -146 141 -179 244 -6 18 -7 18 -26 1 -32
-29 -50 -80 -50 -142 l0 -58 -25 30 c-14 17 -46 72 -72 123 -47 93 -71 118
-59 62z"/>
<path d="M6609 4695 c-28 -15 -79 -77 -79 -94 0 -26 107 8 141 45 41 44 -5 81
-62 49z m25 -40 c-40 -32 -58 -35 -26 -5 19 17 37 29 40 26 3 -4 -3 -13 -14
-21z"/>
<path d="M3175 4680 c-3 -5 -22 -10 -41 -10 -25 0 -42 -8 -60 -27 l-26 -28
-17 21 c-22 27 -51 15 -51 -21 0 -21 -64 -114 -89 -130 -14 -8 -26 39 -25 103
0 42 -3 52 -15 50 -26 -5 -111 -120 -133 -180 -11 -32 -24 -55 -29 -53 -4 3
-15 27 -24 54 -19 58 -37 78 -54 58 -22 -27 -39 -95 -34 -135 5 -34 2 -42 -16
-51 -27 -15 -26 -23 2 -58 22 -25 41 -73 31 -73 -3 0 -16 7 -29 16 -13 9 -29
12 -36 8 -17 -10 -4 -123 22 -183 22 -51 88 -122 134 -143 16 -7 27 -22 31
-45 12 -65 24 -43 24 44 0 104 13 133 62 133 40 0 114 -74 149 -148 13 -29 31
-51 40 -52 13 0 14 10 4 85 -7 50 -18 92 -28 103 -10 10 -14 26 -11 39 4 14
-2 34 -16 54 -19 25 -20 33 -9 40 25 16 37 10 56 -28 77 -148 307 -147 374 2
22 49 24 104 5 150 -17 40 -18 40 48 20 57 -17 117 -19 165 -5 30 8 37 7 57
-15 16 -17 34 -25 57 -25 25 0 39 -6 50 -24 10 -14 30 -26 53 -31 53 -9 104
-63 104 -106 -1 -92 -86 -116 -489 -139 -171 -9 -207 -15 -163 -27 21 -5 22
-10 22 -114 l0 -109 -52 -1 c-116 -1 -158 -39 -137 -123 12 -50 37 -71 96 -85
l38 -8 -87 -42 -88 -42 0 -234 c0 -145 4 -236 10 -240 6 -4 10 6 10 22 0 55
10 58 95 22 l77 -32 -7 -46 c-4 -25 -10 -64 -14 -86 -5 -34 -10 -41 -36 -46
-91 -20 -237 -3 -372 42 -60 20 -63 22 -63 52 1 35 34 184 44 194 11 11 57
-28 107 -93 58 -73 91 -94 148 -94 48 0 71 8 71 25 0 9 -13 11 -45 7 -66 -7
-98 11 -154 89 -73 100 -138 125 -161 63 -15 -40 -46 -186 -91 -432 -22 -123
-46 -240 -54 -261 -7 -21 -17 -81 -20 -132 -4 -52 -16 -118 -27 -147 -15 -39
-18 -65 -13 -100 6 -43 3 -52 -26 -91 -29 -41 -31 -46 -19 -81 10 -31 9 -54
-4 -132 -23 -134 -21 -167 7 -177 12 -5 25 -7 28 -5 3 2 17 -8 29 -21 16 -17
34 -25 55 -25 29 0 32 -3 35 -33 8 -80 3 -148 -14 -222 -16 -66 -19 -115 -17
-284 1 -139 -5 -278 -19 -433 -12 -126 -20 -248 -18 -271 l3 -42 13 40 c21 69
52 470 56 725 2 209 6 257 24 322 18 70 19 84 7 133 -7 30 -12 55 -11 55 0 0
33 -7 71 -15 138 -29 223 -19 715 86 129 28 242 54 250 58 22 12 14 50 -29
152 -22 49 -36 91 -32 93 3 2 89 9 191 16 102 7 187 14 189 16 1 1 -9 28 -23
60 -14 31 -26 60 -26 65 0 5 15 16 33 25 51 26 77 55 77 86 0 15 5 28 10 28
19 0 31 49 18 73 -7 12 -13 42 -13 67 0 38 -4 46 -27 58 -51 24 -188 -41 -188
-90 0 -10 -8 -30 -17 -44 -13 -21 -14 -32 -6 -55 8 -21 8 -32 -3 -46 -29 -38
-18 -60 40 -78 52 -16 54 -18 68 -70 l15 -52 -91 -7 c-50 -3 -176 -13 -279
-22 -103 -9 -191 -14 -194 -11 -3 4 -2 40 2 81 l7 74 34 7 c24 4 39 14 46 31
7 14 20 24 32 24 33 0 63 26 76 65 9 29 17 35 39 35 67 0 84 61 34 121 -19 22
-27 41 -24 61 l3 28 -77 0 c-75 0 -77 1 -72 23 3 12 22 99 43 192 20 94 38
171 39 173 1 1 42 -4 90 -13 48 -8 120 -15 159 -15 39 0 93 -7 120 -15 27 -8
80 -15 118 -15 37 0 68 -4 68 -9 0 -5 -21 -35 -46 -66 -37 -44 -48 -67 -52
-103 -3 -26 -11 -56 -18 -67 -17 -24 -18 -87 -2 -103 17 -17 48 -15 48 3 0 8
-7 15 -15 15 -22 0 -19 52 4 77 15 15 18 30 15 59 -5 34 0 45 36 89 46 54 70
96 70 120 0 12 -15 15 -83 15 -45 0 -109 7 -140 15 -32 8 -85 15 -119 15 -33
0 -107 8 -165 17 -76 12 -106 14 -111 6 -4 -7 -20 -73 -36 -147 -27 -128 -36
-150 -51 -126 -13 21 -54 10 -77 -20 l-24 -30 -78 166 c-70 150 -78 171 -72
208 19 115 19 126 2 145 -15 17 -77 40 -148 55 l-28 6 0 188 0 188 58 18 c130
39 178 105 77 106 -48 0 -79 22 -93 65 -19 57 5 78 95 83 38 2 74 9 81 14 8 7
12 45 12 123 l0 112 163 6 c172 7 298 21 357 39 83 25 132 95 109 156 -15 40
-68 90 -108 103 -20 6 -46 22 -59 35 -15 16 -34 24 -56 24 -62 0 -77 51 -29
93 18 16 33 38 33 49 0 18 -5 19 -97 12 -84 -6 -96 -5 -87 7 120 149 162 239
110 239 -7 0 -51 -25 -97 -55 -88 -56 -173 -85 -254 -85 l-40 0 25 20 c14 11
44 30 68 42 25 14 41 29 40 38 -6 30 -187 66 -203 40z m132 -38 c12 -7 9 -13
-18 -30 -47 -29 -93 -78 -85 -91 10 -16 117 -13 196 5 49 11 92 30 145 65 41
27 75 45 75 40 0 -9 -71 -112 -106 -154 -13 -16 -24 -40 -24 -54 0 -24 0 -24
86 -21 l85 3 -34 -30 c-83 -73 -108 -79 -206 -49 -29 8 -60 14 -69 12 -9 -2
-28 8 -42 21 -51 48 -124 63 -199 41 -39 -11 -101 -66 -101 -89 0 -10 8 -7 28
12 55 53 152 73 210 43 55 -29 102 -103 102 -163 0 -43 -38 -110 -77 -134 -45
-28 -133 -31 -180 -6 -37 20 -83 66 -83 83 0 7 22 15 50 19 27 4 53 11 56 16
8 13 -12 36 -60 71 -43 31 -66 36 -66 13 0 -8 4 -15 9 -15 4 0 21 -10 35 -21
34 -27 21 -39 -40 -39 -23 0 -55 -5 -73 -11 -25 -9 -31 -17 -31 -38 0 -16 9
-36 20 -46 14 -13 18 -25 13 -48 -4 -21 -1 -33 9 -41 8 -6 18 -22 22 -36 6
-20 -1 -16 -36 22 -24 27 -60 55 -80 63 -73 30 -128 -18 -128 -111 0 -19 -4
-34 -9 -34 -17 0 -103 102 -121 143 -22 50 -35 127 -23 127 5 0 20 -11 33 -25
27 -29 50 -33 50 -7 0 32 -29 125 -43 140 -13 12 -12 17 5 34 12 12 17 26 13
40 -10 30 -8 89 3 100 6 6 17 -13 32 -52 12 -33 27 -63 32 -66 17 -11 37 17
58 80 11 35 35 82 52 106 l32 43 20 -63 c12 -35 27 -66 34 -68 17 -5 110 94
124 131 7 20 14 25 21 18 19 -19 45 -12 68 20 16 22 27 29 43 25 11 -2 32 2
46 10 26 15 97 13 127 -4z m-526 -1867 l44 -15 0 -295 c0 -222 3 -297 13 -307
9 -9 12 -9 12 5 0 13 9 17 45 17 25 0 62 7 83 15 36 16 37 15 55 -9 17 -24 20
-25 45 -12 24 12 35 12 85 0 77 -20 106 -7 127 58 18 56 55 98 86 98 26 0 38
18 48 72 4 20 15 46 24 59 16 19 21 20 41 9 21 -11 23 -17 17 -59 -3 -25 -7
-55 -8 -66 -3 -18 4 -20 65 -23 58 -3 67 -5 67 -22 0 -10 14 -32 31 -49 20
-20 29 -39 27 -53 -3 -20 -9 -23 -43 -22 -22 0 -58 3 -80 7 l-40 7 33 -17 c37
-19 44 -60 15 -88 -16 -17 -39 -17 -103 1 l-25 7 25 -21 c20 -17 23 -24 14
-39 -6 -10 -18 -19 -27 -21 -32 -6 -94 19 -136 54 l-43 37 -121 -7 c-388 -21
-384 -21 -391 0 -37 122 -53 335 -41 557 4 75 8 137 9 137 1 0 22 -7 47 -15z
m168 -45 c78 -15 161 -12 215 6 26 9 48 15 50 13 7 -9 56 -122 54 -124 -43
-36 -183 -64 -320 -65 l-98 0 0 58 c0 91 10 133 29 127 9 -2 40 -9 70 -15z
m368 -203 l30 -62 -52 -23 c-92 -41 -171 -61 -302 -77 -70 -9 -129 -17 -131
-20 -11 -11 115 -15 185 -5 129 17 302 77 303 104 1 11 39 -53 40 -66 0 -3
-16 -12 -35 -18 -43 -14 -82 -60 -91 -106 -10 -54 -33 -65 -105 -48 -40 9 -66
11 -78 4 -20 -10 -41 4 -41 27 0 18 -10 16 -61 -7 -24 -11 -63 -20 -86 -20
l-43 0 0 164 0 164 98 -5 c103 -6 239 14 291 42 14 8 31 14 36 15 6 0 25 -28
42 -63z m-603 -346 c22 -100 35 -124 71 -131 17 -4 130 0 252 8 l222 15 40
-32 c22 -17 53 -36 70 -42 34 -12 34 -14 22 -111 -4 -31 -3 -67 1 -79 8 -21
11 -22 118 -15 66 4 110 3 110 -2 0 -5 -17 -12 -38 -16 -21 -3 -88 -24 -148
-47 -60 -23 -154 -55 -209 -73 -93 -29 -110 -31 -240 -30 -129 1 -145 4 -205
29 -48 21 -89 30 -155 34 l-89 6 3 47 c1 26 -2 55 -8 65 -7 15 -3 29 21 63 27
41 29 50 24 100 -3 30 -2 62 4 70 6 9 10 10 10 3 0 -28 198 -63 354 -63 119 0
201 16 264 50 l37 21 -35 -5 c-19 -3 -69 -12 -110 -22 -81 -17 -291 -15 -380
6 -115 26 -131 32 -125 49 4 9 13 70 20 136 8 66 20 138 28 160 8 22 20 76 28
120 l14 80 6 -160 c4 -88 14 -193 23 -234z m1363 72 c16 -41 -92 -86 -149 -62
-39 16 -31 30 33 56 65 27 107 29 116 6z m21 -95 c2 -11 -9 -25 -30 -38 -41
-25 -149 -28 -168 -5 -20 25 4 44 48 38 20 -2 55 2 77 10 49 18 69 17 73 -5z
m-28 -91 c0 -8 -23 -26 -51 -41 -47 -26 -53 -27 -94 -15 -39 11 -42 15 -33 34
8 18 19 22 76 23 36 1 68 4 70 7 11 10 32 5 32 -8z m-414 -372 c45 -122 69
-103 -208 -163 -504 -109 -557 -115 -718 -82 -52 11 -103 20 -112 20 -9 0 -28
11 -42 25 -14 14 -35 25 -47 25 -21 0 -21 3 -15 62 4 34 10 66 13 71 12 19
175 1 240 -27 52 -22 83 -27 190 -32 117 -5 136 -4 225 20 90 24 314 103 398
140 19 8 39 14 43 13 4 -1 19 -34 33 -72z"/>
<path d="M3237 4184 c-13 -13 -7 -55 8 -60 21 -9 47 15 43 40 -3 21 -37 34
-51 20z"/>
<path d="M3315 1913 c-11 -3 -63 -18 -115 -34 -93 -28 -307 -61 -341 -52 -10
3 -19 14 -21 25 -5 34 -31 44 -76 29 -38 -13 -106 -11 -166 4 -53 14 -24 -19
35 -38 45 -16 61 -17 99 -8 71 18 75 18 78 -7 6 -37 44 -45 152 -32 126 15
203 33 300 70 90 35 120 58 55 43z"/>
<path d="M1255 4669 c-65 -24 -128 -104 -156 -197 -9 -33 -16 -41 -30 -37 -42
14 -133 24 -162 18 -96 -18 -157 -100 -157 -212 -1 -44 -3 -47 -39 -64 -69
-32 -143 -165 -157 -280 -8 -64 13 -152 54 -234 l29 -57 -32 -45 c-50 -69 -69
-138 -62 -225 6 -84 45 -206 85 -272 29 -45 29 -46 16 -119 -7 -41 -22 -146
-33 -234 -11 -87 -38 -257 -60 -377 -44 -244 -91 -539 -91 -572 0 -27 23 -39
88 -48 l52 -7 0 -78 c0 -76 -1 -79 -23 -79 -24 0 -56 -20 -133 -85 -47 -40
-48 -40 -146 -45 -72 -4 -102 -10 -108 -20 -15 -23 -12 -36 15 -68 20 -24 22
-31 10 -36 -9 -3 -15 -18 -15 -36 0 -23 7 -35 32 -50 18 -11 45 -20 61 -20 19
0 27 -5 27 -18 0 -31 22 -42 79 -42 63 0 139 18 189 44 19 10 36 15 39 12 3
-3 -4 -219 -17 -480 -14 -301 -18 -481 -12 -491 16 -30 22 39 46 534 l22 474
38 32 c49 41 55 72 56 288 l0 167 24 0 c14 0 37 5 52 10 l27 11 -7 107 c-14
229 -36 501 -47 581 -9 65 -14 80 -21 66 -9 -15 5 -274 38 -666 5 -63 4 -67
-18 -73 -30 -8 -211 -6 -268 2 l-45 7 3 45 c4 57 41 293 92 575 21 121 46 281
55 355 34 281 83 494 127 560 46 68 48 65 134 -207 96 -303 106 -321 151 -269
53 62 87 323 57 429 -8 24 13 21 27 -5 6 -12 29 -110 50 -217 22 -108 48 -225
59 -261 l19 -65 116 -59 c74 -38 128 -72 150 -97 19 -22 35 -42 35 -47 0 -24
-47 -76 -91 -99 -28 -16 -63 -37 -76 -48 l-25 -21 26 -159 c32 -198 38 -312
16 -306 -8 2 -47 6 -87 9 -61 4 -77 1 -108 -17 -45 -26 -82 -26 -163 -1 -79
25 -106 25 -157 1 l-40 -19 65 5 c50 3 79 0 124 -16 75 -27 131 -27 181 0 30
17 51 20 97 17 32 -2 59 -6 61 -9 3 -2 55 -353 116 -779 62 -426 117 -797 124
-825 l12 -50 3 55 c2 32 -43 372 -108 819 l-110 764 21 15 c20 14 21 21 16
101 -4 47 -18 153 -31 236 -14 82 -24 150 -23 150 100 53 150 93 174 138 35
67 -15 124 -189 212 -126 65 -108 28 -174 355 -40 198 -48 228 -72 253 -18 19
-34 27 -49 24 -19 -3 -21 0 -17 22 3 14 8 46 12 71 7 43 9 45 50 52 23 4 50
11 59 16 13 8 21 4 36 -14 22 -29 62 -31 90 -7 12 12 35 18 65 18 41 0 47 3
50 23 5 34 -21 67 -73 92 -38 18 -57 22 -102 17 -63 -7 -76 -18 -68 -63 5 -29
2 -33 -26 -43 -18 -6 -56 -11 -85 -11 -57 0 -64 -5 -38 -25 15 -11 15 -23 -4
-156 -31 -216 -36 -266 -23 -253 13 12 41 134 41 179 0 22 3 26 12 17 35 -35
-13 -402 -52 -402 -7 0 -40 88 -81 215 -12 39 -24 75 -26 81 -2 6 4 14 14 16
17 5 20 23 31 159 17 223 18 219 -23 259 -39 37 -47 28 -14 -14 21 -27 21 -29
9 -202 -8 -96 -16 -177 -20 -179 -3 -2 -19 35 -34 81 -15 47 -37 95 -47 105
-48 48 -116 -45 -155 -210 -10 -45 -22 -81 -26 -81 -6 0 -14 20 -54 134 -52
149 -40 272 35 358 l40 45 -34 65 c-46 87 -67 170 -59 233 14 106 73 216 137
255 l32 20 16 -31 c15 -30 16 -28 15 73 -1 99 1 107 27 145 15 22 39 45 53 52
34 15 128 14 191 -3 l52 -14 16 57 c50 171 158 238 276 169 56 -33 139 -115
184 -184 41 -61 41 -64 15 -64 -11 0 -20 -4 -20 -10 0 -5 13 -10 29 -10 16 0
44 -6 62 -14 118 -49 162 -168 102 -277 -14 -27 -23 -52 -20 -55 12 -13 34 5
52 42 47 100 38 177 -31 253 -25 27 -59 54 -77 60 -25 8 -45 30 -82 87 -55 84
-145 173 -206 204 -48 25 -114 33 -154 19z m130 -1143 c19 -15 35 -31 35 -37
0 -16 -28 -10 -106 23 -52 22 -71 34 -62 40 24 16 96 2 133 -26z m-108 -26
c46 -27 52 -37 27 -47 -22 -8 -40 5 -66 46 -24 37 -22 37 39 1z m-549 -1987
l-5 -197 -49 -44 c-66 -58 -154 -99 -243 -112 -62 -9 -77 -8 -89 4 -21 21 -8
32 46 39 27 3 64 13 83 21 34 16 34 16 -36 11 -38 -3 -91 -8 -116 -11 -36 -4
-50 -1 -70 15 -36 30 -17 39 100 48 73 6 106 12 109 22 3 10 -15 12 -98 10
-102 -4 -102 -4 -127 25 -33 38 -20 46 80 46 90 0 98 4 184 76 50 43 71 54 98
54 l35 0 0 95 0 95 51 0 52 0 -5 -197z"/>
<path d="M8424 4625 c-33 -14 -54 -51 -54 -95 0 -45 -19 -47 -55 -5 -25 30
-39 38 -65 38 -48 0 -70 -31 -70 -100 0 -49 -2 -54 -17 -48 -47 19 -75 23
-110 15 -46 -11 -76 -44 -67 -74 7 -22 65 -89 72 -82 2 2 -7 23 -20 45 -18 32
-21 44 -12 58 15 24 84 29 122 9 45 -23 67 -3 64 60 -1 27 1 57 4 66 9 29 44
21 90 -22 24 -22 48 -40 53 -40 17 0 41 44 41 75 0 96 92 99 140 4 27 -51 67
-55 100 -8 24 32 57 37 70 9 42 -91 52 -95 140 -52 34 17 69 28 81 25 26 -7
54 -44 75 -101 24 -67 40 -79 119 -96 103 -22 126 -64 90 -167 -29 -80 5 -129
99 -145 59 -9 95 -31 96 -56 0 -5 -22 -23 -50 -40 -62 -41 -77 -72 -57 -120
12 -28 30 -43 88 -75 77 -41 106 -76 94 -113 -10 -31 -54 -79 -96 -106 -77
-48 -86 -98 -29 -165 20 -25 31 -31 39 -23 9 8 7 17 -7 35 -52 67 -50 88 12
124 54 32 81 61 101 109 29 68 0 119 -95 166 -63 31 -80 49 -80 81 0 20 8 34
28 46 49 30 82 66 82 89 0 40 -25 55 -136 83 -22 6 -49 20 -59 30 -16 19 -16
23 -1 67 9 26 16 67 16 92 0 62 -45 107 -118 117 -64 9 -98 34 -106 80 -8 43
-66 110 -102 119 -18 5 -46 -2 -91 -24 -36 -16 -69 -30 -74 -30 -4 0 -14 18
-20 41 -9 27 -22 45 -41 55 -32 17 -49 11 -87 -30 -14 -14 -28 -26 -32 -26 -4
0 -18 19 -32 43 -35 60 -84 83 -133 62z"/>
<path d="M5480 4594 c-104 -34 -121 -74 -32 -74 15 0 50 -11 77 -23 l50 -24
-57 -6 c-93 -11 -166 -44 -221 -99 -35 -35 -46 -53 -39 -60 8 -8 27 4 66 40
72 65 133 87 246 87 115 0 113 16 -8 76 -78 39 -89 47 -70 53 40 10 121 7 178
-8 30 -8 57 -13 59 -10 2 2 -20 15 -50 29 -41 19 -70 25 -119 24 -36 0 -72 -3
-80 -5z"/>
<path d="M6592 4408 c6 -46 144 -97 175 -65 39 38 -33 87 -128 87 -46 0 -50
-2 -47 -22z m111 -19 c20 -5 37 -15 37 -20 0 -6 -8 -8 -17 -5 -10 2 -37 8 -60
11 -24 4 -45 11 -49 16 -7 12 42 11 89 -2z"/>
<path d="M5973 4389 c-40 -12 -101 -82 -109 -126 -13 -68 19 -142 79 -187 39
-29 159 -30 201 -2 l29 18 -7 -40 c-3 -23 -17 -62 -31 -88 -30 -57 -31 -68 -5
-94 23 -23 82 -27 98 -7 6 7 17 40 24 72 13 57 15 60 46 63 42 4 77 -33 97
-102 24 -81 -10 -156 -95 -212 -22 -15 -44 -40 -50 -57 -14 -39 -31 -448 -19
-463 16 -19 -141 -234 -170 -234 -53 0 -113 91 -130 195 -21 124 -24 112 35
119 89 10 84 1 84 155 0 157 -15 351 -31 400 -11 31 -13 33 -48 27 -20 -3 -64
-17 -98 -31 -35 -14 -67 -25 -73 -25 -5 0 -10 15 -10 34 0 50 -20 56 -22 7 -1
-23 -2 -49 -2 -58 -1 -26 34 -21 131 18 46 18 85 31 87 28 2 -2 7 -15 11 -29
6 -25 3 -27 -61 -42 -63 -15 -69 -15 -80 0 -17 22 -35 4 -28 -26 8 -29 38 -29
110 3 32 14 59 23 62 21 8 -8 21 -209 22 -328 l0 -118 -39 0 c-33 0 -38 3 -34
19 3 11 17 21 36 25 42 8 22 29 -24 24 -30 -3 -34 -6 -34 -33 0 -20 -7 -34
-20 -41 -16 -8 -20 -19 -18 -57 3 -43 1 -47 -21 -47 -27 0 -42 -14 -51 -51 -5
-22 -11 -25 -37 -21 -32 5 -47 -8 -49 -43 0 -15 -28 -33 -117 -77 -64 -32
-132 -67 -151 -78 l-33 -21 7 -122 c9 -171 32 -407 39 -415 14 -13 62 18 166
111 60 54 110 94 110 90 0 -5 -20 -199 -44 -433 -60 -571 -61 -587 -46 -605 7
-8 26 -15 42 -15 16 0 27 -4 23 -9 -10 -17 -72 -339 -99 -512 -39 -254 -60
-664 -37 -724 11 -28 21 39 21 147 0 248 32 526 101 876 22 111 37 207 34 212
-4 6 10 10 34 10 73 0 193 21 265 47 39 14 176 70 304 125 267 113 227 112
351 8 77 -65 116 -88 128 -76 14 14 -68 600 -106 756 -17 68 -101 383 -117
437 -5 19 -1 23 33 28 226 40 412 79 430 91 12 7 35 14 51 14 35 0 58 17 66
50 5 22 -5 291 -19 488 l-5 72 46 0 c39 0 51 5 81 35 30 30 34 39 31 77 -3 38
0 45 25 61 50 31 69 108 46 190 -12 45 -48 71 -89 65 -25 -4 -31 0 -39 22 -20
58 -75 86 -134 69 -27 -8 -35 -5 -59 20 -81 83 -179 10 -182 -136 0 -35 -2
-63 -2 -63 -1 0 -18 7 -39 16 -53 22 -124 4 -171 -43 -39 -39 -44 -78 -15
-114 17 -21 27 -24 73 -21 29 2 78 4 108 5 l55 2 1 -42 c0 -23 6 -48 13 -57
27 -32 151 -33 151 -1 0 11 -11 13 -50 8 -61 -7 -80 6 -80 56 0 55 -18 74 -69
73 -24 -1 -66 -6 -93 -13 -52 -14 -72 -9 -92 24 -14 22 -1 44 45 75 30 21 42
23 99 19 36 -3 72 -8 82 -12 10 -4 16 -2 15 7 -6 144 21 213 83 213 29 0 39
-7 64 -43 25 -35 31 -55 34 -113 5 -88 -10 -131 -46 -127 -36 4 -61 45 -69
108 -5 40 -8 49 -14 35 -25 -65 3 -148 57 -171 32 -13 38 -13 59 0 34 22 48
77 42 160 -2 39 -6 78 -8 86 -3 12 6 15 40 15 40 0 47 -3 65 -34 26 -44 27
-143 3 -188 -22 -41 -60 -53 -87 -28 -27 24 -26 1 1 -26 23 -23 60 -20 91 8
16 14 18 14 24 -3 4 -11 16 -29 27 -41 15 -17 18 -30 13 -59 -11 -57 -45 -84
-105 -84 -27 0 -53 -4 -56 -10 -3 -5 -1 -101 5 -212 21 -397 20 -397 -41 -398
-25 0 -26 1 -48 158 -13 86 -26 172 -28 190 -5 26 -2 32 12 32 15 0 17 7 11
65 -3 36 -9 94 -12 130 -11 111 -26 75 -22 -54 2 -87 0 -114 -8 -103 -10 13
-20 12 -83 -7 -76 -23 -226 -85 -350 -145 l-74 -35 -32 36 c-28 32 -33 35 -54
24 -20 -11 -25 -10 -38 8 -21 30 -47 26 -82 -14 l-31 -36 0 148 c1 81 5 179 9
216 9 67 10 69 74 128 84 76 105 126 88 202 -13 61 -41 110 -73 131 -71 46
-119 20 -137 -74 -10 -52 -15 -60 -34 -60 -45 0 -51 13 -28 66 15 33 21 66 20
104 -1 30 4 68 10 83 14 35 14 67 1 67 -5 0 -10 -9 -10 -20 0 -11 -15 -37 -33
-56 -67 -73 -192 -52 -236 39 -26 54 -26 77 -1 127 27 54 55 70 118 70 85 0
126 -31 141 -104 4 -16 13 -32 20 -34 21 -7 8 74 -17 107 -39 53 -130 80 -199
60z m1370 -477 c39 -42 29 -160 -16 -183 -18 -10 -24 -8 -45 16 -16 19 -22 35
-18 49 4 12 9 41 12 66 3 25 7 51 10 58 5 18 38 15 57 -6z m-331 -762 c39
-256 57 -222 -134 -259 -90 -17 -198 -36 -240 -43 -52 -8 -78 -16 -78 -25 0
-7 7 -13 15 -13 10 0 15 -10 15 -34 0 -38 36 -195 75 -331 35 -120 146 -797
133 -810 -2 -2 -46 32 -98 76 -51 43 -102 79 -112 79 -10 0 -125 -46 -255
-101 -131 -56 -268 -112 -304 -125 -71 -25 -198 -44 -293 -44 l-59 0 7 46 c3
26 6 54 6 63 0 14 14 16 112 13 61 -2 138 1 171 8 57 11 93 25 390 149 212 89
200 89 294 -1 43 -42 89 -81 102 -88 23 -12 22 -10 -8 28 -17 23 -60 69 -94
103 -60 59 -63 61 -107 57 -25 -3 -117 -35 -205 -72 -387 -163 -341 -150 -507
-153 l-148 -3 5 42 c19 156 95 905 95 934 0 50 -24 39 -28 -13 -3 -36 -9 -45
-63 -87 l-59 -46 0 53 c0 75 -30 339 -41 359 -5 10 -9 19 -9 21 0 2 36 20 80
41 71 34 80 41 80 66 0 38 9 42 41 19 33 -23 49 -18 49 14 0 45 12 67 35 67
19 0 24 -7 30 -47 9 -65 30 -105 77 -153 31 -31 48 -40 74 -40 41 0 83 47 194
212 41 61 81 114 88 116 7 2 15 -9 18 -27 7 -34 24 -40 44 -16 19 23 38 18 55
-15 9 -17 24 -30 34 -30 10 0 72 25 137 57 149 70 313 134 339 130 18 -2 23
-20 47 -177z m-1434 -265 c1 -25 12 -114 23 -198 30 -216 33 -195 -35 -255
-33 -29 -63 -49 -67 -45 -4 5 -14 111 -23 237 -15 205 -15 231 -2 245 9 8 18
13 20 10 2 -2 12 -69 21 -149 18 -162 34 -257 46 -280 6 -10 8 1 9 30 0 52
-39 402 -46 409 -3 3 44 40 52 41 0 0 2 -20 2 -45z"/>
<path d="M6890 3286 c0 -42 71 -356 80 -356 12 0 -16 204 -45 338 -3 12 -12
22 -20 22 -8 0 -15 -2 -15 -4z"/>
<path d="M6815 3218 c19 -124 36 -217 47 -253 12 -40 12 -40 16 -10 3 25 -17
189 -34 278 -3 15 -12 27 -21 27 -12 0 -13 -8 -8 -42z"/>
<path d="M6201 2783 c-88 -46 -93 -182 -9 -237 69 -45 176 -16 211 56 17 35
17 41 3 91 -21 72 -52 99 -118 104 -38 3 -63 -1 -87 -14z m140 -34 c16 -11 36
-34 44 -50 14 -26 14 -32 -2 -65 -45 -93 -158 -106 -206 -24 -28 46 -22 87 17
126 28 28 42 34 76 34 26 0 53 -8 71 -21z"/>
<path d="M6211 2714 c-26 -34 -27 -78 -1 -104 42 -42 103 -36 135 13 17 27 9
66 -22 99 -26 29 -87 24 -112 -8z m113 -23 c16 -18 17 -21 1 -45 -22 -34 -50
-41 -80 -22 -27 18 -31 36 -15 67 14 26 71 26 94 0z"/>
<path d="M8310 4354 c-96 -42 -145 -155 -109 -251 50 -134 268 -152 348 -29
l25 37 75 -3 c67 -3 76 -5 79 -23 2 -13 -13 -36 -43 -65 -71 -69 -57 -120 36
-130 29 -3 54 -10 56 -16 2 -7 -14 -33 -37 -58 -32 -38 -38 -51 -30 -66 21
-40 55 -37 157 12 51 24 66 27 83 18 37 -20 53 -105 31 -163 -13 -33 -69 -96
-106 -119 -23 -13 -25 -18 -11 -18 32 0 90 39 120 82 54 76 46 212 -14 243
-39 20 -41 20 -132 -21 -59 -26 -83 -33 -91 -25 -8 8 -3 19 20 40 37 34 49 70
34 100 -9 15 -23 21 -63 23 -78 5 -84 25 -25 81 54 50 62 90 26 123 -18 16
-34 19 -98 16 -91 -3 -111 8 -116 62 -4 45 -12 56 -26 36 -14 -22 -3 -80 21
-105 l21 -22 -28 -33 c-98 -117 -293 -53 -293 98 0 50 41 113 92 142 60 34
140 19 201 -38 36 -35 35 -11 -3 31 -46 53 -132 70 -200 41z"/>
<path d="M5589 4337 c-48 -31 -83 -105 -74 -155 18 -107 107 -164 217 -141 63
14 98 54 97 112 l-1 42 -12 -40 c-16 -54 -63 -85 -128 -85 -58 0 -98 20 -123
63 -36 60 -13 152 45 182 37 19 103 19 139 0 28 -14 61 -68 61 -99 0 -9 7 -16
16 -16 13 0 15 7 11 36 -13 79 -70 124 -158 124 -41 0 -65 -6 -90 -23z"/>
<path d="M1370 4305 c-55 -18 -95 -48 -86 -64 5 -7 21 -3 54 14 68 36 131 34
176 -5 109 -96 73 -255 -61 -267 -58 -6 -104 11 -156 57 -43 37 -41 14 2 -34
73 -80 220 -74 278 12 12 18 23 38 26 45 4 14 175 -130 242 -205 71 -79 101
-149 77 -184 -38 -57 -156 -38 -430 70 -79 31 -147 56 -150 56 -4 -1 4 -10 17
-21 23 -19 24 -21 12 -89 -6 -38 -11 -77 -11 -87 0 -39 30 13 41 72 6 33 12
61 13 63 2 1 36 -11 75 -28 150 -61 262 -92 343 -94 69 -1 79 2 103 24 24 22
26 31 23 76 -7 80 -80 170 -264 325 -73 62 -82 73 -87 111 -3 23 -18 59 -34
82 -50 71 -123 97 -203 71z"/>
<path d="M8060 4236 c-258 -112 -390 -208 -406 -293 -13 -68 42 -137 119 -148
43 -6 453 45 557 70 l55 13 -65 1 c-36 1 -167 -13 -292 -29 -124 -17 -232 -28
-240 -26 -7 2 -26 7 -41 10 -31 7 -67 58 -67 96 0 17 19 43 63 85 48 47 90 75
192 126 72 35 154 74 183 86 51 21 70 44 35 42 -10 0 -52 -15 -93 -33z"/>
<path d="M5953 4229 c-13 -13 -6 -46 13 -53 19 -7 35 25 23 47 -12 20 -21 21
-36 6z"/>
<path d="M5707 4213 c-8 -14 12 -53 27 -53 16 0 31 34 21 50 -7 12 -42 13 -48
3z"/>
<path d="M1272 4180 c-28 -23 -141 -60 -183 -60 -19 0 -29 -5 -29 -15 0 -8 9
-15 21 -15 15 0 19 -5 15 -17 -3 -10 -10 -46 -17 -80 -12 -64 -22 -73 -33 -27
-10 38 -53 99 -81 114 -96 52 -175 -45 -175 -215 0 -57 5 -82 26 -124 15 -28
28 -50 30 -48 3 2 -2 30 -11 63 -37 144 1 304 74 304 55 0 103 -66 131 -177
15 -62 36 -55 50 15 7 31 19 88 28 125 l17 69 51 17 c62 21 100 44 114 71 13
25 2 25 -28 0z"/>
<path d="M5382 4140 c-174 -72 -257 -145 -257 -226 0 -51 26 -91 76 -117 28
-15 49 -17 124 -13 138 9 525 92 540 116 7 11 -31 6 -265 -40 -248 -49 -333
-57 -383 -36 -43 17 -71 70 -61 111 14 56 171 161 307 205 20 6 37 18 37 26 0
21 -15 17 -118 -26z"/>
<path d="M8395 4110 c-9 -14 3 -47 20 -53 18 -7 38 17 33 40 -4 20 -42 30 -53
13z"/>
<path d="M2291 4061 c-14 -25 6 -41 62 -52 50 -9 97 -1 97 15 0 18 -82 56
-118 56 -20 0 -35 -7 -41 -19z m79 -21 c13 -9 13 -10 0 -9 -8 0 -24 4 -35 9
l-20 9 20 0 c11 0 27 -4 35 -9z"/>
<path d="M1437 4063 c-11 -11 -8 -51 5 -59 6 -4 19 3 30 16 14 17 16 26 7 36
-12 15 -31 18 -42 7z"/>
<path d="M1265 3932 c-35 -35 146 -84 195 -52 11 7 3 10 -30 10 -25 0 -71 11
-102 24 -32 13 -60 21 -63 18z"/>
<path d="M2494 3846 c-63 -29 -96 -68 -85 -99 5 -12 16 -24 26 -25 22 -5 125
100 125 128 0 25 -4 25 -66 -4z m-4 -56 c-37 -31 -50 -36 -50 -20 0 11 58 50
75 50 5 0 -6 -13 -25 -30z"/>
<path d="M8255 3813 c-8 -35 -24 -238 -25 -316 l0 -59 29 7 c27 6 29 4 40 -40
15 -60 83 -133 158 -172 l55 -28 -6 -129 c-3 -71 -9 -146 -12 -167 -5 -31 -3
-39 9 -39 21 0 26 27 33 200 l7 155 -44 21 c-71 35 -128 82 -159 131 -39 61
-39 79 3 87 46 8 105 -8 136 -38 30 -29 51 -34 51 -12 0 24 -56 63 -110 76
-45 11 -91 9 -142 -6 -15 -4 -16 11 -11 176 6 174 3 211 -12 153z"/>
<path d="M2718 3769 c-10 -5 -18 -20 -18 -33 0 -52 68 -63 81 -13 12 44 -23
70 -63 46z m38 -47 c-22 -5 -30 3 -21 18 5 8 11 7 22 -2 15 -12 14 -13 -1 -16z"/>
<path d="M2817 3732 c-20 -22 -22 -43 -5 -60 16 -16 65 -15 71 1 4 10 -2 13
-18 9 -26 -5 -43 14 -26 31 8 8 14 8 23 -1 17 -17 28 -15 28 7 0 33 -47 42
-73 13z"/>
<path d="M850 3670 c-28 -27 -50 -56 -50 -64 0 -18 58 -68 74 -63 12 4 40 80
51 140 10 53 -14 49 -75 -13z m32 -45 c-14 -40 -18 -43 -31 -30 -13 13 -12 18
14 45 16 16 30 30 31 30 2 0 -4 -20 -14 -45z"/>
<path d="M2837 3602 c-10 -10 -17 -28 -17 -40 0 -21 34 -52 57 -52 35 0 58 71
31 98 -18 18 -53 15 -71 -6z m59 -27 c18 -18 10 -35 -17 -35 -24 0 -37 29 -18
41 18 11 18 11 35 -6z"/>
<path d="M5092 3609 c-13 -5 -31 -26 -40 -48 -15 -35 -22 -40 -59 -46 -56 -8
-93 -51 -93 -106 0 -34 -3 -39 -23 -39 -13 0 -33 -10 -45 -23 -58 -61 12 -237
94 -237 15 0 24 -6 24 -15 0 -32 30 -73 65 -89 39 -19 68 -15 101 16 12 11 24
16 27 11 2 -4 42 -125 87 -268 46 -143 89 -270 97 -281 17 -27 39 -33 81 -22
44 12 40 24 -6 20 -38 -4 -39 -3 -59 45 -11 26 -55 155 -97 286 -42 130 -81
237 -86 237 -5 0 -7 7 -4 15 9 22 -4 18 -38 -10 -75 -63 -167 8 -136 107 9 31
12 33 52 30 27 -2 46 1 53 10 16 20 26 58 15 58 -5 0 -12 -9 -15 -20 -4 -15
-14 -20 -40 -20 -29 0 -41 7 -65 36 -53 64 -69 167 -32 204 11 11 33 20 50 20
26 0 30 -3 30 -29 0 -81 70 -201 117 -201 32 0 72 38 78 74 8 42 -9 108 -34
130 -19 17 -19 17 -6 -21 17 -47 18 -85 4 -117 -24 -52 -63 -37 -101 38 -57
113 -15 257 66 226 23 -8 86 -82 86 -101 0 -4 5 -20 12 -36 6 -15 11 -31 10
-35 -3 -14 10 -8 61 24 42 27 60 32 104 32 60 -1 93 -22 93 -60 0 -28 -35 -54
-73 -54 -47 0 -115 -21 -133 -42 -18 -19 -18 -22 10 -89 12 -28 -20 -49 -75
-49 -37 0 -49 -4 -49 -15 0 -12 13 -15 55 -15 46 0 60 4 80 25 29 28 31 45 9
87 -10 19 -12 34 -6 40 12 12 77 27 118 28 36 0 81 32 94 66 15 39 -5 73 -56
96 -62 27 -124 19 -175 -22 l-37 -29 -6 33 c-9 49 -61 122 -100 140 -38 18
-51 19 -84 5z m-177 -296 c3 -16 18 -46 32 -67 28 -43 25 -78 -9 -100 -35 -22
-98 66 -98 137 0 38 15 57 46 57 16 0 24 -8 29 -27z"/>
<path d="M3350 3459 c0 -60 -13 -74 -69 -81 -14 -2 -26 -9 -29 -15 -7 -22 72
-16 101 7 22 17 25 28 23 63 -1 23 -7 51 -14 62 -10 17 -11 11 -12 -36z"/>
<path d="M2890 3487 c0 -7 13 -26 30 -42 l29 -28 -1 -141 c0 -94 -5 -152 -14
-175 -18 -43 -17 -90 2 -121 15 -24 15 -24 10 18 -3 30 2 57 15 85 16 35 19
67 19 194 l0 152 -31 36 c-31 35 -59 46 -59 22z"/>
<path d="M8771 3454 c-25 -32 -25 -33 -5 -62 20 -29 50 -28 69 2 18 27 7 69
-20 80 -23 8 -21 9 -44 -20z m37 -33 c3 -16 -1 -22 -10 -19 -7 3 -15 15 -16
27 -3 16 1 22 10 19 7 -3 15 -15 16 -27z"/>
<path d="M4478 3443 c-65 -74 -50 -241 28 -314 28 -27 44 -18 24 14 -65 101
-80 200 -40 277 21 41 15 53 -12 23z"/>
<path d="M3437 3378 c-4 -16 -13 -28 -21 -28 -7 0 -19 -6 -26 -14 -6 -8 -28
-16 -47 -18 -55 -5 -55 -28 -1 -28 59 0 111 43 106 87 l-3 28 -8 -27z"/>
<path d="M4595 3384 c-38 -38 -46 -110 -18 -169 9 -19 23 -35 30 -35 17 0 16
18 -2 50 -19 34 -19 110 1 138 20 29 13 39 -11 16z"/>
<path d="M8716 3345 c-3 -13 -26 -38 -52 -56 l-46 -32 7 -124 c4 -68 11 -136
15 -151 13 -48 23 59 16 172 l-7 102 36 12 c34 13 65 53 65 87 0 25 -27 17
-34 -10z"/>
<path d="M9290 3320 c0 -5 16 -30 35 -56 29 -38 35 -54 35 -96 0 -41 -5 -54
-29 -79 -20 -19 -40 -29 -60 -29 -16 0 -41 -4 -55 -10 -34 -13 -34 -52 -1 -96
14 -18 25 -38 25 -44 0 -6 -20 -20 -45 -31 -49 -22 -75 -44 -75 -64 0 -7 18
-37 40 -66 35 -46 40 -59 35 -89 -5 -33 -4 -34 10 -16 27 36 23 69 -16 118
-38 48 -37 65 8 83 77 32 92 71 48 123 -14 17 -25 34 -25 40 0 12 24 22 55 22
55 0 103 45 119 111 8 38 -19 119 -53 157 -30 32 -51 41 -51 22z"/>
<path d="M5263 3103 c3 -10 8 -31 12 -48 9 -45 117 -348 128 -363 6 -7 14 -9
18 -5 8 8 -87 292 -131 389 -19 44 -36 60 -27 27z"/>
<path d="M8710 2992 c-18 -2 -32 -16 -50 -48 -65 -124 -171 -124 -213 -1 -9
27 -20 41 -28 38 -8 -2 -23 -3 -34 -3 -42 2 -229 -208 -358 -403 -127 -192
-217 -387 -217 -470 0 -48 54 -85 139 -92 49 -5 61 -9 61 -23 0 -31 39 -68 90
-85 60 -20 60 -20 28 -179 -20 -102 -20 -110 -4 -121 14 -11 15 -19 7 -56 -6
-24 -16 -113 -23 -196 -6 -84 -15 -157 -18 -163 -3 -6 -29 -16 -58 -24 l-51
-13 6 46 c3 25 27 190 54 366 43 290 48 357 23 332 -7 -7 -100 -614 -110 -719
-5 -49 -4 -68 5 -68 6 0 38 14 71 30 53 27 60 28 60 12 0 -10 -15 -200 -34
-422 -45 -530 -44 -495 -26 -495 12 0 17 25 25 119 7 79 14 121 22 124 21 6
28 -29 10 -43 -22 -16 -21 -25 1 -25 25 0 42 20 42 50 0 30 -17 50 -42 50 -10
0 -18 6 -18 13 0 6 18 223 40 481 22 258 40 498 40 533 l0 63 188 1 c103 0
196 4 207 8 32 13 -62 21 -242 21 -152 0 -164 1 -159 18 13 43 45 243 40 255
-2 7 -27 19 -53 26 -46 12 -91 42 -91 60 0 15 24 27 103 51 l77 24 123 -41
c67 -23 150 -47 185 -54 l63 -13 -5 -61 c-3 -33 -8 -179 -11 -325 -3 -146 -8
-331 -11 -412 l-7 -148 40 0 c22 0 129 16 237 35 109 19 198 35 200 35 1 0 0
-15 -2 -32 -3 -30 39 -638 54 -787 5 -42 11 -61 20 -61 8 0 14 8 14 17 0 40
-51 696 -60 773 -5 46 -6 87 -2 91 4 3 45 14 91 23 47 9 88 21 91 26 23 37
-100 672 -204 1060 -24 91 -47 173 -51 183 -5 13 -2 17 13 17 55 0 84 42 75
108 -6 44 -4 46 45 42 53 -4 79 64 52 135 -11 30 -38 29 -31 -1 3 -10 5 -37 5
-59 1 -40 1 -40 -38 -40 -49 -1 -66 -23 -66 -91 0 -53 -10 -69 -45 -76 -17 -3
-26 17 -71 144 -52 147 -172 437 -183 441 -3 2 -17 1 -31 -1z m-344 -71 c-30
-56 -147 -346 -172 -421 -23 -73 -26 -77 -62 -88 -31 -9 -20 -10 76 -9 61 1
112 1 112 -1 0 -1 -14 -31 -32 -65 -25 -50 -32 -77 -36 -143 l-4 -82 -81 -31
c-127 -50 -248 -52 -312 -5 -18 13 -18 19 -7 72 26 124 192 413 343 599 65 79
178 203 185 203 3 0 -2 -13 -10 -29z m319 -102 c-14 -68 -37 -187 -50 -263
-14 -77 -27 -141 -30 -144 -3 -3 -41 5 -84 17 -74 20 -88 21 -201 10 -67 -6
-124 -9 -126 -6 -3 3 6 27 19 54 14 26 49 109 80 183 30 74 69 167 87 205 l32
70 18 -40 c48 -110 138 -120 224 -24 25 28 46 56 46 62 0 6 2 8 5 5 3 -2 -6
-61 -20 -129z m114 -29 c116 -274 203 -557 285 -925 61 -271 116 -576 119
-655 l2 -64 -140 -28 c-204 -39 -464 -82 -469 -77 -2 2 0 123 5 269 4 146 8
349 8 453 l1 187 40 0 c93 0 219 80 265 169 15 29 8 26 -58 -32 -118 -103
-159 -117 -279 -97 -71 12 -272 72 -294 87 -5 5 -8 29 -6 55 l4 48 43 -44 c24
-23 57 -49 74 -56 42 -17 95 -5 123 28 13 15 37 34 54 42 16 9 36 31 45 49 10
21 29 39 56 51 58 26 70 66 31 107 l-21 23 20 23 c32 34 46 68 35 79 -6 6 -21
-6 -41 -36 -18 -25 -39 -46 -47 -46 -17 0 -18 -13 21 200 14 74 32 176 41 227
10 51 20 90 25 88 4 -3 30 -59 58 -125z m-271 -396 c115 -27 175 -56 170 -83
-2 -9 -23 -26 -47 -37 -33 -16 -48 -31 -59 -58 -10 -27 -22 -39 -41 -42 -15
-3 -34 -18 -43 -34 -34 -60 -98 -47 -186 36 -37 36 -42 45 -36 70 18 75 84
174 116 174 11 0 68 -12 126 -26z"/>
<path d="M8948 1429 c-24 -13 -23 -52 2 -74 12 -11 20 -13 20 -6 0 7 5 9 10 6
15 -9 40 14 40 36 0 10 -10 25 -22 33 -26 19 -27 19 -50 5z m42 -45 c0 -9 -5
-14 -12 -12 -18 6 -21 28 -4 28 9 0 16 -7 16 -16z"/>
<path d="M8673 1403 c-17 -6 -17 -58 0 -71 21 -18 71 0 75 27 6 40 -32 62 -75
44z m46 -49 c3 -16 1 -17 -13 -5 -19 16 -21 34 -3 29 6 -3 14 -13 16 -24z"/>
<path d="M9056 1354 c-19 -18 -19 -16 -6 -49 9 -22 14 -25 42 -21 49 8 60 34
28 66 -24 24 -43 25 -64 4z m52 -50 c-10 -10 -28 6 -28 24 0 15 1 15 17 -1 9
-9 14 -19 11 -23z"/>
<path d="M8816 1324 c-9 -8 -16 -20 -16 -25 0 -21 21 -49 36 -49 12 0 14 7 8
32 -6 29 -5 31 9 20 9 -8 13 -20 10 -28 -3 -8 1 -14 10 -14 34 0 27 60 -9 74
-24 9 -31 8 -48 -10z"/>
<path d="M7496 2903 c-3 -3 -6 -27 -6 -53 0 -32 -10 -66 -30 -107 -34 -68 -50
-85 -106 -113 -32 -15 -35 -19 -16 -20 67 -1 142 68 167 154 23 77 17 165 -9
139z"/>
<path d="M7381 2856 c-12 -48 -67 -116 -95 -116 -9 0 -16 -5 -16 -11 0 -15 48
-3 80 20 33 24 59 69 62 110 4 51 -18 48 -31 -3z"/>
<path d="M4382 2177 c1 -13 -9 -38 -26 -60 -15 -20 -26 -43 -23 -52 4 -8 -3
-34 -13 -57 -35 -76 -22 -87 20 -18 25 40 36 68 30 74 -6 6 2 22 20 43 33 37
35 45 20 74 -15 26 -32 24 -28 -4z"/>
<path d="M4230 2150 c0 -5 9 -19 19 -29 20 -20 20 -20 0 -45 -22 -28 -37 -110
-21 -119 5 -4 12 10 16 31 3 21 17 53 31 72 31 42 31 51 2 78 -25 23 -47 29
-47 12z"/>
<path d="M1187 1933 l-58 -26 -80 23 c-81 23 -150 23 -173 0 -8 -8 -1 -9 29
-5 29 5 61 0 119 -19 98 -32 119 -32 180 0 47 25 52 26 124 15 45 -7 79 -8 85
-2 12 12 1 17 -67 30 -83 15 -93 14 -159 -16z"/>
<path d="M2370 1610 c0 -19 -5 -30 -14 -30 -8 0 -24 -9 -37 -19 -21 -17 -22
-22 -11 -41 10 -16 10 -25 2 -35 -12 -15 -4 -59 14 -74 10 -8 11 -3 8 19 -2
17 1 37 8 45 7 8 10 26 6 39 -5 20 -1 27 21 38 22 10 29 21 31 51 2 28 0 37
-12 37 -11 0 -16 -9 -16 -30z"/>
<path d="M6715 1490 c3 -85 10 -222 15 -305 5 -82 10 -203 10 -269 0 -101 -2
-117 -14 -107 -8 7 2 -34 25 -99 21 -61 57 -177 79 -258 21 -81 43 -160 48
-177 8 -27 39 -45 35 -20 -5 36 -106 393 -123 437 -17 45 -20 77 -20 211 0
259 -27 642 -51 713 -6 20 -7 -21 -4 -126z"/>
<path d="M2235 1600 c-3 -5 -4 -14 -1 -19 3 -4 -6 -23 -19 -41 -28 -38 -32
-66 -11 -89 7 -9 18 -29 24 -46 l10 -30 1 32 c1 18 -4 43 -10 56 -9 21 -7 31
16 65 18 27 25 47 20 61 -7 23 -20 27 -30 11z"/>
<path d="M1050 1502 c-22 -18 -22 -19 -11 -172 6 -85 25 -362 41 -615 17 -253
33 -473 37 -490 l7 -30 7 40 c6 33 -46 970 -66 1182 -5 56 -3 62 15 68 23 7
28 35 6 35 -8 0 -24 -8 -36 -18z"/>
<path d="M3464 1408 c2 -50 14 -121 29 -178 16 -59 49 -264 87 -545 33 -247
65 -468 72 -490 l13 -40 3 40 c5 64 -115 928 -144 1040 -14 55 -27 132 -29
170 -3 88 -2 85 -19 85 -12 0 -14 -16 -12 -82z"/>
<path d="M6177 1323 c-3 -5 5 -44 19 -85 l26 -76 -25 -74 c-54 -157 -126 -478
-142 -638 -19 -194 -19 -210 0 -210 8 0 15 9 15 20 0 11 7 88 15 172 11 118
29 212 77 410 35 142 66 258 69 258 7 0 38 -153 98 -480 37 -197 94 -410 111
-410 9 0 -3 71 -30 170 -10 41 -38 176 -60 300 -55 299 -86 447 -117 544 -25
80 -45 116 -56 99z"/>
<path d="M8196 594 c-19 -18 -19 -24 -6 -58 5 -14 16 -26 25 -26 18 0 20 21 3
38 -9 9 -9 15 0 24 10 10 16 8 29 -5 15 -15 16 -21 5 -38 -12 -19 -11 -19 8
-9 38 21 16 90 -30 90 -10 0 -26 -7 -34 -16z"/>
<path d="M8468 589 c-30 -17 -16 -89 17 -89 18 0 20 21 3 38 -9 9 -9 15 0 24
10 10 16 8 29 -5 15 -15 16 -21 5 -38 -12 -19 -11 -19 8 -9 25 13 26 51 2 73
-21 19 -39 21 -64 6z"/>
<path d="M8798 579 c-21 -12 -24 -59 -6 -77 21 -21 29 -13 22 23 -5 28 -3 35
10 35 22 0 32 -28 17 -51 -14 -23 2 -25 24 -3 18 18 12 52 -13 72 -19 14 -31
15 -54 1z"/>
<path d="M8353 500 c-47 -19 -19 -100 31 -92 48 8 61 47 26 82 -22 22 -25 23
-57 10z m47 -45 c10 -12 10 -19 2 -27 -13 -13 -42 6 -42 28 0 19 24 18 40 -1z"/>
<path d="M8626 474 c-9 -8 -16 -22 -16 -30 0 -24 19 -54 35 -54 18 0 20 21 3
38 -19 19 6 40 27 22 18 -15 20 -36 3 -44 -7 -3 -4 -5 7 -3 13 1 21 11 23 28
6 49 -49 77 -82 43z"/>
<path d="M8916 474 c-21 -20 -20 -37 3 -65 23 -29 39 -19 23 16 -7 16 -8 26
-1 31 16 9 41 -18 35 -38 -3 -12 0 -18 7 -15 17 5 21 55 6 73 -15 19 -54 18
-73 -2z"/>
</g>
</svg>
