<?xml version="1.0" standalone="no"?>
<!DOCTYPE svg PUBLIC "-//W3C//DTD SVG 20010904//EN"
 "http://www.w3.org/TR/2001/REC-SVG-20010904/DTD/svg10.dtd">
<svg version="1.0" xmlns="http://www.w3.org/2000/svg"
 width="678.000000pt" height="614.000000pt" viewBox="0 0 678.000000 614.000000"
 preserveAspectRatio="xMidYMid meet">

<g transform="translate(0.000000,614.000000) scale(0.100000,-0.100000)"
fill="#000000" stroke="none">
<path d="M988 5941 c-167 -54 -281 -186 -378 -441 l-36 -95 -55 -19 c-43 -16
-74 -39 -155 -120 -142 -141 -191 -225 -152 -264 19 -19 111 -14 170 8 29 11
98 44 152 75 54 30 102 52 106 50 4 -2 10 -43 13 -91 4 -64 0 -110 -15 -178
-30 -141 -32 -162 -17 -171 8 -6 25 6 50 35 21 24 40 42 43 39 10 -9 -20 -114
-49 -172 -28 -56 -93 -127 -117 -127 -6 0 -27 5 -45 12 -46 17 -54 1 -39 -66
16 -66 39 -109 73 -136 24 -19 36 -21 83 -16 75 9 191 37 186 45 -3 4 -53 3
-113 -1 -66 -5 -116 -5 -129 1 -22 10 -64 84 -64 113 0 12 10 16 35 16 19 0
50 10 69 21 91 57 184 307 131 351 -13 11 -21 9 -45 -9 -17 -12 -30 -19 -30
-17 0 3 7 35 16 73 12 52 15 97 11 192 l-6 125 39 33 c42 37 59 71 40 83 -6 4
26 16 73 28 46 12 121 37 166 56 44 19 81 31 81 27 0 -4 -31 -51 -70 -104
-113 -158 -102 -146 -127 -130 -12 8 -36 13 -54 11 -45 -4 -70 -49 -76 -136
-5 -81 15 -129 66 -154 31 -15 36 -25 52 -87 32 -125 95 -215 184 -262 l45
-24 0 -79 c0 -62 -5 -86 -22 -117 -32 -57 -45 -56 -63 3 -20 70 -48 98 -97 98
-52 0 -80 -28 -68 -69 5 -17 11 -34 14 -39 3 -5 -26 -48 -64 -95 -37 -47 -87
-118 -110 -156 -103 -173 -193 -451 -147 -451 9 0 23 37 41 102 27 106 110
291 167 375 44 65 122 163 131 163 3 0 39 -23 79 -50 119 -82 217 -99 325 -59
32 12 77 40 102 62 39 37 45 39 54 24 5 -10 35 -48 66 -85 31 -38 89 -106 128
-152 99 -118 454 -591 454 -606 0 -11 -91 -41 -205 -67 -82 -19 -48 -34 47
-21 l70 10 -5 -33 c-7 -39 -59 -145 -74 -150 -15 -5 -184 250 -231 349 -47 98
-71 174 -80 260 -5 48 -11 64 -24 66 -49 9 1 -208 86 -376 36 -72 141 -233
219 -337 30 -40 42 -62 34 -66 -17 -9 -199 -43 -450 -84 -259 -43 -295 -53
-182 -54 94 -1 548 71 668 105 26 8 22 -29 -9 -65 -28 -34 -61 -39 -124 -21
-41 12 -89 -1 -115 -30 -23 -25 -62 -25 -100 0 -55 36 -93 26 -136 -36 -36
-52 -50 -54 -137 -19 -84 34 -108 32 -148 -11 -19 -19 -34 -42 -34 -50 0 -24
28 -15 52 16 26 36 61 39 117 10 22 -11 58 -22 81 -26 40 -7 43 -5 89 45 26
28 54 51 62 51 8 0 29 -9 47 -20 45 -28 77 -25 135 12 34 22 52 28 55 20 7
-23 74 -116 150 -210 43 -53 71 -97 66 -102 -29 -27 -574 -110 -864 -130 -144
-10 -495 0 -532 15 -14 6 -58 79 -58 96 0 3 44 5 98 6 174 0 299 50 413 164
73 73 122 159 141 251 11 51 9 68 -10 150 -12 51 -22 101 -22 112 0 23 -40 96
-54 96 -6 0 -6 4 1 11 6 6 9 18 6 25 -4 11 6 14 41 14 87 0 143 42 118 87 -7
12 -4 24 11 44 19 26 19 31 6 66 -16 42 -49 58 -49 24 0 -11 5 -23 10 -26 6
-3 10 -15 10 -25 0 -24 -15 -27 -143 -34 l-97 -4 -45 92 c-25 50 -45 99 -45
108 0 31 49 58 105 58 66 0 176 -33 200 -60 18 -20 18 -21 -1 -40 -19 -19 -22
-19 -99 -4 -67 13 -176 12 -163 -1 7 -7 202 -45 230 -45 41 0 64 15 76 47 20
59 -26 99 -150 128 -88 21 -127 19 -181 -8 l-46 -24 -19 44 -19 43 -56 -71
c-31 -40 -57 -65 -57 -55 0 20 -57 22 -103 2 -42 -18 -71 -50 -149 -166 -137
-203 -179 -257 -242 -313 -46 -41 -74 -75 -97 -122 -30 -61 -31 -70 -27 -149
6 -108 43 -189 125 -270 61 -61 170 -122 235 -132 35 -6 38 -9 38 -41 0 -52
25 -102 57 -114 15 -6 85 -13 156 -16 70 -3 127 -7 127 -9 0 -2 -9 -23 -21
-46 -21 -43 -21 -43 -77 -44 -69 -2 -151 -32 -223 -82 -62 -43 -70 -64 -38
-98 63 -67 698 -321 778 -312 24 3 26 7 25 49 0 34 -9 62 -35 105 -33 56 -208
244 -258 277 -24 16 -24 17 -10 74 8 32 13 64 13 71 -1 8 16 12 57 12 74 0
311 25 488 51 135 19 150 18 151 -15 0 -5 9 -39 20 -76 l20 -67 122 -6 c169
-7 328 -47 353 -87 9 -14 -78 -51 -271 -116 -164 -55 -389 -114 -432 -114 -22
0 -24 3 -18 33 16 83 88 189 152 225 16 9 15 16 -9 93 -44 139 -62 140 -34 2
l14 -62 -57 -58 c-58 -61 -95 -137 -107 -220 -5 -39 -4 -42 21 -49 51 -12 201
24 496 122 222 74 297 109 292 139 -11 68 -194 123 -451 138 l-45 2 -18 60
c-10 33 -18 65 -18 71 0 6 55 22 123 36 142 30 177 42 177 62 0 7 -20 40 -45
71 -25 32 -43 60 -42 62 2 2 431 35 953 73 522 38 976 74 1009 80 33 5 61 10
62 10 2 0 4 -150 5 -333 2 -217 6 -330 13 -327 7 3 10 326 10 938 0 684 3 932
11 932 6 0 26 -3 43 -6 l31 -6 1 -887 c1 -875 4 -1001 24 -971 6 9 11 150 13
348 2 182 7 330 11 327 14 -8 489 43 1086 115 314 38 703 83 865 99 471 48
524 56 513 73 -12 21 -507 -27 -1273 -121 -481 -59 -783 -94 -1015 -116 -100
-10 -173 -22 -177 -28 -4 -7 -8 250 -8 571 0 521 2 582 16 582 8 0 300 -38
648 -85 l633 -85 209 69 c268 88 508 174 595 213 107 48 100 63 -101 209 -154
113 -431 300 -515 349 l-87 50 -1456 204 c-802 112 -1458 203 -1459 202 -5 -4
-72 -395 -98 -565 -25 -172 -35 -304 -24 -315 14 -14 326 -62 1179 -179 l315
-43 -1 -27 c0 -15 -1 -286 -2 -603 l-2 -576 -52 4 c-29 3 -478 -26 -998 -63
-520 -38 -962 -69 -983 -69 -34 0 -41 5 -83 63 l-46 62 43 5 c132 17 156 115
56 227 l-20 22 33 33 c38 38 80 121 80 159 0 22 8 29 44 43 49 19 57 30 45 62
-12 33 -400 544 -518 684 -137 160 -179 220 -190 271 -10 45 -36 79 -59 79 -9
0 -26 -10 -39 -22 l-23 -21 0 54 0 55 53 11 c87 18 211 71 254 108 27 23 47
51 57 82 21 61 20 70 -4 48 -17 -15 -34 -17 -124 -13 -93 4 -112 8 -170 37
-70 34 -110 77 -126 132 -5 18 -8 34 -6 36 1 2 23 -8 47 -22 65 -36 162 -58
259 -58 130 -1 146 15 144 146 -2 99 -12 139 -32 135 -14 -3 -16 -11 -12 -43
8 -63 6 -183 -3 -192 -5 -4 -50 -8 -100 -8 -121 1 -222 31 -272 81 -48 48 -65
40 -65 -31 0 -103 67 -185 184 -225 77 -27 183 -36 227 -21 45 15 48 7 9 -29
-65 -60 -236 -130 -323 -130 l-38 0 2 -132 1 -133 -23 0 c-18 0 -30 11 -49 48
-15 29 -34 50 -48 53 -15 4 -21 12 -18 23 10 36 16 127 9 137 -5 6 -32 24 -61
39 -30 16 -65 43 -79 60 -39 45 -86 151 -91 205 -4 42 -7 47 -35 56 -46 13
-77 65 -77 129 0 113 41 148 100 84 28 -31 57 -32 46 -2 -4 9 22 53 65 111 66
89 109 166 109 195 0 10 147 97 164 97 3 0 6 -14 6 -31 0 -76 57 -129 158
-145 93 -15 192 48 208 130 5 30 10 35 28 31 11 -2 68 -7 126 -10 213 -13 318
-43 340 -96 17 -40 5 -77 -38 -122 -63 -65 -114 -77 -335 -78 -217 -1 -314
-10 -282 -25 11 -5 128 -9 260 -9 l240 0 68 33 c108 53 156 137 123 215 -29
72 -118 100 -369 119 -149 12 -158 14 -163 34 -9 36 -94 103 -94 74 0 -6 5
-10 10 -10 21 0 50 -65 50 -110 0 -107 -87 -162 -204 -129 -58 16 -86 49 -86
103 0 55 11 64 160 130 110 49 130 69 130 128 0 66 -157 166 -317 202 -96 21
-232 20 -305 -3z m312 -37 c141 -33 290 -129 290 -187 0 -15 -3 -26 -7 -25
-18 5 -73 -21 -358 -163 -274 -136 -312 -153 -435 -184 -132 -34 -200 -43
-200 -27 0 24 74 223 109 292 82 164 183 262 311 301 44 13 222 9 290 -7z
m-741 -551 c-5 -15 -8 -37 -4 -50 9 -36 51 -40 165 -17 20 4 13 -6 -36 -53
-79 -74 -284 -188 -368 -204 -114 -21 -102 23 47 178 104 108 179 173 198 173
5 0 4 -12 -2 -27z m3548 -438 c769 -108 1417 -197 1440 -199 30 -1 51 -10 70
-28 16 -14 125 -93 243 -174 236 -162 385 -271 413 -302 18 -20 17 -21 -111
-71 -71 -27 -258 -93 -416 -147 l-285 -96 -648 86 c-1365 183 -2248 308 -2261
320 -8 9 20 222 64 491 55 327 52 315 75 315 10 0 647 -88 1416 -195z m-2709
-577 l23 -46 -43 -45 c-59 -60 -100 -79 -184 -85 -57 -4 -80 0 -120 17 -64 28
-174 103 -170 116 1 6 -3 24 -11 42 -18 44 -18 45 25 41 36 -3 38 -5 57 -62
25 -73 53 -96 89 -73 13 9 34 32 46 51 12 20 23 36 25 36 2 0 14 -18 26 -39
51 -91 137 -79 158 21 20 91 43 99 79 26z m-500 -635 c12 -27 32 -73 46 -104
22 -50 86 -165 130 -231 l18 -27 -69 -45 c-125 -84 -265 -111 -337 -66 -58 35
-114 119 -141 208 -16 51 -12 61 63 165 40 55 73 75 132 79 30 1 54 11 84 35
22 17 44 32 47 32 3 1 15 -20 27 -46z m284 -238 c55 -5 68 -10 73 -27 9 -25 4
-29 -47 -39 -88 -17 -101 -13 -131 36 l-27 46 32 -5 c18 -3 63 -8 100 -11z
m-672 -40 c0 -32 50 -123 94 -172 60 -66 113 -88 199 -80 79 6 161 37 243 92
40 27 64 38 64 30 0 -8 13 -36 29 -63 l28 -48 -106 -27 c-140 -34 -226 -41
-340 -28 -67 8 -111 20 -153 41 -74 37 -178 101 -178 109 0 7 52 88 86 135 21
29 34 33 34 11z m78 -306 c47 -18 83 -23 203 -27 159 -4 225 6 328 53 29 14
54 25 55 25 0 0 1 -55 1 -123 0 -119 -1 -124 -34 -186 -62 -121 -183 -225
-301 -262 -293 -91 -602 63 -651 324 -19 104 27 212 123 288 l48 38 86 -54
c47 -30 111 -64 142 -76z m422 -751 c0 -7 -9 -42 -20 -77 l-19 -65 20 -14
c105 -73 210 -184 272 -284 39 -64 47 -98 23 -98 -20 0 -254 81 -376 130 -121
48 -316 140 -345 163 -19 15 -19 15 5 36 14 11 54 35 89 53 55 28 76 33 140
34 l76 1 14 67 14 66 54 0 c36 0 53 -4 53 -12z"/>
<path d="M2933 4788 c-27 -34 -87 -266 -76 -294 3 -8 15 -14 27 -12 17 2 23
13 30 56 5 28 12 52 15 52 4 0 15 -26 26 -57 15 -45 25 -58 40 -58 16 0 28 21
63 107 47 117 63 200 42 213 -22 13 -45 -27 -70 -119 -13 -48 -27 -89 -31 -92
-11 -6 -19 46 -22 136 -2 59 -5 75 -18 78 -9 1 -20 -3 -26 -10z"/>
<path d="M3195 4743 c-32 -8 -38 -19 -41 -70 -2 -26 -12 -84 -23 -127 -27
-100 -23 -106 73 -105 82 1 144 17 160 41 20 32 -6 43 -60 24 -26 -9 -65 -16
-87 -16 l-39 0 7 37 c4 21 9 42 12 47 3 5 39 6 80 2 76 -6 113 3 113 28 0 15
-51 26 -127 26 -55 0 -61 6 -42 42 10 18 19 20 92 17 70 -4 82 -2 85 13 2 9
-5 21 -16 27 -22 12 -158 22 -187 14z"/>
<path d="M3460 4648 c-30 -71 -47 -170 -34 -205 21 -60 102 -62 158 -4 20 21
33 51 47 112 10 46 19 99 19 117 0 28 -3 32 -25 32 -27 0 -27 0 -46 -110 -12
-72 -31 -115 -57 -128 -48 -25 -56 35 -17 147 26 77 25 91 -4 91 -13 0 -26
-17 -41 -52z"/>
<path d="M3715 4662 c-6 -4 -16 -46 -23 -94 -7 -47 -19 -106 -27 -129 -22 -62
-7 -74 89 -73 88 2 143 18 151 45 10 32 -1 34 -69 16 -76 -20 -116 -22 -116
-4 0 6 5 28 10 48 l10 36 92 -1 c87 -1 93 0 93 19 0 18 -8 20 -65 23 -113 4
-129 13 -90 52 17 17 28 18 84 13 35 -3 71 -3 80 0 25 10 7 36 -32 47 -43 11
-172 13 -187 2z"/>
<path d="M4051 4612 c-39 -12 -59 -51 -83 -160 -17 -80 -19 -105 -10 -114 18
-18 43 1 57 43 l12 34 16 -32 c22 -42 63 -73 98 -73 42 0 37 29 -11 62 -22 15
-40 32 -40 38 0 5 21 21 48 34 92 47 118 107 62 147 -28 20 -112 32 -149 21z
m115 -57 c14 -34 -60 -95 -115 -95 -20 0 -21 4 -15 38 12 64 19 72 75 72 35 0
51 -4 55 -15z"/>
<path d="M4514 4562 c-17 -11 -50 -81 -69 -146 -21 -71 -14 -118 22 -146 l26
-20 45 25 c25 14 46 24 47 23 29 -45 49 -68 60 -68 23 0 71 47 88 87 29 68 59
214 46 229 -23 28 -46 -3 -68 -93 -25 -101 -40 -143 -52 -143 -17 0 -19 21 -8
94 12 82 5 106 -32 106 -18 0 -23 -9 -34 -70 -8 -43 -50 -110 -69 -110 -8 0
-16 6 -19 14 -8 21 12 97 39 145 29 52 31 81 7 81 -10 0 -23 -4 -29 -8z"/>
<path d="M4851 4501 c-7 -5 -15 -29 -16 -54 -2 -26 -13 -85 -25 -133 -16 -65
-19 -89 -10 -98 16 -16 159 -11 204 8 39 16 57 43 37 56 -7 4 -40 -1 -73 -11
-33 -11 -71 -19 -85 -19 -24 0 -25 2 -19 42 4 22 9 45 12 49 2 4 42 5 87 2 68
-5 85 -3 96 10 21 26 3 37 -62 37 -103 0 -129 16 -91 54 13 14 30 15 95 10 75
-7 79 -6 79 14 0 14 -10 24 -31 31 -38 13 -178 14 -198 2z"/>
<path d="M5265 4452 c-62 -21 -118 -63 -146 -109 -28 -44 -22 -113 12 -149 28
-29 90 -48 135 -39 67 12 125 91 110 150 -10 38 -34 45 -101 32 -49 -10 -60
-16 -60 -32 0 -18 6 -20 53 -18 51 2 53 1 47 -20 -17 -54 -82 -73 -128 -37
-39 31 -36 70 9 110 55 48 101 67 124 52 27 -17 47 -15 58 4 15 27 2 52 -30
63 -17 6 -31 11 -32 11 -1 -1 -24 -8 -51 -18z"/>
<path d="M331 3186 c-11 -13 -4 -21 41 -49 85 -55 153 -86 220 -102 83 -19
312 -20 394 0 63 14 174 59 174 70 0 6 -1 6 -135 -24 -128 -28 -226 -34 -337
-22 -120 14 -195 43 -319 124 -23 15 -28 16 -38 3z"/>
<path d="M1462 5462 c-17 -11 1 -62 22 -62 22 0 36 32 25 53 -11 18 -27 21
-47 9z"/>
<path d="M1153 5229 c-15 -5 -20 -14 -16 -28 9 -33 28 -44 47 -26 31 32 9 70
-31 54z"/>
<path d="M1252 5181 c-20 -12 -4 -61 19 -61 24 0 36 27 22 48 -12 20 -24 24
-41 13z"/>
<path d="M1121 5111 c-12 -8 -13 -14 -3 -36 17 -36 47 -30 47 10 0 31 -19 42
-44 26z"/>
<path d="M27 2643 c-16 -3 -27 -11 -27 -20 0 -14 14 -15 113 -9 127 7 169 14
161 27 -5 9 -192 10 -247 2z"/>
<path d="M2 2564 c4 -21 1 -20 287 -85 118 -26 218 -46 223 -43 36 23 -47 47
-490 142 -19 4 -23 1 -20 -14z"/>
<path d="M152 2385 c-15 -34 -15 -35 6 -35 19 0 46 36 37 50 -11 18 -32 10
-43 -15z"/>
<path d="M392 2343 c5 -25 28 -28 28 -4 0 12 -6 21 -16 21 -9 0 -14 -7 -12
-17z"/>
<path d="M612 2334 c4 -21 22 -23 26 -1 2 10 -3 17 -13 17 -10 0 -15 -6 -13
-16z"/>
<path d="M2 2314 c2 -21 9 -30 25 -32 34 -5 29 17 -10 47 -17 14 -18 13 -15
-15z"/>
<path d="M1070 2325 c0 -17 44 -31 255 -79 149 -34 265 -53 265 -43 0 10 -152
55 -323 96 -188 46 -197 47 -197 26z"/>
<path d="M290 2237 c0 -20 9 -25 31 -20 28 8 24 33 -6 33 -14 0 -25 -6 -25
-13z"/>
<path d="M3865 2170 c-12 -19 6 -29 83 -47 61 -14 118 -17 272 -17 110 1 206
6 220 11 23 10 22 11 -20 16 -25 4 -130 8 -235 11 -129 3 -209 9 -248 20 -69
19 -64 19 -72 6z"/>
<path d="M110 2153 c-16 -6 -30 -23 -30 -35 0 -14 35 -9 58 8 34 23 14 43 -28
27z"/>
<path d="M1222 2143 c2 -10 14 -19 26 -21 19 -3 23 1 20 15 -2 10 -14 19 -26
21 -19 3 -23 -1 -20 -15z"/>
<path d="M3413 2108 c-11 -13 -32 -45 -45 -72 l-25 -50 -12 36 c-6 20 -20 43
-30 52 -30 27 -49 10 -57 -50 l-6 -55 -63 61 c-43 40 -69 58 -79 54 -9 -3 -16
-10 -16 -14 0 -7 76 -172 109 -239 12 -24 31 -24 31 -2 0 12 -11 49 -25 83
l-25 62 34 -33 c45 -43 62 -36 71 28 4 28 11 49 15 46 5 -3 14 -30 21 -60 18
-79 29 -74 84 40 l34 70 0 -55 c1 -64 12 -86 36 -76 15 5 17 2 11 -26 -27
-133 -13 -140 28 -16 37 110 34 164 -8 123 -8 -8 -17 -15 -20 -15 -3 0 -6 28
-8 62 -3 71 -19 84 -55 46z"/>
<path d="M2258 2089 c-9 -6 -10 -11 -2 -19 15 -15 690 -140 784 -146 l75 -4
-55 20 c-72 26 -786 158 -802 149z"/>
<path d="M302 2062 c-15 -10 -5 -45 12 -39 13 4 21 47 9 47 -4 0 -14 -4 -21
-8z"/>
<path d="M482 1940 c-6 -11 -12 -24 -12 -30 0 -18 35 -10 49 11 11 18 11 23
-1 30 -19 12 -22 11 -36 -11z"/>
<path d="M2176 1942 c-15 -14 -3 -31 25 -37 29 -7 60 7 47 20 -9 10 -66 23
-72 17z"/>
<path d="M0 1912 c0 -15 12 -24 48 -36 110 -35 1475 -460 1672 -519 276 -84
1873 -534 1963 -553 81 -17 80 -17 72 -5 -12 20 -142 59 -955 287 -459 129
-932 264 -1050 300 -233 71 -1710 531 -1735 540 -10 4 -15 0 -15 -14z"/>
<path d="M652 1878 c-14 -14 2 -48 23 -48 19 0 20 34 2 49 -10 8 -17 7 -25 -1z"/>
<path d="M865 1881 c-3 -6 3 -15 14 -20 15 -8 20 -7 25 5 3 9 6 18 6 20 0 8
-39 4 -45 -5z"/>
<path d="M3534 1859 c-3 -6 -2 -14 2 -19 13 -12 1678 -321 1759 -326 l70 -4
-55 20 c-39 15 -1729 340 -1765 340 -2 0 -7 -5 -11 -11z"/>
<path d="M1820 1833 c1 -31 53 -58 82 -42 21 11 20 12 -17 30 -40 20 -65 24
-65 12z"/>
<path d="M2637 1823 c-12 -11 -8 -22 13 -33 16 -9 22 -8 27 6 8 21 -24 44 -40
27z"/>
<path d="M2166 1761 c-8 -13 3 -38 19 -45 20 -7 28 10 15 34 -11 21 -25 26
-34 11z"/>
<path d="M1540 1730 c0 -21 16 -26 39 -11 18 11 5 31 -20 31 -12 0 -19 -7 -19
-20z"/>
<path d="M2430 1730 c-13 -9 -13 -11 0 -20 22 -15 30 -12 30 10 0 22 -8 25
-30 10z"/>
<path d="M1251 1711 c-22 -14 -3 -31 35 -31 22 0 34 5 34 14 0 23 -43 34 -69
17z"/>
<path d="M3015 1656 c-19 -14 -19 -15 -2 -21 22 -9 50 2 45 17 -6 18 -22 20
-43 4z"/>
<path d="M1744 1624 c3 -9 6 -18 6 -20 0 -2 7 -4 15 -4 8 0 15 9 15 20 0 14
-7 20 -21 20 -15 0 -19 -4 -15 -16z"/>
<path d="M2696 1612 c-9 -15 16 -30 49 -28 45 2 40 30 -7 34 -20 2 -39 -1 -42
-6z"/>
<path d="M3822 1603 c2 -13 15 -19 46 -21 23 -2 42 1 42 5 0 19 -25 33 -58 33
-26 0 -33 -4 -30 -17z"/>
<path d="M5455 1579 c-132 -122 -42 -271 138 -229 60 15 118 42 137 64 10 13
23 15 61 10 60 -8 95 0 109 27 17 31 -4 84 -39 99 -39 16 -106 10 -106 -10 0
-11 12 -15 42 -16 46 0 73 -17 73 -45 0 -19 -11 -24 -84 -34 l-48 -7 7 42 c6
38 4 43 -29 75 -40 37 -116 65 -178 65 -31 0 -47 -8 -83 -41z m165 -10 c52
-23 100 -66 100 -89 0 -26 -54 -70 -105 -86 -156 -47 -240 41 -144 151 18 20
27 39 23 46 -10 17 68 3 126 -22z"/>
<path d="M1886 1568 c-16 -22 -13 -38 6 -38 13 0 37 30 38 48 0 20 -28 14 -44
-10z"/>
<path d="M3223 1564 c-7 -3 -9 -12 -6 -20 6 -16 60 -19 83 -4 13 9 13 11 0 20
-16 10 -56 12 -77 4z"/>
<path d="M2393 1545 c-7 -20 -5 -21 35 -30 24 -5 32 -3 32 7 0 34 -55 53 -67
23z"/>
<path d="M3544 1549 c-8 -14 4 -25 38 -33 33 -7 44 7 22 28 -18 18 -50 21 -60
5z"/>
<path d="M2200 1515 c-16 -19 -9 -49 13 -53 13 -3 17 3 17 27 0 35 -13 47 -30
26z"/>
<path d="M4140 1500 c0 -16 5 -21 23 -18 12 2 22 10 22 18 0 8 -10 16 -22 18
-18 3 -23 -2 -23 -18z"/>
<path d="M4770 1411 c0 -24 25 -45 45 -37 20 7 9 31 -21 44 -21 10 -24 9 -24
-7z"/>
<path d="M5875 1410 c-3 -5 4 -14 17 -20 45 -19 679 -141 716 -138 36 3 35 4
-33 26 -69 22 -641 142 -676 142 -10 0 -21 -4 -24 -10z"/>
<path d="M4470 1392 c0 -23 28 -43 55 -40 40 4 41 22 2 36 -39 14 -57 15 -57
4z"/>
<path d="M3427 1383 c-12 -12 -7 -51 7 -56 9 -4 16 3 18 17 7 36 -7 58 -25 39z"/>
<path d="M4034 1354 c-13 -20 -14 -28 -5 -37 10 -9 18 -6 37 16 13 16 22 33
19 38 -11 17 -34 9 -51 -17z"/>
<path d="M5020 1344 c0 -35 56 -62 90 -44 25 14 17 30 -15 30 -13 0 -27 5 -30
10 -6 10 -45 14 -45 4z"/>
<path d="M2908 1332 c-33 -6 -19 -30 20 -35 43 -5 53 -1 46 17 -6 15 -39 24
-66 18z"/>
<path d="M3877 1326 c-3 -8 2 -16 13 -19 21 -5 30 0 30 20 0 17 -36 17 -43 -1z"/>
<path d="M3663 1294 c-7 -18 11 -39 26 -30 17 11 13 46 -4 46 -9 0 -18 -7 -22
-16z"/>
<path d="M2577 1294 c-15 -15 -7 -45 11 -42 9 2 17 12 17 22 0 20 -16 31 -28
20z"/>
<path d="M4330 1281 c0 -6 5 -13 10 -16 6 -3 10 1 10 9 0 9 -4 16 -10 16 -5 0
-10 -4 -10 -9z"/>
<path d="M3280 1245 c0 -12 7 -15 25 -13 14 2 26 8 26 13 0 6 -12 11 -26 13
-18 2 -25 -1 -25 -13z"/>
<path d="M4710 1246 c0 -9 7 -16 16 -16 17 0 14 22 -4 28 -7 2 -12 -3 -12 -12z"/>
<path d="M6090 1175 c0 -22 45 -48 70 -40 26 8 21 29 -8 33 -12 2 -22 8 -22
13 0 5 -9 9 -20 9 -11 0 -20 -7 -20 -15z"/>
<path d="M3111 1134 c-17 -22 -19 -30 -9 -41 10 -13 16 -11 35 13 13 16 22 33
20 38 -7 20 -26 16 -46 -10z"/>
<path d="M5342 1137 c-14 -16 -6 -27 20 -27 13 0 18 6 16 17 -4 22 -22 27 -36
10z"/>
<path d="M5714 1129 c-8 -14 11 -33 25 -25 16 10 13 36 -3 36 -8 0 -18 -5 -22
-11z"/>
<path d="M4508 1119 c-22 -12 -23 -39 -2 -39 24 0 54 19 54 35 0 17 -27 19
-52 4z"/>
<path d="M4990 1061 c6 -13 17 -17 30 -14 32 8 24 33 -10 33 -27 0 -29 -2 -20
-19z"/>
<path d="M3526 1062 c-8 -13 11 -35 23 -28 16 10 14 36 -3 36 -8 0 -17 -4 -20
-8z"/>
<path d="M4140 1042 c0 -14 23 -32 42 -32 22 0 24 26 2 34 -22 8 -44 7 -44 -2z"/>
<path d="M5223 1033 c-10 -27 57 -48 72 -22 9 14 4 18 -34 29 -26 7 -33 6 -38
-7z"/>
<path d="M3856 1031 c-10 -16 0 -28 28 -33 30 -6 55 7 41 21 -16 16 -62 24
-69 12z"/>
<path d="M6418 1014 c-11 -10 3 -34 19 -34 8 0 13 7 11 17 -3 18 -20 27 -30
17z"/>
<path d="M5480 986 c0 -24 16 -27 35 -6 18 19 17 20 -8 20 -17 0 -27 -5 -27
-14z"/>
<path d="M5992 991 c-14 -8 -6 -41 9 -41 14 0 23 30 13 40 -5 5 -15 6 -22 1z"/>
<path d="M5011 937 c-6 -8 -6 -18 -1 -27 7 -11 11 -11 24 -1 9 8 16 17 16 21
0 14 -28 19 -39 7z"/>
<path d="M6122 915 c-8 -16 -8 -26 -1 -31 13 -7 49 24 49 43 0 23 -36 14 -48
-12z"/>
<path d="M4162 880 c-12 -5 -40 -24 -62 -41 -38 -30 -42 -32 -79 -21 -88 27
-161 5 -201 -60 -52 -82 41 -173 143 -140 31 10 32 10 5 11 -59 2 -128 47
-128 82 0 10 14 31 31 48 25 25 39 31 74 31 69 0 78 -7 54 -39 -17 -23 -18
-33 -9 -81 15 -78 42 -103 127 -119 53 -10 212 2 274 21 45 13 89 59 89 91 -1
63 -81 171 -154 206 -45 22 -123 27 -164 11z m149 -45 c33 -18 107 -98 120
-132 26 -70 -15 -98 -163 -114 -155 -16 -219 1 -253 65 l-19 35 29 32 c120
126 199 158 286 114z"/>
<path d="M4770 831 c-13 -26 -13 -31 4 -31 16 0 46 26 46 41 0 17 -39 9 -50
-10z"/>
<path d="M5900 813 c-16 -6 -30 -23 -30 -37 0 -12 62 2 71 16 15 24 -6 34 -41
21z"/>
<path d="M6630 800 c-13 -8 -13 -11 2 -26 16 -17 18 -17 24 0 9 23 -7 38 -26
26z"/>
<path d="M5276 793 c-3 -4 -6 -15 -6 -25 0 -24 33 -21 38 3 3 17 -21 33 -32
22z"/>
<path d="M5613 763 c-16 -6 -17 -29 -2 -38 11 -7 49 22 49 37 0 9 -27 10 -47
1z"/>
<path d="M6326 742 c-2 -4 -1 -14 4 -22 7 -11 11 -12 25 0 13 10 13 15 3 21
-17 11 -26 11 -32 1z"/>
<path d="M4766 701 c-7 -11 18 -33 27 -24 4 3 7 12 7 20 0 15 -26 18 -34 4z"/>
<path d="M6531 627 c-10 -12 -10 -20 1 -36 7 -12 18 -21 25 -21 17 0 17 31 0
54 -12 16 -14 16 -26 3z"/>
<path d="M5380 606 c-13 -17 -7 -46 9 -46 14 0 25 40 14 51 -6 6 -15 4 -23 -5z"/>
<path d="M4494 599 c-3 -6 -2 -14 2 -19 14 -13 692 -196 1004 -270 299 -72
411 -95 431 -88 26 9 -119 51 -416 122 -170 41 -466 117 -658 170 -191 53
-349 96 -352 96 -2 0 -7 -5 -11 -11z"/>
<path d="M5022 578 c-18 -18 -15 -38 6 -38 21 0 42 18 42 37 0 16 -32 17 -48
1z"/>
<path d="M5933 579 c-13 -13 -4 -59 13 -59 19 0 25 16 18 45 -7 27 -14 31 -31
14z"/>
<path d="M6130 550 c-9 -16 -8 -22 5 -26 18 -7 45 12 45 32 0 21 -38 17 -50
-6z"/>
<path d="M5540 495 c0 -20 33 -36 51 -24 12 8 11 12 -5 24 -25 19 -46 19 -46
0z"/>
<path d="M6294 445 c-7 -18 14 -47 27 -39 5 3 9 16 9 30 0 27 -27 34 -36 9z"/>
<path d="M6536 439 c-30 -24 -34 -49 -8 -49 20 0 52 29 52 48 0 21 -18 22 -44
1z"/>
<path d="M5912 418 c3 -7 23 -66 44 -130 31 -92 43 -117 57 -118 15 0 18 5 13
33 -5 29 -5 30 6 10 6 -13 14 -23 17 -23 3 0 20 21 36 48 l30 47 3 -58 3 -58
41 36 c39 36 109 74 136 75 21 0 13 -47 -24 -130 -19 -45 -34 -86 -32 -92 2
-6 23 17 46 51 39 59 62 115 62 153 0 25 -22 68 -34 68 -7 0 -45 -16 -85 -35
l-74 -36 7 71 c3 38 4 70 2 70 -2 0 -28 -29 -57 -65 -29 -36 -56 -62 -60 -58
-3 5 -14 30 -24 56 -10 26 -31 59 -47 72 -31 26 -73 34 -66 13z"/>
<path d="M6345 130 c-4 -6 -4 -14 -1 -18 11 -11 188 -51 251 -57 60 -5 60 -5
27 10 -36 17 -181 60 -235 70 -22 4 -37 3 -42 -5z"/>
</g>
</svg>
