<?xml version="1.0" standalone="no"?>
<!DOCTYPE svg PUBLIC "-//W3C//DTD SVG 20010904//EN"
 "http://www.w3.org/TR/2001/REC-SVG-20010904/DTD/svg10.dtd">
<svg version="1.0" xmlns="http://www.w3.org/2000/svg"
 width="890.000000pt" height="1164.000000pt" viewBox="0 0 890.000000 1164.000000"
 preserveAspectRatio="xMidYMid meet">

<g transform="translate(0.000000,1164.000000) scale(0.100000,-0.100000)"
fill="#000000" stroke="none">
<path d="M2264 11366 c-7 -17 -1 -98 12 -168 5 -32 4 -38 -10 -38 -29 0 -225
-97 -315 -157 -115 -76 -253 -217 -313 -319 -147 -250 -168 -545 -62 -882 43
-139 151 -354 241 -482 102 -144 284 -321 424 -413 210 -138 443 -247 596
-278 41 -9 59 -16 54 -23 -5 -6 -11 -339 -14 -741 -3 -401 -11 -982 -18 -1290
-7 -308 -9 -573 -4 -590 l8 -30 9 35 c13 51 36 993 44 1863 l7 758 51 -7 c158
-21 436 4 591 54 110 36 70 39 -112 8 -274 -46 -444 -44 -643 9 -166 45 -361
139 -560 270 -331 219 -608 641 -684 1044 -21 109 -21 308 0 409 52 253 220
468 489 625 64 38 216 107 234 107 4 0 14 -19 21 -42 40 -136 155 -300 286
-412 77 -65 224 -151 246 -144 5 2 -34 35 -88 73 -282 199 -418 405 -453 686
-10 75 -25 106 -37 75z"/>
<path d="M6914 11158 c1 -238 -10 -298 -81 -447 -82 -171 -235 -297 -438 -361
-89 -28 -282 -38 -391 -21 -176 29 -307 93 -419 206 -62 62 -87 95 -110 148
-16 37 -35 67 -42 67 -21 0 -15 -30 17 -99 42 -87 168 -213 265 -263 163 -84
368 -122 542 -100 281 36 499 181 607 404 25 51 52 121 61 155 25 98 36 255
25 349 -8 77 -27 164 -34 164 -2 0 -3 -91 -2 -202z"/>
<path d="M4174 10580 c-298 -78 -566 -365 -682 -730 -44 -140 -57 -228 -56
-390 1 -287 85 -521 277 -778 195 -261 413 -409 682 -463 106 -21 416 -19 525
4 167 36 353 97 339 112 -5 4 -109 -18 -314 -68 -77 -18 -119 -21 -300 -22
-243 0 -327 15 -471 85 -269 130 -537 450 -644 767 -80 242 -78 525 6 772 112
324 369 596 635 672 24 7 80 15 124 18 65 5 80 9 83 24 3 15 -5 17 -65 16 -37
0 -100 -9 -139 -19z"/>
<path d="M7573 10138 c20 -79 29 -189 25 -308 -4 -112 -10 -148 -32 -215 -15
-44 -33 -85 -39 -91 -9 -9 -40 -8 -122 2 -459 57 -1129 38 -1495 -43 -273 -60
-431 -134 -560 -263 -126 -125 -173 -239 -173 -415 0 -409 335 -646 1033 -730
248 -30 921 -30 970 0 7 4 8 11 1 19 -7 8 -34 9 -93 5 -131 -11 -604 -10 -745
2 -445 36 -747 128 -935 283 -148 123 -219 311 -189 503 46 297 277 476 734
568 189 38 387 55 697 62 634 13 1075 -47 1337 -181 88 -45 115 -64 176 -123
114 -110 171 -243 172 -403 0 -89 -2 -100 -34 -165 -87 -178 -315 -332 -666
-450 -171 -58 -190 -68 -110 -60 77 8 270 72 388 129 219 105 379 249 435 392
31 78 35 141 17 245 -41 239 -188 406 -450 509 -83 33 -294 90 -332 90 -32 0
-37 17 -13 47 11 14 30 58 43 97 18 60 22 94 22 221 0 83 -6 182 -13 223 -12
61 -17 72 -34 72 -16 0 -19 -5 -15 -22z"/>
<path d="M5892 9212 c-7 -5 -17 -46 -22 -98 -13 -115 -18 -136 -33 -131 -8 2
-13 31 -15 79 -2 51 -8 80 -17 88 -27 22 -43 4 -50 -58 -4 -33 -15 -74 -26
-92 -17 -27 -22 -30 -35 -19 -19 15 -13 89 12 147 18 44 18 68 -1 76 -32 12
-66 -63 -80 -175 -5 -44 -2 -60 15 -87 28 -46 44 -49 91 -17 l40 28 29 -28
c25 -24 33 -27 53 -18 13 6 32 28 41 48 32 67 47 254 21 262 -5 1 -16 -1 -23
-5z"/>
<path d="M7075 9200 c-108 -12 -105 -9 -105 -109 0 -49 -3 -109 -6 -134 -6
-44 -5 -46 20 -53 34 -8 153 20 185 44 56 41 25 65 -42 33 -23 -11 -57 -24
-75 -27 l-33 -7 3 44 3 44 75 8 c74 8 109 25 95 46 -4 8 -32 9 -86 5 -74 -6
-79 -6 -79 13 0 32 21 43 81 43 66 0 89 7 89 25 0 26 -42 34 -125 25z"/>
<path d="M6082 9179 c-107 -53 -155 -193 -85 -249 75 -59 219 -16 269 81 19
37 18 109 -2 138 -19 27 -71 51 -111 51 -15 0 -47 -10 -71 -21z m122 -60 c37
-43 33 -74 -12 -119 -64 -65 -151 -62 -168 5 -8 32 30 99 71 125 44 29 79 26
109 -11z"/>
<path d="M6534 9193 c-12 -2 -30 -13 -39 -23 -15 -16 -16 -22 -5 -35 11 -13
11 -34 0 -115 -7 -55 -10 -103 -6 -108 15 -15 102 -5 144 17 59 30 82 56 82
92 0 25 -6 32 -36 45 l-36 15 26 20 c36 28 36 76 0 89 -25 10 -89 11 -130 3z
m96 -52 c0 -9 -61 -51 -74 -51 -11 0 -6 36 6 48 14 14 68 16 68 3z m5 -111
c21 -8 24 -13 16 -29 -10 -19 -78 -51 -107 -51 -13 0 -15 7 -9 37 4 21 9 41
11 45 7 11 58 10 89 -2z"/>
<path d="M6776 9178 c-3 -13 -13 -67 -22 -121 -19 -111 -12 -142 31 -153 37
-9 139 43 143 74 4 29 -26 29 -78 0 -21 -13 -42 -19 -46 -16 -4 4 1 55 10 113
10 57 15 109 11 115 -12 19 -44 11 -49 -12z"/>
<path d="M7263 9192 c-6 -4 -15 -52 -22 -107 -6 -55 -13 -114 -16 -132 -4 -40
18 -64 40 -42 15 16 35 142 35 224 0 52 -13 72 -37 57z"/>
<path d="M7374 9186 c-33 -15 -50 -41 -32 -52 10 -7 7 -75 -8 -171 -6 -39 -4
-43 19 -54 52 -24 173 26 203 82 18 36 6 66 -31 75 -31 8 -31 9 0 46 29 34 30
38 11 63 -18 24 -118 31 -162 11z m86 -66 c-41 -36 -50 -37 -50 -7 0 32 7 37
49 37 l36 -1 -35 -29z m25 -90 c22 -8 24 -13 15 -30 -13 -24 -35 -36 -83 -45
l-38 -7 7 38 c3 22 9 42 11 47 6 10 57 9 88 -3z"/>
<path d="M7710 9183 c-41 -8 -85 -16 -98 -19 -15 -3 -22 -11 -20 -22 2 -12 15
-18 46 -20 49 -4 49 -6 31 -124 -10 -62 -9 -72 6 -87 15 -15 17 -15 30 2 12
17 45 169 45 209 0 12 13 19 43 25 32 7 42 13 42 28 0 26 -28 28 -125 8z"/>
<path d="M7630 8715 c-49 -15 -90 -47 -90 -69 0 -26 32 -26 76 -1 38 22 94 34
94 19 0 -18 -26 -47 -65 -74 -36 -25 -45 -37 -45 -60 0 -16 4 -31 9 -34 12 -8
41 4 41 16 0 5 27 35 60 66 48 46 60 64 60 89 0 17 -6 36 -14 42 -23 19 -78
22 -126 6z"/>
<path d="M5762 8689 c-50 -25 -75 -58 -70 -91 2 -18 16 -27 67 -45 84 -29 100
-54 61 -93 -33 -33 -76 -26 -99 18 -14 26 -46 29 -55 6 -11 -29 17 -68 61 -83
85 -30 163 24 163 111 0 42 -16 57 -85 78 -55 17 -61 25 -31 45 18 12 36 15
61 11 46 -9 60 17 26 46 -30 23 -46 23 -99 -3z"/>
<path d="M7191 8697 c-6 -6 -11 -32 -11 -58 0 -66 -11 -139 -20 -134 -5 3 -21
38 -36 78 -32 87 -40 97 -69 97 -31 0 -35 -16 -42 -157 -6 -119 -5 -123 14
-123 25 0 33 17 34 73 1 80 12 84 44 17 30 -63 52 -84 79 -74 24 9 37 63 43
175 5 89 3 107 -9 112 -9 3 -21 0 -27 -6z"/>
<path d="M7451 8701 c-9 -6 -15 -40 -19 -105 -2 -53 -8 -96 -13 -96 -7 0 -42
85 -55 134 -8 33 -27 48 -56 44 -28 -4 -36 -45 -37 -185 -1 -85 1 -93 18 -93
24 0 31 19 31 84 0 29 3 56 7 59 3 4 19 -20 35 -53 52 -108 101 -100 118 21
20 137 8 213 -29 190z"/>
<path d="M6111 8689 c-72 -12 -82 -21 -75 -72 3 -23 1 -78 -5 -122 -12 -97 -3
-110 69 -100 98 15 160 46 160 82 0 18 -25 16 -68 -6 -21 -11 -55 -23 -76 -27
l-39 -7 6 33 c4 18 7 38 7 45 0 9 24 16 75 20 78 8 113 23 100 44 -5 9 -29 11
-91 6 -88 -8 -95 -4 -74 36 9 16 22 19 73 19 67 0 103 16 88 39 -11 17 -82 22
-150 10z"/>
<path d="M6485 8688 c-39 -22 -48 -58 -15 -58 18 0 20 -7 20 -72 -1 -40 -7
-90 -14 -110 -19 -54 -4 -65 70 -49 90 20 164 107 164 192 0 69 -156 136 -225
97z m143 -71 c37 -35 22 -102 -34 -146 -48 -38 -54 -30 -54 72 0 52 3 97 6
100 11 11 57 -4 82 -26z"/>
<path d="M6822 8690 c-67 -10 -84 -24 -77 -64 3 -17 1 -71 -4 -121 -12 -108
-4 -120 69 -110 56 9 141 40 152 57 25 40 -2 48 -60 19 -21 -11 -55 -22 -75
-26 -40 -8 -42 -4 -31 53 6 29 9 30 73 37 89 9 101 13 101 37 0 19 -4 19 -85
13 -89 -8 -96 -5 -75 36 9 15 22 19 70 19 70 0 90 6 90 30 0 29 -43 35 -148
20z"/>
<path d="M5952 8673 c-5 -10 -15 -74 -22 -141 -11 -102 -11 -125 0 -132 17
-10 37 -3 44 16 3 8 11 66 17 130 9 89 8 118 -1 129 -16 20 -27 19 -38 -2z"/>
<path d="M3466 8403 c-8 -276 -30 -732 -66 -1378 -36 -651 -47 -995 -33 -995
15 0 31 138 38 325 3 88 15 320 25 515 50 914 78 1527 80 1728 0 6 -9 12 -19
12 -18 0 -19 -13 -25 -207z"/>
<path d="M7597 8443 c-12 -11 -8 -43 6 -44 38 -4 60 13 50 38 -5 13 -45 18
-56 6z"/>
<path d="M8184 8428 c-9 -14 19 -35 77 -55 l46 -17 7 -85 c27 -372 8 -1446
-26 -1425 -5 3 -16 0 -24 -7 -13 -11 -12 -15 10 -33 l26 -21 -11 -265 c-6
-146 -8 -293 -5 -327 l6 -62 -37 -6 c-21 -3 -48 -8 -60 -11 -18 -3 -21 0 -20
18 2 13 8 33 15 46 11 20 11 22 -7 22 -30 0 -55 -43 -41 -69 8 -16 8 -21 -2
-21 -7 0 -23 -3 -35 -6 -20 -5 -23 -2 -23 20 0 15 7 38 16 51 15 24 15 25 -4
25 -28 0 -45 -25 -46 -67 l-1 -37 -175 -23 c-96 -13 -312 -39 -480 -58 -168
-19 -329 -38 -359 -41 l-53 -7 16 25 c12 19 14 32 7 49 -11 30 -56 72 -96 90
l-30 14 -11 130 c-6 79 -16 139 -25 153 -7 13 -42 44 -77 68 -34 25 -68 57
-76 72 l-14 28 151 16 c84 9 170 23 192 31 43 15 58 44 31 59 -9 5 -16 19 -16
31 0 12 -5 29 -10 37 -9 13 -15 9 -40 -19 l-29 -34 -7 29 c-4 16 -9 32 -11 37
-6 11 -45 -19 -59 -45 -12 -22 -12 -21 -19 15 -4 20 -11 39 -15 42 -5 3 -22
-8 -38 -25 l-30 -29 -6 29 c-6 35 -25 38 -51 10 -24 -27 -35 -25 -35 5 0 18
-5 25 -19 25 -11 0 -23 -4 -26 -10 -3 -5 -13 -10 -21 -10 -11 0 -10 6 7 29 20
27 22 28 50 14 46 -23 58 -3 33 60 -5 13 1 13 40 -1 25 -9 48 -13 53 -9 4 5 0
27 -8 51 l-15 43 25 -13 c29 -16 50 -17 68 -6 10 6 8 17 -8 46 -19 36 -19 38
-2 31 38 -16 93 -29 99 -22 10 9 -4 53 -22 71 -20 21 -5 21 24 0 12 -8 36 -14
52 -12 l30 3 -21 39 -21 39 29 23 c20 15 30 19 35 11 15 -23 9 -39 -12 -32
-11 3 -25 3 -31 -1 -16 -10 28 -33 64 -34 31 0 34 12 11 65 -13 32 -13 39 -1
54 36 41 31 106 -10 122 -32 12 -74 -7 -90 -42 -8 -17 -26 -30 -55 -38 -93
-28 -288 -114 -288 -127 0 -22 22 -17 162 40 161 64 193 73 212 53 12 -12 -6
-29 -127 -123 -187 -145 -235 -190 -277 -261 -30 -50 -39 -59 -55 -52 -32 12
-45 10 -45 -8 0 -13 25 -28 88 -55 105 -44 216 -68 313 -68 40 0 70 -2 68 -4
-8 -8 -131 -25 -268 -36 -155 -13 -196 -23 -135 -33 33 -5 43 -13 56 -41 9
-18 35 -49 58 -67 104 -84 112 -93 121 -145 4 -27 8 -80 9 -119 1 -101 6 -113
60 -140 53 -27 92 -69 84 -90 -7 -18 -49 -45 -69 -45 -13 0 -14 4 -5 20 14 26
3 68 -21 81 -25 13 -44 2 -28 -17 6 -7 14 -29 19 -48 8 -36 0 -46 -36 -46 -12
0 -12 4 -4 21 14 26 -11 69 -40 69 -24 0 -26 -13 -5 -30 8 -7 12 -16 9 -22 -3
-5 0 -15 6 -23 7 -8 11 -15 9 -15 -2 0 -60 -7 -129 -15 -143 -17 -923 -85
-927 -81 -2 2 3 35 12 74 29 139 60 502 75 877 11 274 13 1218 4 1278 -4 20
-12 37 -19 37 -10 0 -14 -149 -18 -712 -4 -621 -16 -987 -33 -1065 -2 -13 -11
-23 -18 -23 -45 0 -122 -167 -133 -287 -8 -81 -18 -80 -91 7 -240 288 -328
387 -336 379 -14 -14 260 -367 353 -456 24 -23 67 -40 77 -30 3 2 18 56 33
119 29 114 53 172 91 218 l22 25 -6 -50 c-3 -27 -13 -128 -22 -222 -19 -184
-36 -223 -48 -114 -5 44 -3 70 9 97 10 25 12 41 6 47 -17 17 -38 -10 -51 -62
-9 -39 -8 -56 4 -91 8 -24 13 -47 10 -49 -6 -6 -114 30 -199 66 -150 65 -284
193 -356 339 -42 84 -60 103 -67 71 -6 -28 72 -169 134 -241 91 -107 210 -188
334 -227 l55 -17 -45 -6 c-51 -7 -703 -56 -739 -56 -20 0 -23 3 -17 28 7 27
34 1726 35 2160 1 208 0 223 -16 220 -17 -3 -19 -57 -29 -858 -7 -470 -12
-1013 -13 -1205 l-1 -351 -292 -22 c-160 -12 -292 -21 -294 -19 -1 1 4 31 11
67 34 169 49 891 38 1840 -7 546 -10 625 -23 625 -13 0 -15 -97 -11 -825 4
-976 -16 -1690 -49 -1710 -5 -3 -78 -12 -162 -18 -181 -15 -289 -30 -303 -43
-14 -14 128 -11 315 6 91 9 572 47 1070 85 498 39 1013 79 1145 90 320 27
1246 130 1675 186 190 25 365 47 390 50 150 16 416 57 425 65 27 27 -18 28
-190 4 -99 -13 -180 -23 -181 -22 -2 4 26 735 36 927 19 383 23 765 11 1023
-7 137 -11 251 -8 253 2 3 26 0 53 -7 79 -18 311 -13 292 7 -3 2 -62 9 -133
14 -140 11 -231 30 -314 66 -62 28 -58 27 -67 12z m-1106 -1125 c4 -24 -20
-46 -42 -37 -20 8 -21 28 0 49 20 20 38 15 42 -12z m-95 -187 c4 -10 0 -12
-14 -9 -10 3 -16 9 -13 14 8 13 21 11 27 -5z m-63 -67 c0 -3 -12 -4 -27 -1
-25 5 -25 6 -8 18 15 11 20 11 27 1 4 -6 8 -15 8 -18z m-93 -65 c-3 -4 -14 -3
-24 0 -15 6 -15 8 -3 16 16 10 39 -4 27 -16z m-67 -55 c0 -5 -10 -9 -21 -9
-18 0 -19 2 -9 15 12 15 30 12 30 -6z m-80 -59 c0 -5 -5 -10 -11 -10 -5 0 -7
5 -4 10 3 6 8 10 11 10 2 0 4 -4 4 -10z m60 -120 c0 -5 -5 -10 -11 -10 -5 0
-7 5 -4 10 3 6 8 10 11 10 2 0 4 -4 4 -10z m90 -16 c0 -8 -5 -12 -10 -9 -6 4
-8 11 -5 16 9 14 15 11 15 -7z m90 -4 c0 -5 -5 -10 -11 -10 -5 0 -7 5 -4 10 3
6 8 10 11 10 2 0 4 -4 4 -10z"/>
<path d="M7313 8193 c-32 -6 -73 -59 -73 -94 0 -71 56 -118 124 -105 51 10 79
49 70 101 -9 57 -21 75 -59 91 -19 8 -36 13 -37 13 -2 -1 -13 -4 -25 -6z m67
-43 c29 -16 43 -46 30 -69 -40 -75 -130 -65 -130 15 0 51 53 79 100 54z"/>
<path d="M7875 8074 c-49 -18 -80 -47 -72 -68 9 -22 39 -20 81 5 20 11 47 19
63 17 l28 -3 -35 -35 c-20 -19 -46 -43 -58 -52 -22 -18 -31 -71 -13 -82 13 -8
41 4 41 17 0 6 27 36 60 67 49 45 60 62 60 87 0 17 -7 39 -16 47 -19 20 -85
20 -139 0z"/>
<path d="M6297 7994 c-9 -9 -7 -172 2 -244 12 -91 25 -32 26 114 0 121 -7 151
-28 130z"/>
<path d="M7465 7935 c-61 -60 6 -158 85 -125 33 13 55 44 45 60 -10 16 -29 11
-43 -10 -25 -41 -80 -13 -68 34 3 14 15 27 26 31 21 7 60 -10 60 -25 0 -6 4
-10 9 -10 16 0 -1 40 -22 55 -31 22 -65 18 -92 -10z"/>
<path d="M7197 7839 c-47 -27 -88 -182 -52 -195 21 -9 45 14 45 43 0 36 28 95
42 91 8 -3 15 -31 18 -77 4 -57 9 -76 25 -87 10 -8 24 -13 30 -11 12 5 8 134
-6 189 -14 53 -58 73 -102 47z"/>
<path d="M7856 7804 c-12 -30 -6 -44 18 -44 33 0 53 25 36 45 -16 20 -46 19
-54 -1z"/>
<path d="M7622 7754 c-50 -35 -8 -115 53 -100 36 9 48 38 31 72 -24 46 -48 54
-84 28z m65 -25 c14 -14 -6 -39 -30 -39 -20 0 -28 25 -14 39 14 14 30 14 44 0z"/>
<path d="M6417 7703 c-4 -3 -7 -43 -7 -88 0 -61 4 -86 15 -95 22 -18 28 8 23
96 -5 71 -16 103 -31 87z"/>
<path d="M6190 7649 c0 -17 94 -139 107 -139 25 0 21 20 -16 72 -37 51 -91 91
-91 67z"/>
<path d="M6614 7618 c-39 -48 -68 -119 -52 -130 7 -4 15 -8 18 -8 4 1 64 124
78 161 8 21 -18 6 -44 -23z"/>
<path d="M7344 7585 c-9 -23 3 -45 25 -45 20 0 37 32 26 50 -9 15 -45 12 -51
-5z"/>
<path d="M7559 7548 c-14 -27 -38 -179 -30 -193 3 -5 17 28 32 74 24 75 28 82
38 63 6 -11 17 -51 25 -87 13 -61 12 -66 -3 -60 -37 16 -49 16 -64 1 -8 -9
-22 -16 -31 -16 -8 0 -27 -10 -41 -23 -20 -17 -27 -32 -27 -60 0 -21 6 -44 12
-52 10 -13 5 -31 -28 -103 -42 -91 -132 -348 -132 -379 0 -10 -9 -31 -20 -48
-40 -60 -15 -115 50 -115 18 0 42 8 52 17 13 12 21 14 26 6 4 -6 22 -14 40
-18 17 -3 32 -13 32 -20 0 -31 25 -27 58 11 19 21 32 31 28 21 -17 -51 -28
-159 -24 -229 l5 -79 -30 -16 c-41 -21 -85 -71 -93 -106 -8 -36 27 -77 65 -77
l26 1 -26 14 c-15 8 -29 22 -33 31 -8 22 26 67 77 101 l42 29 2 104 c0 58 8
139 18 180 9 41 19 90 22 109 3 19 28 63 55 98 64 85 90 139 92 186 1 37 -16
61 -39 54 -5 -2 -79 -78 -164 -170 -153 -165 -155 -167 -173 -147 -10 11 -25
20 -33 20 -8 0 -16 4 -19 9 -8 12 38 171 79 275 19 49 42 115 51 148 13 44 21
58 31 53 61 -23 133 -9 159 30 16 25 16 25 33 4 22 -27 87 -41 128 -28 71 23
98 115 48 164 -13 14 -34 25 -45 25 -12 0 -30 5 -40 10 -28 15 -67 -4 -92 -46
-18 -30 -23 -33 -30 -19 -6 10 -6 21 1 29 7 8 4 36 -10 91 -34 137 -71 187
-100 133z m271 -223 c33 -17 44 -42 34 -79 -12 -49 -65 -69 -119 -44 -21 9
-25 18 -24 52 0 36 1 38 10 18 11 -29 43 -26 47 5 2 15 -4 23 -20 29 -23 7
-23 7 7 20 38 16 31 16 65 -1z m-214 -27 c15 -19 16 -20 2 -9 -25 19 -52 -3
-37 -30 12 -24 28 -24 45 -1 12 15 13 13 14 -19 0 -29 -5 -38 -25 -47 -44 -20
-81 -15 -104 14 -12 15 -21 34 -21 44 0 10 9 29 21 44 27 34 78 36 105 4z
m119 -409 c-6 -16 -9 -18 -16 -8 -4 8 -3 19 3 26 15 18 21 9 13 -18z m-39 -36
c-10 -10 -19 5 -10 18 6 11 8 11 12 0 2 -7 1 -15 -2 -18z m-17 -32 c9 -6 10
-14 4 -25 -8 -15 -11 -14 -21 9 -12 26 -7 31 17 16z m-39 -27 c0 -8 -5 -12
-10 -9 -6 4 -8 11 -5 16 9 14 15 11 15 -7z m-2 -49 c2 -2 -2 -13 -8 -26 -12
-22 -13 -22 -26 11 -8 18 -14 34 -14 36 0 4 39 -14 48 -21z m-58 -25 c0 -5 -4
-10 -10 -10 -5 0 -10 5 -10 10 0 6 5 10 10 10 6 0 10 -4 10 -10z m0 -57 c0
-24 -16 -21 -31 6 -16 28 -16 28 7 17 13 -6 24 -16 24 -23z m-60 1 c0 -8 -5
-12 -10 -9 -6 4 -8 11 -5 16 9 14 15 11 15 -7z m-152 -13 c8 -4 12 -19 10 -32
-2 -19 -10 -25 -35 -27 -27 -3 -33 0 -33 17 0 19 24 51 38 51 4 0 13 -4 20 -9z
m172 -52 c0 -3 -9 -14 -20 -24 -19 -18 -20 -17 -20 4 0 12 -5 31 -10 41 -10
19 -9 19 20 2 16 -9 30 -20 30 -23z m-70 2 c0 -14 -5 -18 -20 -14 -16 4 -18 8
-9 19 16 20 29 17 29 -5z"/>
<path d="M7906 7487 c-49 -53 -94 -117 -81 -117 4 0 33 25 66 57 53 51 59 54
59 32 0 -13 -10 -57 -22 -98 -15 -52 -19 -76 -11 -78 7 -3 9 -11 6 -18 -2 -8
7 -25 22 -37 14 -13 41 -50 58 -83 19 -34 46 -69 66 -82 34 -23 101 -32 101
-13 0 6 -10 10 -22 10 -37 0 -87 48 -119 116 -26 54 -46 77 -87 99 -1 1 7 28
19 61 11 32 23 89 26 125 5 57 3 67 -12 73 -14 5 -31 -7 -69 -47z"/>
<path d="M6702 7486 c-36 -35 -44 -48 -35 -57 9 -9 22 -3 58 26 25 21 50 47
56 57 19 36 -31 19 -79 -26z"/>
<path d="M6050 7511 c0 -14 119 -93 130 -86 21 13 8 32 -43 63 -52 32 -87 41
-87 23z"/>
<path d="M6311 6668 c1 -392 4 -724 8 -738 l7 -25 9 25 c4 14 11 293 14 622
l6 596 24 -19 23 -19 -22 -18 c-21 -17 -21 -17 23 -14 42 4 44 3 50 -27 18
-90 192 -91 212 -1 10 46 -27 116 -70 131 -26 10 -38 23 -50 53 -21 54 -84
146 -100 146 -17 0 -23 -28 -31 -133 l-7 -86 -26 20 c-24 19 -26 29 -31 107
-4 72 -8 87 -22 90 -17 3 -18 -36 -17 -710z m228 506 c-6 -8 -19 -14 -29 -14
-9 0 -25 -9 -35 -20 -10 -11 -22 -20 -26 -20 -8 0 -3 127 7 169 5 22 9 18 50
-38 36 -50 43 -65 33 -77z m70 -50 c27 -35 27 -69 -1 -88 -32 -23 -61 -21 -53
3 6 20 -18 46 -35 36 -5 -3 -10 -14 -10 -23 -1 -15 -2 -15 -15 2 -52 68 62
137 114 70z"/>
<path d="M862 7325 c-53 -23 -97 -62 -141 -125 -67 -96 -85 -155 -85 -290 0
-103 3 -124 32 -207 47 -139 123 -284 220 -421 87 -123 57 -40 -57 160 -124
219 -165 347 -159 498 3 84 8 105 36 162 59 121 145 198 221 198 113 0 220
-118 351 -386 36 -75 66 -124 75 -124 8 0 32 24 54 54 117 157 209 168 276 32
51 -104 44 -286 -24 -626 -20 -102 -25 -149 -18 -158 6 -7 14 -9 18 -5 4 4 20
69 34 143 35 183 34 180 48 180 7 0 28 26 47 58 67 112 179 201 255 202 61 0
122 -60 156 -153 7 -20 16 -36 19 -35 3 2 28 15 56 30 120 63 243 85 303 53
35 -17 41 -32 41 -94 0 -80 -47 -158 -173 -288 l-110 -113 -106 2 c-90 3 -106
1 -109 -13 -2 -14 15 -17 125 -23 218 -11 341 -50 379 -121 53 -100 -92 -238
-362 -345 l-101 -39 -434 -40 c-798 -73 -977 -85 -1040 -72 -158 33 -349 220
-381 373 -24 115 23 185 170 254 2 1 -10 28 -26 60 -77 153 -83 306 -13 344
11 5 42 10 69 10 85 0 159 -46 295 -181 64 -65 117 -112 117 -105 0 7 -22 44
-49 83 -127 181 -349 290 -451 221 -19 -13 -43 -39 -53 -58 -27 -52 -18 -162
22 -265 17 -44 31 -83 31 -87 0 -4 -12 -14 -27 -22 -53 -27 -103 -87 -119
-144 -20 -69 -9 -136 38 -225 42 -79 164 -202 242 -243 l58 -31 -43 -6 c-24
-3 -133 -11 -242 -18 -140 -9 -200 -16 -208 -25 -9 -10 -7 -15 4 -20 46 -17
2178 159 2387 198 64 11 64 12 30 20 -19 4 -75 5 -125 3 l-90 -6 62 30 c331
158 384 385 106 462 -37 11 -78 19 -91 19 -32 0 -26 10 38 62 166 134 261 340
200 436 -24 40 -73 62 -134 62 -48 0 -159 -31 -218 -61 -21 -11 -41 -19 -46
-19 -5 0 -17 18 -27 40 -25 55 -94 117 -140 126 -91 17 -205 -56 -304 -195
l-32 -45 8 60 c4 32 8 106 8 164 -1 135 -20 202 -78 265 -38 42 -48 48 -92 52
-43 4 -56 1 -95 -26 -25 -16 -65 -55 -89 -85 l-44 -56 -53 110 c-150 311 -299
437 -442 375z"/>
<path d="M6906 7203 c-13 -14 -5 -33 14 -33 11 0 20 6 20 14 0 15 -24 28 -34
19z"/>
<path d="M6843 7163 c1 -27 7 -39 20 -41 10 -2 17 3 17 12 0 9 -5 16 -11 16
-8 0 -7 5 2 16 10 13 10 17 -2 25 -24 15 -28 10 -26 -28z"/>
<path d="M6782 7143 c4 -22 38 -30 38 -10 0 8 -7 18 -16 21 -23 9 -26 8 -22
-11z"/>
<path d="M8085 7020 c-16 -25 61 -102 124 -125 52 -18 51 -18 51 -5 0 6 -24
26 -54 45 -30 19 -64 48 -76 65 -22 31 -35 37 -45 20z"/>
<path d="M6981 6996 c-19 -35 -11 -70 18 -74 37 -6 46 11 31 58 -15 45 -31 51
-49 16z m39 -37 c0 -5 -4 -9 -10 -9 -5 0 -10 7 -10 16 0 8 5 12 10 9 6 -3 10
-10 10 -16z"/>
<path d="M7065 6889 c-9 -51 10 -78 43 -60 29 16 34 39 15 72 -25 43 -50 38
-58 -12z m36 -32 c-8 -8 -11 -5 -11 9 0 27 14 41 18 19 2 -9 -1 -22 -7 -28z"/>
<path d="M7466 6911 c-9 -14 5 -42 18 -38 15 5 14 39 -1 44 -6 2 -14 0 -17 -6z"/>
<path d="M7537 6894 c-3 -4 -2 -16 4 -26 13 -24 35 -9 26 16 -7 17 -19 21 -30
10z"/>
<path d="M7427 6854 c-9 -10 4 -34 19 -34 8 0 14 9 14 20 0 19 -19 27 -33 14z"/>
<path d="M7498 6835 c-3 -4 -3 -15 -1 -26 7 -24 28 -20 28 6 0 18 -16 30 -27
20z"/>
<path d="M7430 6786 c0 -21 21 -31 30 -15 5 7 6 17 4 21 -9 14 -34 9 -34 -6z"/>
<path d="M7820 6604 c0 -44 21 -112 41 -130 11 -9 21 -15 23 -13 2 2 -3 31
-11 64 -8 33 -16 70 -19 83 -6 31 -34 29 -34 -4z"/>
<path d="M7006 6568 c-27 -38 -14 -78 25 -78 30 0 38 22 22 63 -17 43 -26 46
-47 15z m30 -45 c-10 -10 -19 5 -10 18 6 11 8 11 12 0 2 -7 1 -15 -2 -18z"/>
<path d="M7753 6478 c-7 -36 -8 -67 -3 -72 11 -11 38 42 46 93 6 36 4 41 -12
41 -16 0 -22 -12 -31 -62z"/>
<path d="M8026 6491 c-4 -5 -7 -65 -9 -134 l-2 -125 -33 -22 c-34 -24 -49 -59
-37 -87 7 -16 9 -14 14 7 12 46 125 100 210 100 51 0 81 10 81 26 0 19 -88 19
-160 0 -30 -8 -57 -12 -59 -10 -3 3 3 42 12 87 21 103 22 167 3 167 -8 0 -17
-4 -20 -9z"/>
<path d="M5050 6460 c0 -10 58 -149 65 -158 2 -2 11 0 20 5 14 8 11 18 -22 83
-35 68 -63 99 -63 70z"/>
<path d="M6526 6462 c-14 -24 91 -158 110 -139 3 3 -14 37 -37 76 -39 65 -60
84 -73 63z"/>
<path d="M5130 6442 c0 -60 86 -232 118 -232 18 0 15 28 -8 60 -11 16 -40 66
-65 112 -29 54 -45 75 -45 60z"/>
<path d="M7780 6316 c0 -74 0 -74 -35 -96 -46 -28 -65 -57 -65 -97 0 -37 22
-53 60 -43 l25 6 -27 7 c-18 5 -28 14 -28 26 0 18 48 68 84 88 20 11 32 118
17 156 -19 48 -31 30 -31 -47z"/>
<path d="M6513 6359 c-7 -7 -8 -24 -2 -47 4 -20 11 -50 14 -65 3 -15 10 -25
15 -22 18 11 9 145 -9 145 -4 0 -12 -5 -18 -11z"/>
<path d="M6607 6243 c-10 -10 -8 -93 3 -133 7 -27 20 -40 55 -59 43 -23 63
-50 50 -71 -11 -18 -45 -11 -45 8 0 30 -25 56 -45 48 -14 -5 -16 -9 -7 -18 7
-7 12 -20 12 -29 0 -13 11 -19 45 -25 54 -8 75 -1 75 25 0 37 -20 71 -52 90
-53 32 -58 39 -58 91 0 67 -12 94 -33 73z"/>
<path d="M7528 6145 c-8 -17 -8 -35 -2 -52 13 -38 28 -34 32 7 2 19 8 39 13
45 15 15 10 25 -11 25 -12 0 -25 -10 -32 -25z"/>
<path d="M7771 6152 c-15 -29 -3 -61 20 -55 13 4 18 11 14 23 -3 10 -1 21 5
25 17 10 11 25 -10 25 -10 0 -24 -8 -29 -18z"/>
<path d="M7844 6156 c-8 -22 0 -69 12 -73 7 -2 15 9 18 24 4 15 9 36 12 46 7
21 -34 24 -42 3z"/>
<path d="M7604 6135 c-14 -21 -15 -31 -5 -51 10 -22 14 -24 26 -14 9 7 13 21
10 31 -3 9 -1 20 5 24 15 9 12 35 -5 35 -8 0 -22 -11 -31 -25z"/>
<path d="M6558 5985 c12 -37 17 -43 28 -34 29 24 10 79 -27 79 -15 0 -15 -4
-1 -45z"/>
<path d="M3071 5994 c-30 -8 -74 -23 -99 -34 -58 -26 -162 -111 -199 -163 -32
-44 -119 -221 -148 -298 -15 -41 -23 -49 -76 -75 -44 -21 -85 -54 -154 -125
-137 -141 -180 -220 -143 -257 18 -18 108 -14 169 7 58 20 204 95 231 118 9 8
21 12 26 9 20 -12 21 -176 0 -270 -30 -141 -32 -162 -17 -171 8 -6 25 6 50 35
21 24 40 42 43 39 10 -9 -20 -114 -49 -172 -28 -56 -93 -127 -117 -127 -6 0
-27 5 -45 12 -46 17 -54 1 -39 -66 16 -66 39 -109 73 -136 24 -19 36 -21 83
-16 75 9 191 37 186 45 -3 4 -53 3 -113 -1 -66 -5 -116 -5 -129 1 -22 10 -64
84 -64 113 0 12 10 16 35 16 19 0 50 10 69 21 91 57 184 307 131 351 -13 11
-21 9 -45 -9 -17 -12 -30 -19 -30 -17 0 3 7 35 16 73 12 52 15 97 11 191 l-6
123 45 41 c42 39 58 77 32 79 -7 0 19 8 57 18 39 10 114 36 168 58 53 22 97
38 97 34 0 -4 -31 -51 -70 -104 -113 -158 -102 -146 -127 -130 -12 8 -36 13
-54 11 -45 -4 -70 -49 -76 -136 -5 -81 15 -129 66 -154 31 -15 36 -25 52 -87
32 -125 95 -215 184 -262 l45 -24 0 -79 c0 -62 -5 -86 -22 -117 -32 -57 -45
-56 -63 3 -20 70 -48 98 -97 98 -52 0 -80 -28 -68 -69 5 -17 11 -34 14 -39 3
-5 -26 -48 -64 -95 -37 -47 -87 -118 -110 -156 -103 -173 -193 -451 -147 -451
9 0 23 37 41 102 27 106 110 291 167 375 44 65 122 163 131 163 3 0 39 -23 79
-50 119 -82 217 -99 325 -59 32 12 77 40 102 62 39 37 45 39 54 24 5 -10 35
-48 66 -85 31 -38 89 -106 128 -152 99 -118 454 -591 454 -606 0 -11 -91 -41
-205 -67 -82 -19 -48 -34 47 -21 l70 10 -5 -33 c-7 -39 -59 -145 -74 -150 -15
-5 -184 250 -231 349 -47 98 -71 174 -80 260 -5 48 -11 64 -24 66 -49 9 1
-208 86 -376 36 -72 141 -233 219 -337 30 -40 42 -62 34 -66 -17 -9 -199 -43
-450 -84 -259 -43 -295 -53 -182 -54 94 -1 548 71 668 105 26 8 22 -29 -9 -65
-28 -34 -61 -39 -124 -21 -41 12 -89 -1 -115 -30 -23 -25 -62 -25 -100 0 -55
36 -93 26 -136 -36 -36 -52 -50 -54 -137 -19 -84 34 -108 32 -148 -11 -19 -19
-34 -42 -34 -50 0 -24 28 -15 52 16 26 36 61 39 117 10 22 -11 58 -22 81 -26
40 -7 43 -5 89 45 26 28 54 51 62 51 8 0 29 -9 47 -20 45 -28 77 -25 135 12
34 22 52 28 55 20 7 -23 74 -116 150 -210 43 -53 71 -97 66 -102 -29 -27 -574
-110 -864 -130 -144 -10 -495 0 -532 15 -14 6 -58 79 -58 96 0 3 44 5 98 6
174 0 299 50 413 164 73 73 122 159 141 251 11 51 9 68 -10 150 -12 51 -22
101 -22 112 0 23 -40 96 -54 96 -6 0 -6 4 1 11 6 6 9 18 6 25 -4 11 6 14 41
14 87 0 143 42 118 87 -7 12 -4 24 11 44 19 26 19 31 6 66 -16 42 -49 58 -49
24 0 -11 5 -23 10 -26 6 -3 10 -15 10 -25 0 -24 -15 -27 -143 -34 l-97 -4 -45
92 c-25 50 -45 99 -45 108 0 31 49 58 105 58 66 0 176 -33 200 -60 18 -20 18
-21 -1 -40 -19 -19 -22 -19 -99 -4 -67 13 -176 12 -163 -1 7 -7 202 -45 230
-45 41 0 64 15 76 47 20 59 -26 99 -150 128 -88 21 -127 19 -181 -8 l-46 -24
-19 44 -19 43 -56 -71 c-31 -40 -57 -65 -57 -55 0 20 -57 22 -103 2 -42 -18
-71 -50 -149 -166 -137 -203 -179 -257 -242 -313 -46 -41 -74 -75 -97 -122
-30 -61 -31 -70 -27 -149 6 -108 43 -189 125 -270 61 -61 170 -122 235 -132
35 -6 38 -9 38 -41 0 -52 25 -102 57 -114 15 -6 85 -13 156 -16 70 -3 127 -7
127 -9 0 -2 -9 -23 -21 -46 -21 -43 -21 -43 -77 -44 -69 -2 -151 -32 -223 -82
-62 -43 -70 -64 -38 -98 63 -67 698 -321 778 -312 24 3 26 7 25 49 0 34 -9 62
-35 105 -33 56 -208 244 -258 277 -24 16 -24 17 -10 74 8 32 13 64 13 71 -1 8
16 12 57 12 74 0 311 25 488 51 135 19 150 18 151 -15 0 -5 9 -39 20 -76 l20
-67 122 -6 c169 -7 328 -47 353 -87 9 -14 -78 -51 -271 -116 -164 -55 -389
-114 -432 -114 -22 0 -24 3 -18 33 16 83 88 189 152 225 16 9 15 16 -9 93 -44
139 -62 140 -34 2 l14 -62 -57 -58 c-58 -61 -95 -137 -107 -220 -5 -39 -4 -42
21 -49 51 -12 201 24 496 122 222 74 297 109 292 139 -11 68 -194 123 -451
138 l-45 2 -18 60 c-10 33 -18 65 -18 71 0 6 55 22 123 36 142 30 177 42 177
62 0 7 -20 40 -45 71 -25 32 -43 60 -42 62 2 2 431 35 953 73 522 38 976 74
1009 80 33 5 61 10 62 10 2 0 4 -150 5 -333 2 -217 6 -330 13 -327 7 3 10 326
10 938 0 684 3 932 11 932 6 0 26 -3 43 -6 l31 -6 1 -887 c1 -875 4 -1001 24
-971 6 9 11 150 13 348 2 182 7 330 11 327 14 -8 489 43 1086 115 314 38 703
83 865 99 471 48 524 56 513 73 -12 21 -507 -27 -1273 -121 -481 -59 -783 -94
-1015 -116 -100 -10 -173 -22 -177 -28 -4 -7 -8 250 -8 571 0 521 2 582 16
582 8 0 300 -38 648 -85 l633 -85 209 69 c268 88 508 174 595 213 107 48 100
63 -101 209 -154 113 -431 300 -515 349 l-87 50 -1456 204 c-802 112 -1458
203 -1459 202 -5 -4 -72 -395 -98 -565 -25 -172 -35 -304 -24 -315 14 -14 326
-62 1179 -179 l315 -43 -1 -27 c0 -15 -1 -286 -2 -603 l-2 -576 -52 4 c-29 3
-478 -26 -998 -63 -520 -38 -962 -69 -983 -69 -34 0 -41 5 -83 63 l-46 62 43
5 c132 17 156 115 56 227 l-20 22 33 33 c38 38 80 121 80 159 0 22 8 29 44 43
49 19 57 30 45 62 -12 33 -400 544 -518 684 -137 160 -179 220 -190 271 -10
45 -36 79 -59 79 -9 0 -26 -10 -39 -22 l-23 -21 0 54 0 55 53 11 c87 18 211
71 254 108 27 23 47 51 57 82 21 61 20 70 -4 48 -17 -15 -34 -17 -124 -13 -93
4 -112 8 -170 37 -70 34 -110 77 -126 132 -5 18 -8 34 -6 36 1 2 23 -8 47 -22
65 -36 162 -58 259 -58 130 -1 146 15 144 146 -2 99 -12 139 -32 135 -14 -3
-16 -11 -12 -43 8 -63 6 -183 -3 -192 -5 -4 -50 -8 -100 -8 -121 1 -222 31
-272 81 -48 48 -65 40 -65 -31 0 -103 67 -185 184 -225 77 -27 183 -36 227
-21 45 15 48 7 9 -29 -65 -60 -236 -130 -323 -130 l-38 0 2 -132 1 -133 -23 0
c-18 0 -30 11 -49 48 -15 29 -34 50 -48 53 -15 4 -21 12 -18 23 10 36 16 127
9 137 -5 6 -32 24 -61 39 -30 16 -65 43 -79 60 -39 45 -86 151 -91 205 -4 42
-7 47 -35 56 -46 13 -77 65 -77 129 0 113 41 148 100 84 28 -31 57 -32 46 -2
-4 9 22 53 65 111 66 89 109 166 109 195 0 10 147 97 164 97 3 0 6 -14 6 -31
0 -76 57 -129 158 -145 93 -15 192 48 208 130 5 30 10 35 28 31 11 -2 68 -7
126 -10 213 -13 318 -43 340 -96 17 -40 5 -77 -38 -122 -63 -65 -114 -77 -335
-78 -217 -1 -314 -10 -282 -25 11 -5 128 -9 260 -9 l240 0 68 33 c108 53 156
137 123 215 -29 72 -118 100 -369 119 -149 12 -158 14 -163 34 -9 36 -94 103
-94 74 0 -6 5 -10 10 -10 21 0 50 -65 50 -110 0 -107 -87 -162 -204 -129 -59
16 -86 49 -86 103 0 41 3 48 37 71 21 14 42 25 48 25 10 0 49 18 145 66 51 26
67 59 56 117 -11 60 -139 135 -306 180 -106 29 -187 32 -269 11z m263 -45
c142 -42 296 -139 296 -185 0 -15 -25 -29 -106 -63 -59 -25 -130 -59 -159 -75
-42 -25 -175 -93 -375 -191 -14 -7 -41 -16 -60 -20 -19 -4 -55 -13 -80 -20
-149 -45 -220 -57 -220 -37 0 20 71 214 104 283 40 86 88 152 153 212 117 109
284 144 447 96z m-723 -630 c14 -10 104 -6 147 7 77 23 -70 -96 -221 -179 -82
-44 -142 -71 -181 -78 -119 -22 -103 26 62 191 70 70 136 132 147 138 18 10
21 7 26 -29 3 -23 12 -45 20 -50z m3536 -364 c769 -108 1417 -197 1440 -199
30 -1 51 -10 70 -28 16 -14 125 -93 243 -174 236 -162 385 -271 413 -302 18
-20 17 -21 -111 -71 -71 -27 -258 -93 -416 -147 l-285 -96 -648 86 c-1365 183
-2248 308 -2261 320 -8 9 20 222 64 491 55 327 52 315 75 315 10 0 647 -88
1416 -195z m-2709 -577 l23 -46 -43 -45 c-59 -60 -100 -79 -184 -85 -57 -4
-80 0 -120 17 -64 28 -174 103 -170 116 1 6 -3 24 -11 42 -18 44 -18 45 25 41
36 -3 38 -5 57 -62 25 -73 53 -96 89 -73 13 9 34 32 46 51 12 20 23 36 25 36
2 0 14 -18 26 -39 51 -91 137 -79 158 21 20 91 43 99 79 26z m-500 -635 c12
-27 32 -73 46 -104 22 -50 86 -165 130 -231 l18 -27 -69 -45 c-125 -84 -265
-111 -337 -66 -58 35 -114 119 -141 208 -16 51 -12 61 63 165 40 55 73 75 132
79 30 1 54 11 84 35 22 17 44 32 47 32 3 1 15 -20 27 -46z m284 -238 c55 -5
68 -10 73 -27 9 -25 4 -29 -47 -39 -88 -17 -101 -13 -131 36 l-27 46 32 -5
c18 -3 63 -8 100 -11z m-672 -40 c0 -32 50 -123 94 -172 60 -66 113 -88 199
-80 79 6 161 37 243 92 40 27 64 38 64 30 0 -8 13 -36 29 -63 l28 -48 -106
-27 c-140 -34 -226 -41 -340 -28 -67 8 -111 20 -153 41 -74 37 -178 101 -178
109 0 7 52 88 86 135 21 29 34 33 34 11z m78 -306 c47 -18 83 -23 203 -27 159
-4 225 6 328 53 29 14 54 25 55 25 0 0 1 -55 1 -123 0 -119 -1 -124 -34 -186
-62 -121 -183 -225 -301 -262 -293 -91 -602 63 -651 324 -19 104 27 212 123
288 l48 38 86 -54 c47 -30 111 -64 142 -76z m422 -751 c0 -7 -9 -42 -20 -77
l-19 -65 20 -14 c105 -73 210 -184 272 -284 39 -64 47 -98 23 -98 -20 0 -254
81 -376 130 -121 48 -316 140 -345 163 -19 15 -19 15 5 36 14 11 54 35 89 53
55 28 76 33 140 34 l76 1 14 67 14 66 54 0 c36 0 53 -4 53 -12z"/>
<path d="M4973 4828 c-27 -34 -87 -266 -76 -294 3 -8 15 -14 27 -12 17 2 23
13 30 56 5 28 12 52 15 52 4 0 15 -26 26 -57 15 -45 25 -58 40 -58 16 0 28 21
63 107 47 117 63 200 42 213 -22 13 -45 -27 -70 -119 -13 -48 -27 -89 -31 -92
-11 -6 -19 46 -22 136 -2 59 -5 75 -18 78 -9 1 -20 -3 -26 -10z"/>
<path d="M5235 4783 c-32 -8 -38 -19 -41 -70 -2 -26 -12 -84 -23 -127 -27
-100 -23 -106 73 -105 82 1 144 17 160 41 20 32 -6 43 -60 24 -26 -9 -65 -16
-87 -16 l-39 0 7 37 c4 21 9 42 12 47 3 5 39 6 80 2 76 -6 113 3 113 28 0 15
-51 26 -127 26 -55 0 -61 6 -42 42 10 18 19 20 92 17 70 -4 82 -2 85 13 2 9
-5 21 -16 27 -22 12 -158 22 -187 14z"/>
<path d="M5500 4688 c-30 -71 -47 -170 -34 -205 21 -60 102 -62 158 -4 20 21
33 51 47 112 10 46 19 99 19 117 0 28 -3 32 -25 32 -27 0 -27 0 -46 -110 -12
-72 -31 -115 -57 -128 -48 -25 -56 35 -17 147 26 77 25 91 -4 91 -13 0 -26
-17 -41 -52z"/>
<path d="M5755 4702 c-6 -4 -16 -46 -23 -94 -7 -47 -19 -106 -27 -129 -22 -62
-7 -74 89 -73 88 2 143 18 151 45 10 32 -1 34 -69 16 -76 -20 -116 -22 -116
-4 0 6 5 28 10 48 l10 36 92 -1 c87 -1 93 0 93 19 0 18 -8 20 -65 23 -113 4
-129 13 -90 52 17 17 28 18 84 13 35 -3 71 -3 80 0 25 10 7 36 -32 47 -43 11
-172 13 -187 2z"/>
<path d="M6091 4652 c-39 -12 -59 -51 -83 -160 -17 -80 -19 -105 -10 -114 18
-18 43 1 57 43 l12 34 16 -32 c22 -42 63 -73 98 -73 42 0 37 29 -11 62 -22 15
-40 32 -40 38 0 5 21 21 48 34 92 47 118 107 62 147 -28 20 -112 32 -149 21z
m115 -57 c14 -34 -60 -95 -115 -95 -20 0 -21 4 -15 38 12 64 19 72 75 72 35 0
51 -4 55 -15z"/>
<path d="M6554 4602 c-17 -11 -50 -81 -69 -146 -21 -71 -14 -118 22 -146 l26
-20 45 25 c25 14 46 24 47 23 29 -45 49 -68 60 -68 23 0 71 47 88 87 29 68 59
214 46 229 -23 28 -46 -3 -68 -93 -25 -101 -40 -143 -52 -143 -17 0 -19 21 -8
94 12 82 5 106 -32 106 -18 0 -23 -9 -34 -70 -8 -43 -50 -110 -69 -110 -8 0
-16 6 -19 14 -8 21 12 97 39 145 29 52 31 81 7 81 -10 0 -23 -4 -29 -8z"/>
<path d="M6891 4541 c-7 -5 -15 -29 -16 -54 -2 -26 -13 -85 -25 -133 -16 -65
-19 -89 -10 -98 16 -16 159 -11 204 8 39 16 57 43 37 56 -7 4 -40 -1 -73 -11
-33 -11 -71 -19 -85 -19 -24 0 -25 2 -19 42 4 22 9 45 12 49 2 4 42 5 87 2 68
-5 85 -3 96 10 21 26 3 37 -62 37 -103 0 -129 16 -91 54 13 14 30 15 95 10 75
-7 79 -6 79 14 0 14 -10 24 -31 31 -38 13 -178 14 -198 2z"/>
<path d="M7305 4492 c-62 -21 -118 -63 -146 -109 -28 -44 -22 -113 12 -149 28
-29 90 -48 135 -39 67 12 125 91 110 150 -10 38 -34 45 -101 32 -49 -10 -60
-16 -60 -32 0 -18 6 -20 53 -18 51 2 53 1 47 -20 -17 -54 -82 -73 -128 -37
-39 31 -36 70 9 110 55 48 101 67 124 52 27 -17 47 -15 58 4 15 27 2 52 -30
63 -17 6 -31 11 -32 11 -1 -1 -24 -8 -51 -18z"/>
<path d="M2371 3226 c-11 -13 -4 -21 41 -49 85 -55 153 -86 220 -102 83 -19
312 -20 394 0 63 14 174 59 174 70 0 6 -1 6 -135 -24 -128 -28 -226 -34 -337
-22 -120 14 -195 43 -319 124 -23 15 -28 16 -38 3z"/>
<path d="M3502 5502 c-17 -11 1 -62 22 -62 22 0 36 32 25 53 -11 18 -27 21
-47 9z"/>
<path d="M3193 5269 c-15 -5 -20 -14 -16 -28 9 -33 28 -44 47 -26 31 32 9 70
-31 54z"/>
<path d="M3292 5221 c-20 -12 -4 -61 19 -61 24 0 36 27 22 48 -12 20 -24 24
-41 13z"/>
<path d="M3161 5151 c-12 -8 -13 -14 -3 -36 17 -36 47 -30 47 10 0 31 -19 42
-44 26z"/>
<path d="M623 2680 c-24 -10 -60 -38 -82 -62 -21 -24 -71 -78 -110 -121 -47
-52 -71 -86 -71 -103 0 -13 6 -24 13 -24 6 0 18 -12 24 -28 20 -43 61 -62 138
-62 37 0 130 -9 207 -21 115 -17 149 -18 191 -9 113 24 138 99 69 206 l-39 60
23 17 c46 35 110 19 179 -44 70 -65 61 -85 -60 -121 l-60 -18 77 3 c65 2 81 6
102 26 34 32 33 59 -4 109 -61 84 -176 124 -244 84 l-35 -21 -38 46 c-58 71
-115 103 -182 103 -33 0 -73 -8 -98 -20z m138 -20 c23 -6 55 -30 86 -63 53
-56 146 -188 157 -224 10 -31 -10 -62 -49 -79 -44 -18 -89 -18 -195 1 -47 8
-134 17 -194 19 -87 4 -115 9 -135 24 -44 32 -38 55 31 134 114 131 162 175
204 186 52 13 54 13 95 2z"/>
<path d="M2008 2683 c-62 -3 -90 -8 -99 -19 -20 -24 5 -40 106 -69 129 -37
527 -125 537 -119 4 3 8 11 8 18 0 9 -63 27 -192 55 -106 23 -233 52 -283 65
-105 27 -97 32 70 41 125 6 167 13 159 26 -5 9 -111 9 -306 2z"/>
<path d="M1786 2543 c15 -62 53 -65 39 -4 -5 22 -12 31 -26 31 -16 0 -18 -5
-13 -27z"/>
<path d="M1487 2493 c-16 -15 -6 -33 18 -33 28 0 34 24 9 34 -19 7 -19 7 -27
-1z"/>
<path d="M1334 2439 c-3 -6 -2 -15 4 -21 13 -13 32 -2 32 18 0 16 -26 19 -36
3z"/>
<path d="M2192 2425 c-15 -34 -15 -35 6 -35 19 0 46 36 37 50 -11 18 -32 10
-43 -15z"/>
<path d="M2432 2383 c5 -25 28 -28 28 -4 0 12 -6 21 -16 21 -9 0 -14 -7 -12
-17z"/>
<path d="M2652 2374 c4 -21 22 -23 26 -1 2 10 -3 17 -13 17 -10 0 -15 -6 -13
-16z"/>
<path d="M2025 2369 c-9 -14 24 -49 47 -49 24 0 23 15 -4 40 -25 23 -34 25
-43 9z"/>
<path d="M3110 2365 c0 -17 44 -31 255 -79 149 -34 265 -53 265 -43 0 10 -152
55 -323 96 -188 46 -197 47 -197 26z"/>
<path d="M1694 2354 c3 -9 6 -18 6 -20 0 -2 18 -4 40 -4 22 0 40 4 40 8 0 18
-26 32 -58 32 -27 0 -33 -3 -28 -16z"/>
<path d="M133 2330 c-39 -16 -26 -30 26 -30 49 0 199 25 209 35 9 9 -212 4
-235 -5z"/>
<path d="M1542 2278 c-18 -18 -14 -38 7 -38 23 0 34 25 17 39 -9 7 -16 7 -24
-1z"/>
<path d="M2330 2277 c0 -20 9 -25 31 -20 28 8 24 33 -6 33 -14 0 -25 -6 -25
-13z"/>
<path d="M1000 2255 c0 -8 2 -15 4 -15 20 0 986 -293 1676 -508 1183 -369
1186 -370 2135 -637 711 -200 952 -265 981 -265 3 0 3 4 -1 9 -12 20 -142 59
-955 287 -934 263 -1032 292 -2180 651 -822 256 -1610 493 -1642 493 -10 0
-18 -7 -18 -15z"/>
<path d="M1867 2206 c-14 -20 -14 -26 -3 -35 11 -9 19 -6 35 15 12 15 21 31
21 35 0 19 -39 8 -53 -15z"/>
<path d="M5905 2210 c-12 -19 6 -29 83 -47 61 -14 118 -17 272 -17 110 1 206
6 220 11 23 10 22 11 -20 16 -25 4 -130 8 -235 11 -129 3 -209 9 -248 20 -69
19 -64 19 -72 6z"/>
<path d="M2150 2193 c-16 -6 -30 -23 -30 -35 0 -14 35 -9 58 8 34 23 14 43
-28 27z"/>
<path d="M3262 2183 c2 -10 14 -19 26 -21 19 -3 23 1 20 15 -2 10 -14 19 -26
21 -19 3 -23 -1 -20 -15z"/>
<path d="M5453 2148 c-11 -13 -32 -45 -45 -72 l-25 -50 -12 36 c-6 20 -20 43
-30 52 -30 27 -49 10 -57 -50 l-6 -55 -63 61 c-43 40 -69 58 -79 54 -9 -3 -16
-10 -16 -14 0 -7 76 -172 109 -239 12 -24 31 -24 31 -2 0 12 -11 49 -25 83
l-25 62 34 -33 c45 -43 62 -36 71 28 4 28 11 49 15 46 5 -3 14 -30 21 -60 18
-79 29 -74 84 40 l34 70 0 -55 c1 -64 12 -86 36 -76 15 5 17 2 11 -26 -27
-133 -13 -140 28 -16 37 110 34 164 -8 123 -8 -8 -17 -15 -20 -15 -3 0 -6 28
-8 62 -3 71 -19 84 -55 46z"/>
<path d="M4298 2129 c-9 -6 -10 -11 -2 -19 15 -15 690 -140 784 -146 l75 -4
-55 20 c-72 26 -786 158 -802 149z"/>
<path d="M2342 2102 c-15 -10 -5 -45 12 -39 13 4 21 47 9 47 -4 0 -14 -4 -21
-8z"/>
<path d="M2522 1980 c-6 -11 -12 -24 -12 -30 0 -18 35 -10 49 11 11 18 11 23
-1 30 -19 12 -22 11 -36 -11z"/>
<path d="M4216 1982 c-15 -14 -3 -31 25 -37 29 -7 60 7 47 20 -9 10 -66 23
-72 17z"/>
<path d="M2692 1918 c-14 -14 2 -48 23 -48 19 0 20 34 2 49 -10 8 -17 7 -25
-1z"/>
<path d="M2905 1921 c-3 -6 3 -15 14 -20 15 -8 20 -7 25 5 3 9 6 18 6 20 0 8
-39 4 -45 -5z"/>
<path d="M5574 1899 c-3 -6 -2 -14 2 -19 13 -12 1678 -321 1759 -326 l70 -4
-55 20 c-39 15 -1729 340 -1765 340 -2 0 -7 -5 -11 -11z"/>
<path d="M3860 1873 c1 -31 53 -58 82 -42 21 11 20 12 -17 30 -40 20 -65 24
-65 12z"/>
<path d="M4677 1863 c-12 -11 -8 -22 13 -33 16 -9 22 -8 27 6 8 21 -24 44 -40
27z"/>
<path d="M4206 1801 c-8 -13 3 -38 19 -45 20 -7 28 10 15 34 -11 21 -25 26
-34 11z"/>
<path d="M3580 1770 c0 -21 16 -26 39 -11 18 11 5 31 -20 31 -12 0 -19 -7 -19
-20z"/>
<path d="M4470 1770 c-13 -9 -13 -11 0 -20 22 -15 30 -12 30 10 0 22 -8 25
-30 10z"/>
<path d="M3291 1751 c-22 -14 -3 -31 35 -31 22 0 34 5 34 14 0 23 -43 34 -69
17z"/>
<path d="M5055 1696 c-19 -14 -19 -15 -2 -21 22 -9 50 2 45 17 -6 18 -22 20
-43 4z"/>
<path d="M3784 1664 c3 -9 6 -18 6 -20 0 -2 7 -4 15 -4 8 0 15 9 15 20 0 14
-7 20 -21 20 -15 0 -19 -4 -15 -16z"/>
<path d="M4736 1652 c-9 -15 16 -30 49 -28 45 2 40 30 -7 34 -20 2 -39 -1 -42
-6z"/>
<path d="M5862 1643 c2 -13 15 -19 46 -21 23 -2 42 1 42 5 0 19 -25 33 -58 33
-26 0 -33 -4 -30 -17z"/>
<path d="M7495 1619 c-132 -122 -42 -271 138 -229 60 15 118 42 137 64 10 13
23 15 61 10 60 -8 95 0 109 27 17 31 -4 84 -39 99 -39 16 -106 10 -106 -10 0
-11 12 -15 42 -16 46 0 73 -17 73 -45 0 -19 -11 -24 -84 -34 l-48 -7 7 42 c6
38 4 43 -29 75 -40 37 -116 65 -178 65 -31 0 -47 -8 -83 -41z m165 -10 c52
-23 100 -66 100 -89 0 -26 -54 -70 -105 -86 -156 -47 -240 41 -144 151 18 20
27 39 23 46 -10 17 68 3 126 -22z"/>
<path d="M3926 1608 c-16 -22 -13 -38 6 -38 13 0 37 30 38 48 0 20 -28 14 -44
-10z"/>
<path d="M5263 1604 c-7 -3 -9 -12 -6 -20 6 -16 60 -19 83 -4 13 9 13 11 0 20
-16 10 -56 12 -77 4z"/>
<path d="M4433 1585 c-7 -20 -5 -21 35 -30 24 -5 32 -3 32 7 0 34 -55 53 -67
23z"/>
<path d="M5584 1589 c-8 -14 4 -25 38 -33 33 -7 44 7 22 28 -18 18 -50 21 -60
5z"/>
<path d="M4240 1555 c-16 -19 -9 -49 13 -53 13 -3 17 3 17 27 0 35 -13 47 -30
26z"/>
<path d="M6180 1540 c0 -16 5 -21 23 -18 12 2 22 10 22 18 0 8 -10 16 -22 18
-18 3 -23 -2 -23 -18z"/>
<path d="M6810 1451 c0 -24 25 -45 45 -37 20 7 9 31 -21 44 -21 10 -24 9 -24
-7z"/>
<path d="M7915 1450 c-3 -5 4 -14 17 -20 45 -19 679 -141 716 -138 36 3 35 4
-33 26 -69 22 -641 142 -676 142 -10 0 -21 -4 -24 -10z"/>
<path d="M6510 1432 c0 -23 28 -43 55 -40 40 4 41 22 2 36 -39 14 -57 15 -57
4z"/>
<path d="M5467 1423 c-12 -12 -7 -51 7 -56 9 -4 16 3 18 17 7 36 -7 58 -25 39z"/>
<path d="M6074 1394 c-13 -20 -14 -28 -5 -37 10 -9 18 -6 37 16 13 16 22 33
19 38 -11 17 -34 9 -51 -17z"/>
<path d="M7060 1384 c0 -35 56 -62 90 -44 25 14 17 30 -15 30 -13 0 -27 5 -30
10 -6 10 -45 14 -45 4z"/>
<path d="M4948 1372 c-33 -6 -19 -30 20 -35 43 -5 53 -1 46 17 -6 15 -39 24
-66 18z"/>
<path d="M5917 1366 c-3 -8 2 -16 13 -19 21 -5 30 0 30 20 0 17 -36 17 -43 -1z"/>
<path d="M5703 1334 c-7 -18 11 -39 26 -30 17 11 13 46 -4 46 -9 0 -18 -7 -22
-16z"/>
<path d="M4617 1334 c-15 -15 -7 -45 11 -42 9 2 17 12 17 22 0 20 -16 31 -28
20z"/>
<path d="M6370 1321 c0 -6 5 -13 10 -16 6 -3 10 1 10 9 0 9 -4 16 -10 16 -5 0
-10 -4 -10 -9z"/>
<path d="M5320 1285 c0 -12 7 -15 25 -13 14 2 26 8 26 13 0 6 -12 11 -26 13
-18 2 -25 -1 -25 -13z"/>
<path d="M6750 1286 c0 -9 7 -16 16 -16 17 0 14 22 -4 28 -7 2 -12 -3 -12 -12z"/>
<path d="M8130 1215 c0 -22 45 -48 70 -40 26 8 21 29 -8 33 -12 2 -22 8 -22
13 0 5 -9 9 -20 9 -11 0 -20 -7 -20 -15z"/>
<path d="M5151 1174 c-17 -22 -19 -30 -9 -41 10 -13 16 -11 35 13 13 16 22 33
20 38 -7 20 -26 16 -46 -10z"/>
<path d="M7382 1177 c-14 -16 -6 -27 20 -27 13 0 18 6 16 17 -4 22 -22 27 -36
10z"/>
<path d="M7754 1169 c-8 -14 11 -33 25 -25 16 10 13 36 -3 36 -8 0 -18 -5 -22
-11z"/>
<path d="M6548 1159 c-22 -12 -23 -39 -2 -39 24 0 54 19 54 35 0 17 -27 19
-52 4z"/>
<path d="M7030 1101 c6 -13 17 -17 30 -14 32 8 24 33 -10 33 -27 0 -29 -2 -20
-19z"/>
<path d="M5566 1102 c-8 -13 11 -35 23 -28 16 10 14 36 -3 36 -8 0 -17 -4 -20
-8z"/>
<path d="M6180 1082 c0 -14 23 -32 42 -32 22 0 24 26 2 34 -22 8 -44 7 -44 -2z"/>
<path d="M7263 1073 c-10 -27 57 -48 72 -22 9 14 4 18 -34 29 -26 7 -33 6 -38
-7z"/>
<path d="M5896 1071 c-10 -16 0 -28 28 -33 30 -6 55 7 41 21 -16 16 -62 24
-69 12z"/>
<path d="M8458 1054 c-11 -10 3 -34 19 -34 8 0 13 7 11 17 -3 18 -20 27 -30
17z"/>
<path d="M7520 1026 c0 -24 16 -27 35 -6 18 19 17 20 -8 20 -17 0 -27 -5 -27
-14z"/>
<path d="M8032 1031 c-14 -8 -6 -41 9 -41 14 0 23 30 13 40 -5 5 -15 6 -22 1z"/>
<path d="M7051 977 c-6 -8 -6 -18 -1 -27 7 -11 11 -11 24 -1 9 8 16 17 16 21
0 14 -28 19 -39 7z"/>
<path d="M8162 955 c-8 -16 -8 -26 -1 -31 13 -7 49 24 49 43 0 23 -36 14 -48
-12z"/>
<path d="M6202 920 c-12 -5 -40 -24 -62 -41 -38 -30 -42 -32 -79 -21 -88 27
-161 5 -201 -60 -52 -82 41 -173 143 -140 31 10 32 10 5 11 -59 2 -128 47
-128 82 0 10 14 31 31 48 25 25 39 31 74 31 69 0 78 -7 54 -39 -17 -23 -18
-33 -9 -81 15 -78 42 -103 127 -119 53 -10 212 2 274 21 45 13 89 59 89 91 -1
63 -81 171 -154 206 -45 22 -123 27 -164 11z m149 -45 c33 -18 107 -98 120
-132 26 -70 -15 -98 -163 -114 -155 -16 -219 1 -253 65 l-19 35 29 32 c120
126 199 158 286 114z"/>
<path d="M6810 871 c-13 -26 -13 -31 4 -31 16 0 46 26 46 41 0 17 -39 9 -50
-10z"/>
<path d="M7940 853 c-16 -6 -30 -23 -30 -37 0 -12 62 2 71 16 15 24 -6 34 -41
21z"/>
<path d="M8670 840 c-13 -8 -13 -11 2 -26 16 -17 18 -17 24 0 9 23 -7 38 -26
26z"/>
<path d="M7316 833 c-3 -4 -6 -15 -6 -25 0 -24 33 -21 38 3 3 17 -21 33 -32
22z"/>
<path d="M7653 803 c-16 -6 -17 -29 -2 -38 11 -7 49 22 49 37 0 9 -27 10 -47
1z"/>
<path d="M8366 782 c-2 -4 -1 -14 4 -22 7 -11 11 -12 25 0 13 10 13 15 3 21
-17 11 -26 11 -32 1z"/>
<path d="M6806 741 c-7 -11 18 -33 27 -24 4 3 7 12 7 20 0 15 -26 18 -34 4z"/>
<path d="M8571 667 c-10 -12 -10 -20 1 -36 7 -12 18 -21 25 -21 17 0 17 31 0
54 -12 16 -14 16 -26 3z"/>
<path d="M7420 646 c-13 -17 -7 -46 9 -46 14 0 25 40 14 51 -6 6 -15 4 -23 -5z"/>
<path d="M6534 639 c-3 -6 -2 -14 2 -19 14 -13 692 -196 1004 -270 299 -72
411 -95 431 -88 26 9 -119 51 -416 122 -170 41 -466 117 -658 170 -191 53
-349 96 -352 96 -2 0 -7 -5 -11 -11z"/>
<path d="M7062 618 c-18 -18 -15 -38 6 -38 21 0 42 18 42 37 0 16 -32 17 -48
1z"/>
<path d="M7973 619 c-13 -13 -4 -59 13 -59 19 0 25 16 18 45 -7 27 -14 31 -31
14z"/>
<path d="M8170 590 c-9 -16 -8 -22 5 -26 18 -7 45 12 45 32 0 21 -38 17 -50
-6z"/>
<path d="M7580 535 c0 -20 33 -36 51 -24 12 8 11 12 -5 24 -25 19 -46 19 -46
0z"/>
<path d="M8334 485 c-7 -18 14 -47 27 -39 5 3 9 16 9 30 0 27 -27 34 -36 9z"/>
<path d="M8576 479 c-30 -24 -34 -49 -8 -49 20 0 52 29 52 48 0 21 -18 22 -44
1z"/>
<path d="M7952 458 c3 -7 23 -66 44 -130 31 -92 43 -117 57 -118 15 0 18 5 13
33 -5 29 -5 30 6 10 6 -13 14 -23 17 -23 3 0 20 21 36 48 l30 47 3 -58 3 -58
41 36 c39 36 109 74 136 75 21 0 13 -47 -24 -130 -19 -45 -34 -86 -32 -92 2
-6 23 17 46 51 39 59 62 115 62 153 0 25 -22 68 -34 68 -7 0 -45 -16 -85 -35
l-74 -36 7 71 c3 38 4 70 2 70 -2 0 -28 -29 -57 -65 -29 -36 -56 -62 -60 -58
-3 5 -14 30 -24 56 -10 26 -31 59 -47 72 -31 26 -73 34 -66 13z"/>
<path d="M8385 170 c-4 -6 -4 -14 -1 -18 11 -11 188 -51 251 -57 60 -5 60 -5
27 10 -36 17 -181 60 -235 70 -22 4 -37 3 -42 -5z"/>
</g>
</svg>
