<?xml version="1.0" standalone="no"?>
<!DOCTYPE svg PUBLIC "-//W3C//DTD SVG 20010904//EN"
 "http://www.w3.org/TR/2001/REC-SVG-20010904/DTD/svg10.dtd">
<svg version="1.0" xmlns="http://www.w3.org/2000/svg"
 width="242.000000pt" height="443.000000pt" viewBox="0 0 242.000000 443.000000"
 preserveAspectRatio="xMidYMid meet">

<g transform="translate(0.000000,443.000000) scale(0.100000,-0.100000)"
fill="#000000" stroke="none">
<path d="M928 4281 c-167 -54 -281 -186 -378 -441 l-36 -95 -55 -19 c-43 -16
-74 -39 -155 -120 -142 -141 -191 -225 -152 -264 19 -19 111 -14 170 8 29 11
98 44 152 75 54 30 102 52 106 50 4 -2 10 -43 13 -91 4 -64 0 -110 -15 -178
-30 -141 -32 -162 -17 -171 8 -6 25 6 50 35 21 24 40 42 43 39 10 -9 -20 -114
-49 -172 -28 -56 -93 -127 -117 -127 -6 0 -27 5 -45 12 -46 17 -54 1 -39 -66
16 -66 39 -109 73 -136 24 -19 36 -21 83 -16 75 9 191 37 186 45 -3 4 -53 3
-113 -1 -66 -5 -116 -5 -129 1 -22 10 -64 84 -64 113 0 12 10 16 35 16 19 0
50 10 69 21 91 57 184 307 131 351 -13 11 -21 9 -45 -9 -17 -12 -30 -19 -30
-17 0 3 7 35 16 73 12 52 15 97 11 192 l-6 125 39 33 c42 37 59 71 40 83 -6 4
26 16 73 28 46 12 121 37 166 56 44 19 81 31 81 27 0 -4 -31 -51 -70 -104
-113 -158 -102 -146 -127 -130 -12 8 -36 13 -54 11 -45 -4 -70 -49 -76 -136
-5 -81 15 -129 66 -154 31 -15 36 -25 52 -87 32 -125 95 -215 184 -262 l45
-24 0 -79 c0 -62 -5 -86 -22 -117 -32 -57 -45 -56 -63 3 -20 70 -48 98 -97 98
-52 0 -80 -28 -68 -69 5 -17 11 -34 14 -39 3 -5 -26 -48 -64 -95 -37 -47 -87
-118 -110 -156 -103 -173 -193 -451 -147 -451 9 0 23 37 41 102 27 106 110
291 167 375 44 65 122 163 131 163 3 0 39 -23 79 -50 119 -82 217 -99 325 -59
32 12 77 40 102 62 39 37 45 39 54 24 5 -10 35 -48 66 -85 31 -38 89 -106 128
-152 99 -118 454 -591 454 -606 0 -11 -91 -41 -205 -67 -82 -19 -48 -34 47
-21 l70 10 -5 -33 c-7 -39 -59 -145 -74 -150 -15 -5 -184 250 -231 349 -47 98
-71 174 -80 260 -5 48 -11 64 -24 66 -49 9 1 -208 86 -376 36 -72 141 -233
219 -337 30 -40 42 -62 34 -66 -17 -9 -199 -43 -450 -84 -259 -43 -295 -53
-182 -54 94 -1 548 71 668 105 26 8 22 -29 -9 -65 -28 -34 -61 -39 -124 -21
-41 12 -89 -1 -115 -30 -23 -25 -62 -25 -100 0 -55 36 -93 26 -136 -36 -36
-52 -50 -54 -137 -19 -84 34 -108 32 -148 -11 -19 -19 -34 -42 -34 -50 0 -24
28 -15 52 16 26 36 61 39 117 10 22 -11 58 -22 81 -26 40 -7 43 -5 89 45 26
28 54 51 62 51 8 0 29 -9 47 -20 45 -28 77 -25 135 12 34 22 52 28 55 20 7
-23 74 -116 150 -210 43 -53 71 -97 66 -102 -29 -27 -574 -110 -864 -130 -144
-10 -495 0 -532 15 -14 6 -58 79 -58 96 0 3 44 5 98 6 174 0 299 50 413 164
73 73 122 159 141 251 11 51 9 68 -10 150 -12 51 -22 101 -22 112 0 23 -40 96
-54 96 -6 0 -6 4 1 11 6 6 9 18 6 25 -4 11 6 14 41 14 87 0 143 42 118 87 -7
12 -4 24 11 44 19 26 19 31 6 66 -16 42 -49 58 -49 24 0 -11 5 -23 10 -26 6
-3 10 -15 10 -25 0 -24 -15 -27 -143 -34 l-97 -4 -45 92 c-25 50 -45 99 -45
108 0 31 49 58 105 58 66 0 176 -33 200 -60 18 -20 18 -21 -1 -40 -19 -19 -22
-19 -99 -4 -67 13 -176 12 -163 -1 7 -7 202 -45 230 -45 41 0 64 15 76 47 20
59 -26 99 -150 128 -88 21 -127 19 -181 -8 l-46 -24 -19 44 -19 43 -56 -71
c-31 -40 -57 -65 -57 -55 0 20 -57 22 -103 2 -42 -18 -71 -50 -149 -166 -137
-203 -179 -257 -242 -313 -46 -41 -74 -75 -97 -122 -30 -61 -31 -70 -27 -149
6 -108 43 -189 125 -270 61 -61 170 -122 235 -132 35 -6 38 -9 38 -41 0 -52
25 -102 57 -114 15 -6 85 -13 156 -16 70 -3 127 -7 127 -9 0 -2 -9 -23 -21
-46 -21 -43 -21 -43 -77 -44 -69 -2 -151 -32 -223 -82 -62 -43 -70 -64 -38
-98 63 -67 698 -321 778 -312 24 3 26 7 25 49 0 34 -9 62 -35 105 -33 56 -208
244 -258 277 -24 16 -24 17 -10 74 8 32 13 64 13 71 -1 8 16 12 57 12 74 0
311 25 488 51 135 19 150 18 151 -15 0 -5 9 -39 20 -76 l20 -67 122 -6 c169
-7 328 -47 353 -87 9 -14 -78 -51 -271 -116 -164 -55 -389 -114 -432 -114 -22
0 -24 3 -18 33 16 83 88 189 152 225 16 9 15 16 -9 93 -44 139 -62 140 -34 2
l14 -62 -57 -58 c-58 -61 -95 -137 -107 -220 -5 -39 -4 -42 21 -49 51 -12 201
24 496 122 222 74 297 109 292 139 -11 68 -194 123 -451 138 l-45 2 -18 60
c-10 33 -18 65 -18 71 0 6 55 22 123 36 142 30 177 42 177 62 0 7 -20 40 -45
71 -25 32 -43 60 -42 62 2 1 104 10 228 19 258 18 269 19 269 39 0 19 -28 19
-270 0 -286 -22 -262 -26 -316 47 l-46 63 43 5 c132 17 156 115 56 227 l-20
22 33 33 c38 38 80 121 80 159 0 22 8 29 44 43 49 19 57 30 45 62 -12 33 -400
544 -518 684 -137 160 -179 220 -190 271 -10 45 -36 79 -59 79 -9 0 -26 -10
-39 -22 l-23 -21 0 54 0 55 53 11 c87 18 211 71 254 108 27 23 47 51 57 82 21
61 20 70 -4 48 -17 -15 -34 -17 -124 -13 -93 4 -112 8 -170 37 -70 34 -110 77
-126 132 -5 18 -8 34 -6 36 1 2 23 -8 47 -22 65 -36 162 -58 259 -58 130 -1
146 15 144 146 -2 99 -12 139 -32 135 -14 -3 -16 -11 -12 -43 8 -63 6 -183 -3
-192 -5 -4 -50 -8 -100 -8 -121 1 -222 31 -272 81 -48 48 -65 40 -65 -31 0
-103 67 -185 184 -225 77 -27 183 -36 227 -21 45 15 48 7 9 -29 -65 -60 -236
-130 -323 -130 l-38 0 2 -132 1 -133 -23 0 c-18 0 -30 11 -49 48 -15 29 -34
50 -48 53 -15 4 -21 12 -18 23 10 36 16 127 9 137 -5 6 -32 24 -61 39 -30 16
-65 43 -79 60 -39 45 -86 151 -91 205 -4 42 -7 47 -35 56 -46 13 -77 65 -77
129 0 113 41 148 100 84 28 -31 57 -32 46 -2 -4 9 22 53 65 111 66 89 109 166
109 195 0 10 147 97 164 97 3 0 6 -14 6 -31 0 -76 57 -129 158 -145 93 -15
192 48 208 130 5 30 10 35 28 31 11 -2 68 -7 126 -10 213 -13 318 -43 340 -96
17 -40 5 -77 -38 -122 -63 -65 -114 -77 -335 -78 -217 -1 -314 -10 -282 -25
11 -5 128 -9 260 -9 l240 0 68 33 c108 53 156 137 123 215 -29 72 -118 100
-369 119 -149 12 -158 14 -163 34 -9 36 -94 103 -94 74 0 -6 5 -10 10 -10 21
0 50 -65 50 -110 0 -107 -87 -162 -204 -129 -58 16 -86 49 -86 103 0 55 11 64
161 131 92 41 107 51 117 79 19 52 14 73 -26 115 -47 49 -177 112 -279 135
-96 21 -232 20 -305 -3z m312 -37 c141 -33 290 -129 290 -187 0 -15 -3 -26 -7
-25 -18 5 -73 -21 -358 -163 -274 -136 -312 -153 -435 -184 -132 -34 -200 -43
-200 -27 0 24 74 223 109 292 82 164 183 262 311 301 44 13 222 9 290 -7z
m-741 -551 c-5 -15 -8 -37 -4 -50 9 -36 51 -40 165 -17 20 4 13 -6 -36 -53
-79 -74 -284 -188 -368 -204 -114 -21 -102 23 47 178 104 108 179 173 198 173
5 0 4 -12 -2 -27z m839 -1015 l23 -46 -43 -45 c-59 -60 -100 -79 -184 -85 -57
-4 -80 0 -120 17 -64 28 -174 103 -170 116 1 6 -3 24 -11 42 -18 44 -18 45 25
41 36 -3 38 -5 57 -62 25 -73 53 -96 89 -73 13 9 34 32 46 51 12 20 23 36 25
36 2 0 14 -18 26 -39 51 -91 137 -79 158 21 20 91 43 99 79 26z m-500 -635
c12 -27 32 -73 46 -104 22 -50 86 -165 130 -231 l18 -27 -69 -45 c-125 -84
-265 -111 -337 -66 -58 35 -114 119 -141 208 -16 51 -12 61 63 165 40 55 73
75 132 79 30 1 54 11 84 35 22 17 44 32 47 32 3 1 15 -20 27 -46z m284 -238
c55 -5 68 -10 73 -27 9 -25 4 -29 -47 -39 -88 -17 -101 -13 -131 36 l-27 46
32 -5 c18 -3 63 -8 100 -11z m-672 -40 c0 -32 50 -123 94 -172 60 -66 113 -88
199 -80 79 6 161 37 243 92 40 27 64 38 64 30 0 -8 13 -36 29 -63 l28 -48
-106 -27 c-140 -34 -226 -41 -340 -28 -67 8 -111 20 -153 41 -74 37 -178 101
-178 109 0 7 52 88 86 135 21 29 34 33 34 11z m78 -306 c47 -18 83 -23 203
-27 159 -4 225 6 328 53 29 14 54 25 55 25 0 0 1 -55 1 -123 0 -119 -1 -124
-34 -186 -62 -121 -183 -225 -301 -262 -293 -91 -602 63 -651 324 -19 104 27
212 123 288 l48 38 86 -54 c47 -30 111 -64 142 -76z m422 -751 c0 -7 -9 -42
-20 -77 l-19 -65 20 -14 c105 -73 210 -184 272 -284 39 -64 47 -98 23 -98 -20
0 -254 81 -376 130 -121 48 -316 140 -345 163 -19 15 -19 15 5 36 14 11 54 35
89 53 55 28 76 33 140 34 l76 1 14 67 14 66 54 0 c36 0 53 -4 53 -12z"/>
<path d="M271 1526 c-11 -13 -4 -21 41 -49 85 -55 153 -86 220 -102 83 -19
312 -20 394 0 63 14 174 59 174 70 0 6 -1 6 -135 -24 -128 -28 -226 -34 -337
-22 -120 14 -195 43 -319 124 -23 15 -28 16 -38 3z"/>
<path d="M1402 3802 c-17 -11 1 -62 22 -62 22 0 36 32 25 53 -11 18 -27 21
-47 9z"/>
<path d="M1093 3569 c-15 -5 -20 -14 -16 -28 9 -33 28 -44 47 -26 31 32 9 70
-31 54z"/>
<path d="M1192 3521 c-20 -12 -4 -61 19 -61 24 0 36 27 22 48 -12 20 -24 24
-41 13z"/>
<path d="M1061 3451 c-12 -8 -13 -14 -3 -36 17 -36 47 -30 47 10 0 31 -19 42
-44 26z"/>
<path d="M0 969 c0 -21 3 -22 80 -15 44 3 93 9 110 12 59 12 17 24 -86 24
-100 0 -104 -1 -104 -21z"/>
<path d="M0 891 c0 -12 1 -21 3 -21 1 0 101 -22 221 -50 121 -27 223 -47 228
-44 32 20 -6 34 -208 78 -119 26 -222 50 -230 53 -9 3 -14 -2 -14 -16z"/>
<path d="M92 725 c-15 -34 -15 -35 6 -35 19 0 46 36 37 50 -11 18 -32 10 -43
-15z"/>
<path d="M332 683 c5 -25 28 -28 28 -4 0 12 -6 21 -16 21 -9 0 -14 -7 -12 -17z"/>
<path d="M552 674 c4 -21 22 -23 26 -1 2 10 -3 17 -13 17 -10 0 -15 -6 -13
-16z"/>
<path d="M1010 665 c0 -17 44 -31 255 -79 149 -34 265 -53 265 -43 0 10 -152
55 -323 96 -188 46 -197 47 -197 26z"/>
<path d="M230 577 c0 -20 9 -25 31 -20 28 8 24 33 -6 33 -14 0 -25 -6 -25 -13z"/>
<path d="M50 493 c-16 -6 -30 -23 -30 -35 0 -14 35 -9 58 8 34 23 14 43 -28
27z"/>
<path d="M1162 483 c2 -10 14 -19 26 -21 19 -3 23 1 20 15 -2 10 -14 19 -26
21 -19 3 -23 -1 -20 -15z"/>
<path d="M2198 429 c-24 -15 7 -29 113 -49 57 -11 105 -20 106 -20 10 0 0 40
-9 40 -7 0 -54 9 -105 19 -51 10 -98 14 -105 10z"/>
<path d="M242 402 c-15 -10 -5 -45 12 -39 13 4 21 47 9 47 -4 0 -14 -4 -21 -8z"/>
<path d="M422 280 c-6 -11 -12 -24 -12 -30 0 -18 35 -10 49 11 11 18 11 23 -1
30 -19 12 -22 11 -36 -11z"/>
<path d="M2116 282 c-15 -14 -3 -31 25 -37 29 -7 60 7 47 20 -9 10 -66 23 -72
17z"/>
<path d="M0 231 c0 -12 2 -21 4 -21 2 0 156 -47 342 -105 283 -88 348 -105
392 -103 50 3 27 11 -330 122 -211 65 -389 121 -395 123 -8 3 -13 -3 -13 -16z"/>
<path d="M592 218 c-14 -14 2 -48 23 -48 19 0 20 34 2 49 -10 8 -17 7 -25 -1z"/>
<path d="M805 221 c-3 -6 3 -15 14 -20 15 -8 20 -7 25 5 3 9 6 18 6 20 0 8
-39 4 -45 -5z"/>
<path d="M1760 173 c1 -31 53 -58 82 -42 21 11 20 12 -17 30 -40 20 -65 24
-65 12z"/>
<path d="M2106 101 c-8 -13 3 -38 19 -45 20 -7 28 10 15 34 -11 21 -25 26 -34
11z"/>
<path d="M1480 70 c0 -21 16 -26 39 -11 18 11 5 31 -20 31 -12 0 -19 -7 -19
-20z"/>
<path d="M2370 70 c-13 -9 -13 -11 0 -20 22 -15 30 -12 30 10 0 22 -8 25 -30
10z"/>
<path d="M1191 51 c-22 -14 -3 -31 35 -31 22 0 34 5 34 14 0 23 -43 34 -69 17z"/>
</g>
</svg>
